<svg width="8" height="10" viewBox="0 0 8 10" fill="none" xmlns="http://www.w3.org/2000/svg">
<path fill-rule="evenodd" clip-rule="evenodd" d="M3.88111 0.625056C4.11076 0.627881 4.37601 0.736426 4.51911 0.992156L4.60621 1.14783C5.93531 3.52292 7.01876 5.99175 7.84311 8.5245C7.95201 8.85905 7.77256 9.14285 7.54846 9.27435C7.32926 9.403 7.02771 9.4202 6.77236 9.256L4.40861 7.73595C4.14741 7.56795 3.79286 7.5675 3.54816 7.72205L1.23242 9.18455C0.971408 9.3494 0.668533 9.31755 0.455903 9.18995C0.242343 9.0618 0.0516732 8.7856 0.151358 8.44845C0.894883 5.9338 1.89986 3.48922 3.15386 1.14434L3.23601 0.990746C3.37811 0.724991 3.65211 0.622241 3.88111 0.625056ZM3.87753 1.38157L3.81518 1.49808C2.61257 3.74689 1.64392 6.08815 0.920169 8.49475L3.14763 7.088C3.64703 6.7726 4.31603 6.78475 4.81428 7.10515L7.06228 8.55085C6.26208 6.1376 5.22138 3.78303 3.95168 1.51413L3.87753 1.38157Z" fill="#FFD02E"/>
</svg>
