<svg width="10" height="10" viewBox="0 0 10 10" fill="none" xmlns="http://www.w3.org/2000/svg">
<path d="M0.961043 4.61074C0.961043 5.4908 1.55721 6.25318 2.39372 6.47127C2.49778 6.49828 2.56676 6.59203 2.56676 6.69476H2.56751V9.08774C4.03019 8.55299 5.97006 8.55299 7.43262 9.08774V6.69476C7.43262 6.58089 7.51482 6.48615 7.62319 6.46669C8.03268 6.35532 8.38832 6.11131 8.64089 5.78361C8.89055 5.45963 9.03909 5.05297 9.03909 4.61074C9.03909 3.62453 8.29632 2.80629 7.33106 2.69893C7.2344 3.14059 7.01166 3.54733 6.69534 3.86631C6.48149 4.08199 6.15313 3.75685 6.36772 3.54059C6.65928 3.24604 6.84736 2.86714 6.90447 2.45648C6.77224 1.50644 5.95866 0.801887 5.00021 0.801887C4.0416 0.801887 3.22802 1.50642 3.09579 2.45648C3.15289 2.86706 3.34104 3.24595 3.6326 3.54059C3.84702 3.75684 3.51882 4.08197 3.30498 3.86631C2.98849 3.54733 2.76583 3.14067 2.66909 2.6991C1.70383 2.80631 0.961149 3.62455 0.961149 4.61076L0.961043 4.61074ZM6.83232 6.66442C7.12787 6.73822 7.01558 7.1871 6.72012 7.11323C5.63793 6.84261 4.36225 6.84261 3.27991 7.11323C2.98452 7.18711 2.87233 6.73831 3.16771 6.66442C4.32662 6.37461 5.67367 6.37435 6.83239 6.66442H6.83232ZM3.98466 2.48442C3.94768 2.78718 3.48781 2.73067 3.52489 2.4284C3.61582 1.69004 4.2497 1.12621 5.00004 1.12621C5.30498 1.12621 5.30498 1.58955 5.00004 1.58955C4.48043 1.58955 4.04792 1.97493 3.98466 2.48449V2.48442ZM6.83232 7.68527C7.12787 7.75907 7.01558 8.20795 6.72012 8.13408C5.63793 7.86346 4.36225 7.86346 3.27991 8.13408C2.98452 8.20796 2.87233 7.75916 3.16771 7.68527C4.32662 7.39546 5.67367 7.39521 6.83239 7.68527H6.83232ZM5.00004 0.338461C6.13526 0.338461 7.10717 1.14033 7.33579 2.23548C8.55728 2.34702 9.50238 3.37444 9.50238 4.61059C9.50238 5.63452 8.84938 6.53563 7.896 6.86548V9.43038H7.89525C7.89534 9.59386 7.72388 9.70972 7.57021 9.64123C6.10353 8.98772 3.91574 8.98655 2.44638 9.63383C2.27002 9.7206 2.10412 9.59062 2.10412 9.43029V6.8654C1.15157 6.53587 0.497742 5.63542 0.497742 4.61051C0.497742 3.37429 1.44281 2.34689 2.66434 2.2354C2.89298 1.14023 3.86472 0.338379 5.00008 0.338379L5.00004 0.338461Z" fill="#FFD02E" stroke="#FFD02E" stroke-width="0.2"/>
</svg>
