<svg width="10" height="10" viewBox="0 0 10 10" fill="none" xmlns="http://www.w3.org/2000/svg">
<path fill-rule="evenodd" clip-rule="evenodd" d="M4.24318 1.05719C4.58038 0.476052 5.41958 0.476057 5.75678 1.05719L6.78948 2.83687C6.88468 3.00091 7.04918 3.11286 7.23673 3.14118L8.95153 3.40018C9.69903 3.51308 9.96123 4.45689 9.37908 4.93914L8.12963 5.97434C7.95428 6.11959 7.87183 6.34879 7.91443 6.57254L8.26443 8.41049C8.40153 9.13049 7.64568 9.68989 6.99718 9.34839L5.29118 8.45014C5.10888 8.35414 4.89108 8.35414 4.70878 8.45014L3.00277 9.34839C2.35427 9.68989 1.59845 9.13049 1.73555 8.41049L2.08554 6.57254C2.12814 6.34879 2.04568 6.11959 1.87031 5.97434L0.620861 4.93914C0.0387159 4.45689 0.300921 3.51308 1.04842 3.40018L2.76324 3.14118C2.95077 3.11286 3.1153 3.00091 3.21048 2.83687L4.24318 1.05719ZM5.10809 1.4336C5.05994 1.35058 4.94004 1.35058 4.89189 1.4336L3.85919 3.21328C3.64978 3.57418 3.28783 3.82046 2.87526 3.88277L1.16044 4.14179C1.05365 4.15789 1.01619 4.29274 1.09936 4.36164L2.34881 5.39679C2.73462 5.71644 2.91604 6.22064 2.82231 6.71279L2.47232 8.55079C2.45274 8.65364 2.56071 8.73359 2.65335 8.68479L4.35939 7.78649C4.76034 7.57534 5.23964 7.57534 5.64059 7.78649L7.34664 8.68479C7.43929 8.73359 7.54724 8.65364 7.52764 8.55079L7.17769 6.71279C7.08394 6.22064 7.26534 5.71644 7.65119 5.39679L8.90064 4.36164C8.98379 4.29274 8.94634 4.15789 8.83954 4.14179L7.12474 3.88277C6.71214 3.82046 6.35019 3.57418 6.14079 3.21328L5.10809 1.4336Z" fill="#FFD02E"/>
</svg>
