<svg width="6" height="9" viewBox="0 0 6 9" fill="none" xmlns="http://www.w3.org/2000/svg">
<path fill-rule="evenodd" clip-rule="evenodd" d="M2.38208 0.607751C2.45727 0.521231 2.57404 0.483204 2.68577 0.508855C4.17906 0.851687 4.93386 2.48808 4.75635 3.95213C4.68737 4.52127 4.51688 4.96742 4.26588 5.32241C4.26435 5.3246 4.26277 5.32676 4.26124 5.32891C4.31826 5.30089 4.37086 5.27065 4.4201 5.2387C4.66502 5.07972 4.84481 4.86993 5.07886 4.59674C5.10716 4.56372 5.13625 4.52979 5.16633 4.49491C5.23394 4.41649 5.33623 4.37694 5.43898 4.38951C5.54177 4.40205 5.63152 4.46507 5.67828 4.55743C5.88414 4.96427 6 5.42424 6 5.91033C6 7.5672 4.65687 8.91033 3 8.91033C1.34315 8.91033 0 7.5672 0 5.91033C0 4.86053 0.539466 3.93691 1.35489 3.40128L1.38284 3.37311C1.39721 3.35864 1.41295 3.34561 1.42987 3.33423C1.78816 3.09314 2.04543 2.89595 2.21863 2.66405C2.38225 2.44498 2.48276 2.17775 2.48276 1.77241C2.48276 1.4723 2.42735 1.18585 2.32647 0.922255C2.2855 0.815194 2.30686 0.694271 2.38208 0.607751ZM3.07084 1.32896C3.09232 1.47378 3.10345 1.62189 3.10345 1.77248C3.10345 2.29734 2.96785 2.69826 2.71593 3.03555C2.47932 3.3523 2.15184 3.59558 1.80193 3.83204L1.77201 3.86218C1.75598 3.87834 1.73822 3.89267 1.71906 3.90495C1.05785 4.32826 0.62069 5.06837 0.62069 5.91039C0.62069 7.22448 1.68594 8.2897 3 8.2897C4.31404 8.2897 5.37931 7.22448 5.37931 5.91039C5.37931 5.6953 5.35084 5.48713 5.2975 5.28933C5.14018 5.45969 4.96651 5.62409 4.758 5.7594C4.37599 6.00735 3.89789 6.1489 3.2069 6.1489C3.06526 6.1489 2.94161 6.05303 2.90632 5.91586C2.87106 5.77873 2.93309 5.63506 3.05714 5.56674C3.33803 5.41198 3.57612 5.22284 3.7591 4.96409C3.94167 4.70593 4.08153 4.36119 4.14021 3.87749C4.26716 2.83028 3.83375 1.79666 3.07084 1.32896Z" fill="#FFD02E"/>
</svg>
