<svg width="26" height="24" viewBox="0 0 26 24" fill="none" xmlns="http://www.w3.org/2000/svg">
<path d="M11.05 23.4003C12.127 23.4003 13 22.5272 13 21.4503C13 20.3733 12.127 19.5002 11.05 19.5002C9.97303 19.5002 9.09998 20.3733 9.09998 21.4503C9.09998 22.5272 9.97303 23.4003 11.05 23.4003Z" fill="#00A9EC"/>
<path d="M20.1503 23.4003C21.2273 23.4003 22.1004 22.5272 22.1004 21.4503C22.1004 20.3733 21.2273 19.5002 20.1503 19.5002C19.0734 19.5002 18.2003 20.3733 18.2003 21.4503C18.2003 22.5272 19.0734 23.4003 20.1503 23.4003Z" fill="#00A9EC"/>
<path d="M24.7004 5.20009H6.93431L5.43409 1.59903C5.23715 1.12471 4.90382 0.719535 4.47636 0.434866C4.04889 0.150196 3.54653 -0.00115175 3.03295 6.59966e-06H0V2.60005H3.03425L9.20025 17.4008C9.40175 17.8844 9.87626 18.2003 10.4002 18.2003H20.8003C21.3424 18.2003 21.8274 17.8636 22.0185 17.3579L25.9185 6.95772C25.9916 6.76089 26.016 6.54933 25.9898 6.34102C25.9635 6.13271 25.8874 5.93383 25.7678 5.76127C25.6482 5.5887 25.4887 5.44757 25.3029 5.34987C25.117 5.25217 24.9103 5.20079 24.7004 5.20009ZM19.5003 13.0002H16.9003V15.6003H14.3002V13.0002H11.7002V10.4002H14.3002V7.80013H16.9003V10.4002H19.5003V13.0002Z" fill="#00A9EC"/>
</svg>
