<svg width="21" height="24" viewBox="0 0 21 24" fill="none" xmlns="http://www.w3.org/2000/svg">
<path d="M19.5679 3.996C19.1881 3.996 18.8239 4.15403 18.5553 4.43534C18.2867 4.71664 18.1358 5.09817 18.1358 5.496V11.004H17.1849V2.496C17.1849 2.09817 17.0341 1.71664 16.7655 1.43534C16.4969 1.15403 16.1327 0.995999 15.7529 0.995999C15.3731 0.995999 15.0088 1.15403 14.7402 1.43534C14.4717 1.71664 14.3208 2.09817 14.3208 2.496V11.004H13.3584V1.5C13.3584 1.10217 13.2076 0.720644 12.939 0.43934C12.6704 0.158035 12.3062 0 11.9264 0C11.5465 0 11.1823 0.158035 10.9137 0.43934C10.6452 0.720644 10.4943 1.10217 10.4943 1.5V11.004H9.54337V3.996C9.54337 3.59817 9.39249 3.21664 9.12393 2.93534C8.85536 2.65403 8.4911 2.496 8.11129 2.496C7.73148 2.496 7.36723 2.65403 7.09866 2.93534C6.83009 3.21664 6.67921 3.59817 6.67921 3.996V15.912L2.56628 13.512C2.39279 13.4041 2.19519 13.3462 1.99345 13.344C1.71497 13.3444 1.44618 13.4511 1.23732 13.644L0 14.844L7.49264 22.8C7.84507 23.1808 8.26713 23.4833 8.73364 23.6895C9.20014 23.8956 9.70152 24.0012 10.2079 24H17.1849C18.1968 24 19.1671 23.579 19.8826 22.8296C20.5981 22.0802 21 21.0638 21 20.004V5.496C21 5.09817 20.8491 4.71664 20.5806 4.43534C20.312 4.15403 19.9477 3.996 19.5679 3.996ZM9.54337 15.6C9.31678 15.6 9.09528 15.5296 8.90688 15.3978C8.71847 15.2659 8.57163 15.0785 8.48492 14.8592C8.3982 14.6399 8.37552 14.3987 8.41972 14.1659C8.46393 13.9331 8.57304 13.7193 8.73327 13.5515C8.89349 13.3836 9.09763 13.2694 9.31986 13.2231C9.5421 13.1767 9.77246 13.2005 9.9818 13.2913C10.1911 13.3822 10.3701 13.536 10.496 13.7333C10.6218 13.9306 10.689 14.1627 10.689 14.4C10.689 14.7183 10.5683 15.0235 10.3535 15.2485C10.1386 15.4736 9.84722 15.6 9.54337 15.6ZM11.8347 19.2C11.6081 19.2 11.3866 19.1296 11.1982 18.9978C11.0098 18.8659 10.863 18.6785 10.7762 18.4592C10.6895 18.2399 10.6668 17.9987 10.711 17.7659C10.7553 17.5331 10.8644 17.3193 11.0246 17.1515C11.1848 16.9836 11.389 16.8694 11.6112 16.823C11.8334 16.7767 12.0638 16.8005 12.2731 16.8913C12.4825 16.9822 12.6614 17.136 12.7873 17.3333C12.9132 17.5306 12.9804 17.7627 12.9804 18C12.9804 18.3182 12.8597 18.6235 12.6448 18.8485C12.4299 19.0736 12.1385 19.2 11.8347 19.2ZM17.563 16.8C17.3364 16.8 17.1149 16.7296 16.9265 16.5978C16.7381 16.4659 16.5913 16.2785 16.5046 16.0592C16.4178 15.8399 16.3952 15.5987 16.4394 15.3659C16.4836 15.1331 16.5927 14.9193 16.7529 14.7515C16.9131 14.5836 17.1173 14.4694 17.3395 14.423C17.5617 14.3767 17.7921 14.4005 18.0014 14.4913C18.2108 14.5822 18.3897 14.736 18.5156 14.9333C18.6415 15.1306 18.7087 15.3627 18.7087 15.6C18.7087 15.9183 18.588 16.2235 18.3731 16.4485C18.1583 16.6736 17.8669 16.8 17.563 16.8ZM16.4173 20.4C16.1908 20.4 15.9693 20.3296 15.7809 20.1978C15.5924 20.0659 15.4456 19.8785 15.3589 19.6592C15.2722 19.4399 15.2495 19.1987 15.2937 18.9659C15.3379 18.7331 15.447 18.5193 15.6072 18.3515C15.7675 18.1836 15.9716 18.0693 16.1938 18.023C16.4161 17.9767 16.6464 18.0005 16.8558 18.0913C17.0651 18.1822 17.244 18.336 17.3699 18.5333C17.4958 18.7306 17.563 18.9627 17.563 19.2C17.563 19.5182 17.4423 19.8235 17.2275 20.0485C17.0126 20.2736 16.7212 20.4 16.4173 20.4ZM14.126 15.6C13.8994 15.6 13.6779 15.5296 13.4895 15.3978C13.3011 15.2659 13.1543 15.0785 13.0676 14.8592C12.9809 14.6399 12.9582 14.3987 13.0024 14.1659C13.0466 13.9331 13.1557 13.7193 13.3159 13.5515C13.4761 13.3836 13.6803 13.2694 13.9025 13.2231C14.1248 13.1767 14.3551 13.2005 14.5645 13.2913C14.7738 13.3822 14.9527 13.536 15.0786 13.7333C15.2045 13.9306 15.2717 14.1627 15.2717 14.4C15.2717 14.7183 15.151 15.0235 14.9361 15.2485C14.7213 15.4736 14.4299 15.6 14.126 15.6Z" fill="#404040"/>
</svg>
