<svg width="15" height="17" viewBox="0 0 15 17" fill="none" xmlns="http://www.w3.org/2000/svg">
<path d="M11.8984 8.95703C11.8984 7.65625 12.4961 6.70703 13.6562 5.96875C12.9883 5.01953 12.0039 4.52734 10.7031 4.42188C9.4375 4.31641 8.06641 5.125 7.57422 5.125C7.04688 5.125 5.85156 4.45703 4.90234 4.45703C2.93359 4.49219 0.859375 6.00391 0.859375 9.13281C0.859375 10.0469 1 10.9961 1.35156 11.9805C1.80859 13.2812 3.42578 16.4453 5.11328 16.375C5.99219 16.375 6.625 15.7422 7.78516 15.7422C8.91016 15.7422 9.47266 16.375 10.457 16.375C12.1797 16.375 13.6562 13.4922 14.0781 12.1914C11.793 11.1016 11.8984 9.02734 11.8984 8.95703ZM9.92969 3.19141C10.8789 2.06641 10.7734 1.01172 10.7734 0.625C9.92969 0.695312 8.94531 1.22266 8.38281 1.85547C7.75 2.55859 7.39844 3.4375 7.46875 4.38672C8.38281 4.45703 9.22656 4 9.92969 3.19141Z" fill="white"/>
</svg>
