<svg width="39" height="39" viewBox="0 0 39 39" fill="none" xmlns="http://www.w3.org/2000/svg">
<circle cx="19.5" cy="19.5" r="19.5" fill="#FAA61A"/>
<path d="M24 12.75V12.75C25.2426 12.75 26.25 13.7574 26.25 15L26.25 16.6071C26.25 16.7399 26.25 16.8063 26.2375 16.8613C26.1947 17.0485 26.0485 17.1947 25.8613 17.2375C25.8063 17.25 25.7399 17.25 25.6071 17.25L21.75 17.25M24 12.75V12.75C22.7574 12.75 21.75 13.7574 21.75 15L21.75 17.25M24 12.75L16.75 12.75C14.8644 12.75 13.9216 12.75 13.3358 13.3358C12.75 13.9216 12.75 14.8644 12.75 16.75L12.75 26.25L15 25.5L17.25 26.25L19.5 25.5L21.75 26.25L21.75 17.25" stroke="white"/>
<path d="M15.75 15.75L18.75 15.75" stroke="white" stroke-linecap="round"/>
<path d="M16.5 18.75H15.75" stroke="white" stroke-linecap="round"/>
<path d="M15.75 21.75L18 21.75" stroke="white" stroke-linecap="round"/>
</svg>
