<svg width="39" height="39" viewBox="0 0 39 39" fill="none" xmlns="http://www.w3.org/2000/svg">
<circle cx="19.5" cy="19.5" r="19.5" fill="#FAA61A"/>
<path d="M25.2071 21.7071L27.8552 24.3552C28.2113 24.7113 28.2113 25.2887 27.8552 25.6448C25.93 27.57 22.8821 27.7866 20.704 26.153L19.1286 24.9714C17.385 23.6638 15.8362 22.115 14.5286 20.3714L13.347 18.796C11.7134 16.6179 11.93 13.57 13.8552 11.6448C14.2113 11.2887 14.7887 11.2887 15.1448 11.6448L17.7929 14.2929C18.1834 14.6834 18.1834 15.3166 17.7929 15.7071L16.7717 16.7283C16.6095 16.8905 16.5692 17.1385 16.6719 17.3437C17.8585 19.7171 19.7829 21.6415 22.1563 22.8281C22.3615 22.9308 22.6095 22.8905 22.7717 22.7283L23.7929 21.7071C24.1834 21.3166 24.8166 21.3166 25.2071 21.7071Z" stroke="white"/>
</svg>
