<svg width="11" height="36" viewBox="0 0 11 36" fill="none" xmlns="http://www.w3.org/2000/svg">
<path fill-rule="evenodd" clip-rule="evenodd" d="M10.2366 0.145633C9.91068 -0.0176587 9.53328 -0.044813 9.18738 0.0701432C8.84148 0.185099 8.55541 0.432751 8.3921 0.75862L0.145641 17.2515C0.0498686 17.4427 0 17.6535 0 17.8673C0 18.081 0.0498686 18.2919 0.145641 18.483L8.3921 34.9759C8.4721 35.1387 8.58354 35.284 8.71998 35.4036C8.85643 35.5231 9.01518 35.6144 9.18708 35.6723C9.35899 35.7301 9.54065 35.7534 9.72159 35.7407C9.90253 35.7281 10.0792 35.6797 10.2413 35.5985C10.4035 35.5172 10.548 35.4046 10.6664 35.2673C10.7849 35.1299 10.875 34.9705 10.9315 34.7981C10.9881 34.6258 11.0099 34.4439 10.9959 34.2631C10.9818 34.0822 10.9321 33.906 10.8495 33.7444L2.9137 17.8673L10.8495 1.99009C11.0128 1.66421 11.04 1.28681 10.925 0.940914C10.8101 0.595014 10.5624 0.308945 10.2366 0.145633Z" fill="#404040"/>
</svg>
