<svg width="11" height="36" viewBox="0 0 11 36" fill="none" xmlns="http://www.w3.org/2000/svg">
<path fill-rule="evenodd" clip-rule="evenodd" d="M0.763444 0.145633C1.08932 -0.0176587 1.46672 -0.044813 1.81262 0.0701432C2.15852 0.185099 2.44459 0.432751 2.6079 0.75862L10.8544 17.2515C10.9501 17.4427 11 17.6535 11 17.8673C11 18.081 10.9501 18.2919 10.8544 18.483L2.6079 34.9759C2.5279 35.1387 2.41646 35.284 2.28002 35.4036C2.14357 35.5231 1.98482 35.6144 1.81292 35.6723C1.64101 35.7301 1.45935 35.7534 1.27841 35.7407C1.09747 35.7281 0.92082 35.6797 0.758656 35.5985C0.596492 35.5172 0.452017 35.4046 0.333561 35.2673C0.215105 35.1299 0.125011 34.9705 0.0684729 34.7981C0.0119347 34.6258 -0.00992911 34.4439 0.00414181 34.2631C0.0182127 34.0822 0.06794 33.906 0.150457 33.7444L8.0863 17.8673L0.150457 1.99009C-0.0128349 1.66421 -0.03999 1.28681 0.0749663 0.940914C0.189923 0.595014 0.437574 0.308945 0.763444 0.145633Z" fill="#404040"/>
</svg>
