<svg width="57" height="54" viewBox="0 0 57 54" fill="none" xmlns="http://www.w3.org/2000/svg">
<path d="M16.2774 25.4445L16.2774 13.2222C16.2774 6.47209 21.7495 1.00002 28.4996 1.00002V1.00002C35.2498 1.00002 40.7218 6.4721 40.7218 13.2222L40.7218 25.4445" stroke="#404040" stroke-width="2" stroke-linecap="round"/>
<path d="M3.7499 19.9455C3.89498 18.2046 3.96752 17.3342 4.5416 16.8059C5.11569 16.2777 5.98915 16.2777 7.73609 16.2777H49.2639C51.0108 16.2777 51.8843 16.2777 52.4584 16.8059C53.0325 17.3342 53.105 18.2046 53.2501 19.9455L55.8195 50.7783C55.904 51.7918 55.9462 52.2986 55.6491 52.6215C55.352 52.9444 54.8435 52.9444 53.8264 52.9444H3.1736C2.15655 52.9444 1.64802 52.9444 1.35092 52.6215C1.05382 52.2986 1.09605 51.7918 1.18051 50.7783L3.7499 19.9455Z" stroke="#404040" stroke-width="2"/>
</svg>
