<svg width="14" height="15" viewBox="0 0 14 15" fill="none" xmlns="http://www.w3.org/2000/svg">
<path d="M13.9688 7.60498C13.9688 3.88623 10.9062 0.82373 7.1875 0.82373C3.44141 0.82373 0.40625 3.88623 0.40625 7.60498C0.40625 11.3511 3.44141 14.3862 7.1875 14.3862C10.9062 14.3862 13.9688 11.3511 13.9688 7.60498ZM6.39453 11.2144C6.23047 11.3784 5.92969 11.3784 5.76562 11.2144L2.92188 8.37061C2.75781 8.20654 2.75781 7.90576 2.92188 7.7417L3.55078 7.14014C3.71484 6.94873 3.98828 6.94873 4.15234 7.14014L6.09375 9.0542L10.1953 4.95264C10.3594 4.76123 10.6328 4.76123 10.7969 4.95264L11.4258 5.5542C11.5898 5.71826 11.5898 6.01904 11.4258 6.18311L6.39453 11.2144Z" fill="#FFD02E"/>
</svg>
