<svg width="20" height="20" viewBox="0 0 20 20" fill="none" xmlns="http://www.w3.org/2000/svg">
<path d="M1.92612 9.24848C1.92612 10.9476 3.11784 12.4195 4.79 12.8405C4.99802 12.8927 5.1359 13.0737 5.1359 13.272H5.1374V17.892C8.06126 16.8596 11.939 16.8596 14.8626 17.892V13.272C14.8626 13.0522 15.0269 12.8693 15.2436 12.8317C16.0621 12.6167 16.773 12.1456 17.2779 11.5129C17.777 10.8874 18.0739 10.1023 18.0739 9.24848C18.0739 7.34444 16.5891 5.7647 14.6596 5.55742C14.4664 6.41012 14.0211 7.1954 13.3888 7.81124C12.9613 8.22764 12.3049 7.59991 12.7339 7.18238C13.3167 6.61371 13.6927 5.88218 13.8069 5.08933C13.5425 3.25513 11.9162 1.89488 10.0003 1.89488C8.08406 1.89488 6.45774 3.25509 6.19342 5.08933C6.30756 5.88203 6.68367 6.61353 7.26649 7.18238C7.69511 7.59989 7.03904 8.2276 6.61158 7.81124C5.97893 7.1954 5.53384 6.41027 5.34046 5.55775C3.41093 5.76474 1.92634 7.34448 1.92634 9.24852L1.92612 9.24848ZM13.6626 13.2134C14.2534 13.3559 14.029 14.2226 13.4383 14.0799C11.2751 13.5575 8.72503 13.5575 6.56147 14.0799C5.97099 14.2226 5.74673 13.3561 6.33719 13.2134C8.65381 12.6539 11.3465 12.6534 13.6628 13.2134H13.6626ZM7.97024 5.14328C7.89632 5.7278 6.97706 5.6187 7.05118 5.03512C7.23294 3.6096 8.50005 2.52103 9.99996 2.52103C10.6095 2.52103 10.6095 3.41559 9.99996 3.41559C8.96127 3.41559 8.0967 4.15963 7.97024 5.14341V5.14328ZM13.6626 15.1844C14.2534 15.3268 14.029 16.1935 13.4383 16.0509C11.2751 15.5284 8.72503 15.5284 6.56147 16.0509C5.97099 16.1935 5.74673 15.327 6.33719 15.1844C8.65381 14.6248 11.3465 14.6243 13.6628 15.1844H13.6626ZM9.99996 1.00016C12.2692 1.00016 14.212 2.5483 14.6691 4.66266C17.1108 4.878 19 6.8616 19 9.24819C19 11.2251 17.6947 12.9648 15.7889 13.6016V18.5536H15.7874C15.7876 18.8692 15.4448 19.0929 15.1376 18.9606C12.2058 17.6989 7.83247 17.6967 4.89527 18.9464C4.54273 19.1139 4.2111 18.8629 4.2111 18.5534V13.6015C2.30698 12.9653 1 11.2268 1 9.24804C1 6.86131 2.88916 4.87775 5.33096 4.6625C5.78801 2.5481 7.73049 1 10 1L9.99996 1.00016Z" fill="#FFD02E" stroke="#FFD02E" stroke-width="0.2"/>
</svg>
