<svg width="39" height="40" viewBox="0 0 39 40" fill="none" xmlns="http://www.w3.org/2000/svg">
<circle cx="19.5" cy="20" r="19.5" fill="#FAA61A"/>
<path d="M27.9972 19.313C27.9972 19.313 22.6059 17.0775 21.4881 15.8283C20.6992 14.9079 20.5348 14.2175 18.7596 14.2504C17.6419 13.6258 17.0173 12.3108 16.8858 11.7191C16.5241 11.226 16.0639 14.2832 17.346 15.5982C17.1488 16.2228 16.5241 17.735 15.7352 18.1624C14.9462 18.5898 15.2749 19.313 14.6832 19.9376C13.9271 20.7266 12.2505 22.8963 11.3958 23.1593C10.9027 23.3236 10.4096 24.5071 10.3438 25.1646C10.2781 25.7892 10.7712 26.1179 11.2643 26.611C11.7574 27.1042 12.6779 26.874 13.2367 26.5782C13.7956 26.2823 14.9462 26.611 15.8338 27.1042C17.4446 28.0575 18.8253 27.6301 19.6472 27.4C21.0936 26.8412 22.2771 25.6906 22.8031 24.1126C23.0332 23.3894 23.1319 22.6662 23.0661 21.9758C23.2962 22.8305 23.2962 23.751 23.0004 24.6715C22.6059 25.8549 21.7511 26.7425 20.732 27.2685C21.3895 27.3014 22.0141 27.5973 22.6387 28.0246C24.2824 29.2081 29.4437 20.0362 27.9972 19.313ZM16.8529 12.508C17.1488 13.1655 17.7405 14.0203 18.5952 14.5134L18.661 14.5462H18.7596C20.0088 14.5462 20.3047 14.875 20.7978 15.4667C20.469 15.2366 19.9102 14.8092 18.3322 14.8092L17.6747 15.3023C16.6556 14.3819 16.82 13.0669 16.8529 12.508ZM11.4944 24.9345C11.4287 25.1646 11.1985 25.2961 11.0342 25.2303C10.8369 25.1646 10.8698 25.0002 10.9684 24.7701C11.0342 24.54 11.1328 24.3427 11.33 24.4085C11.4944 24.4742 11.593 24.7043 11.4944 24.9345ZM15.8009 19.0171C15.4393 19.1815 15.4722 19.4445 15.4064 19.7732C15.3407 20.1677 15.2749 20.4636 14.9133 20.7923C14.7161 20.9567 14.2887 21.3183 14.0257 21.6142C12.9737 22.8305 11.8889 23.4223 11.1328 23.8496C11.1328 23.6524 11.3629 23.4551 11.4615 23.4223C12.1519 23.1921 13.171 22.173 14.2887 20.8581C14.5188 20.5622 14.7489 20.3321 14.9133 20.1348C15.2421 19.8061 15.3407 19.4445 15.4393 19.1486C15.5379 18.8199 15.6037 18.5898 15.8995 18.4254C16.8529 17.8994 17.4775 16.2228 17.6419 15.7626C17.7076 15.8283 17.7405 15.8941 17.8062 15.927L17.9706 16.0585L17.9049 16.2557C17.7076 16.6173 16.9186 18.4583 15.8009 19.0171ZM18.1021 20.628C17.7076 20.7595 17.1488 20.5951 17.0173 20.5951C16.9186 20.5951 16.557 20.5951 16.557 20.4636C16.557 20.4636 17.1159 19.7075 18.0692 19.9047C18.5295 20.0033 18.8253 20.2006 18.8253 20.2006C18.8253 20.3978 18.4966 20.5622 18.1021 20.628ZM22.4415 20.1677C20.8635 20.7923 18.5295 20.2335 18.7596 16.7159C18.7596 16.7159 18.924 20.1348 21.3238 19.9705C23.2633 19.839 23.099 18.1953 21.784 17.1433C23.0003 17.998 23.8879 19.6089 22.4415 20.1677ZM21.784 16.5187C24.1509 18.1624 27.6685 19.5431 27.8657 19.6089C27.8657 19.6089 27.8986 19.6417 27.8986 19.6746C23.8551 18.9843 21.8169 16.5516 21.784 16.5187Z" fill="white"/>
</svg>
