<svg width="24" height="24" viewBox="0 0 24 24" fill="none" xmlns="http://www.w3.org/2000/svg">
<path fill-rule="evenodd" clip-rule="evenodd" d="M22 1.33333H2C1.82319 1.33333 1.65362 1.40357 1.5286 1.5286C1.40357 1.65362 1.33333 1.82319 1.33333 2V22C1.33333 22.1768 1.40357 22.3464 1.5286 22.4714C1.65362 22.5964 1.82319 22.6667 2 22.6667H22C22.1768 22.6667 22.3464 22.5964 22.4714 22.4714C22.5964 22.3464 22.6667 22.1768 22.6667 22V2C22.6667 1.82319 22.5964 1.65362 22.4714 1.5286C22.3464 1.40357 22.1768 1.33333 22 1.33333ZM2 0C1.46957 0 0.960859 0.210714 0.585787 0.585787C0.210714 0.960859 0 1.46957 0 2V22C0 22.5304 0.210714 23.0391 0.585787 23.4142C0.960859 23.7893 1.46957 24 2 24H22C22.5304 24 23.0391 23.7893 23.4142 23.4142C23.7893 23.0391 24 22.5304 24 22V2C24 1.46957 23.7893 0.960859 23.4142 0.585787C23.0391 0.210714 22.5304 0 22 0H2Z" fill="#404040"/>
<path d="M15.3333 6.66666H17.3333V17.3333H15.3333V6.66666Z" fill="#404040"/>
<path fill-rule="evenodd" clip-rule="evenodd" d="M16.6666 7.33333H16V16.6667H16.6666V7.33333ZM15.3333 6.66666V17.3333H17.3333V6.66666H15.3333Z" fill="#404040"/>
<path d="M18.6666 8.66666H20.6666V15.3333H18.6666V8.66666Z" fill="#404040"/>
<path fill-rule="evenodd" clip-rule="evenodd" d="M20 9.33333H19.3333V14.6667H20V9.33333ZM18.6666 8.66666V15.3333H20.6666V8.66666H18.6666Z" fill="#404040"/>
<path d="M8.66663 17.3333H6.66663V6.66666H8.66663V17.3333Z" fill="#404040"/>
<path fill-rule="evenodd" clip-rule="evenodd" d="M7.33329 16.6667H7.99996V7.33333H7.33329V16.6667ZM8.66663 17.3333V6.66666H6.66663V17.3333H8.66663Z" fill="#404040"/>
<path d="M5.33331 15.3333H3.33331V8.66666H5.33331V15.3333Z" fill="#404040"/>
<path fill-rule="evenodd" clip-rule="evenodd" d="M3.99998 14.6667H4.66665V9.33333H3.99998V14.6667ZM5.33331 15.3333V8.66666H3.33331V15.3333H5.33331ZM21.3333 12.6667H18.6666V11.3333H21.3333V12.6667Z" fill="#404040"/>
<path fill-rule="evenodd" clip-rule="evenodd" d="M5.00002 12.6667H2.66669V11.3333H5.00002V12.6667ZM14 12.6667H10V11.3333H14V12.6667Z" fill="#404040"/>
</svg>
