<svg width="39" height="40" viewBox="0 0 39 40" fill="none" xmlns="http://www.w3.org/2000/svg">
<g clip-path="url(#clip0_1197_1120)">
<circle cx="19.5" cy="20" r="19.5" fill="#FAA61A"/>
<path d="M19.5 9.48364C15.9301 9.48364 11.875 15.3064 11.875 21.8916C11.875 26.0853 15.2716 29.5166 19.5 29.5166C23.6938 29.5166 27.125 26.12 27.125 21.8916C27.125 15.0984 23.0352 9.48364 19.5 9.48364ZM13.8159 23.6592C13.8159 24.3524 13.9199 25.0456 14.1278 25.7041C13.3653 24.6297 12.9494 23.3473 12.9494 21.9263C12.9494 15.8956 16.6233 10.5581 19.5347 10.5581C21.2676 10.5581 23.5551 12.6376 24.9415 15.9302C23.5898 13.6774 21.8222 12.291 20.4011 12.291C17.4898 12.2564 13.8159 17.6285 13.8159 23.6592ZM19.5 28.5115C19.0841 28.5115 18.6682 28.4768 18.2869 28.4075C21.7875 27.5064 24.6642 25.0109 26.0506 21.7183C26.0506 21.7876 26.0506 21.8569 26.0506 21.9609C26.0852 25.5308 23.1392 28.5115 19.5 28.5115Z" fill="white"/>
</g>
<defs>
<clipPath id="clip0_1197_1120">
<rect width="39" height="39" fill="white" transform="translate(0 0.5)"/>
</clipPath>
</defs>
</svg>
