<svg width="39" height="40" viewBox="0 0 39 40" fill="none" xmlns="http://www.w3.org/2000/svg">
<circle cx="19.5" cy="20" r="19.5" fill="#FAA61A"/>
<path d="M21.5227 10.3169H17.506C17.2191 10.3169 16.9896 10.5464 16.9896 10.8333C16.9896 11.1202 17.2191 11.3498 17.506 11.3498H17.6781V13.4155V13.4442V13.4729V16.7436V16.7723V16.801V20.0143V20.043V20.0717V27.8181C17.6781 28.851 18.5102 29.683 19.543 29.683C20.5759 29.683 21.4079 28.851 21.4079 27.8181V11.3211H21.494C21.7809 11.3211 22.0104 11.0915 22.0104 10.8046C22.0104 10.5177 21.8383 10.3169 21.5227 10.3169ZM18.2806 27.8755V23.3998H19.17V28.0763C19.17 28.5067 19.2848 28.8797 19.4856 29.1379C18.8258 29.1092 18.2806 28.5641 18.2806 27.8755ZM20.8628 22.826H18.2519V20.2151H19.8873C19.9734 20.2151 20.0308 20.1577 20.0308 20.0717C20.0308 19.9856 19.9734 19.9282 19.8873 19.9282H18.2519V16.9157H19.8873C19.9734 16.9157 20.0308 16.8583 20.0308 16.7723C20.0308 16.6862 19.9734 16.6288 19.8873 16.6288H18.2519V13.6163H19.8873C19.9734 13.6163 20.0308 13.5589 20.0308 13.4729C20.0308 13.3868 19.9734 13.3294 19.8873 13.3294H18.2519V11.3784H20.8628V22.826Z" fill="white"/>
</svg>
