<svg width="40" height="39" viewBox="0 0 40 39" fill="none" xmlns="http://www.w3.org/2000/svg">
<circle cx="20" cy="19.1022" r="19" fill="#FAA61A"/>
<path d="M22.4411 10.1022H18.5059C18.2249 10.1022 18 10.327 18 10.6081C18 10.8892 18.2249 11.1141 18.5059 11.1141H18.6746V13.1379V13.166V13.1941V16.3985V16.4266V16.4547V19.6028V19.6309V19.659V27.2483C18.6746 28.2602 19.4897 29.0753 20.5016 29.0753C21.5136 29.0753 22.3287 28.2602 22.3287 27.2483V11.086H22.413C22.6941 11.086 22.919 10.8611 22.919 10.58C22.919 10.2989 22.7503 10.1022 22.4411 10.1022ZM19.2649 27.3045V22.9196H20.1362V27.5013C20.1362 27.9229 20.2487 28.2883 20.4454 28.5413C19.7989 28.5132 19.2649 27.9791 19.2649 27.3045ZM21.7946 22.3574H19.2368V19.7996H20.8389C20.9233 19.7996 20.9795 19.7434 20.9795 19.659C20.9795 19.5747 20.9233 19.5185 20.8389 19.5185H19.2368V16.5671H20.8389C20.9233 16.5671 20.9795 16.5109 20.9795 16.4266C20.9795 16.3422 20.9233 16.286 20.8389 16.286H19.2368V13.3346H20.8389C20.9233 13.3346 20.9795 13.2784 20.9795 13.1941C20.9795 13.1098 20.9233 13.0536 20.8389 13.0536H19.2368V11.1422H21.7946V22.3574Z" fill="white"/>
</svg>
