<svg width="39" height="40" viewBox="0 0 39 40" fill="none" xmlns="http://www.w3.org/2000/svg">
<g clip-path="url(#clip0_1197_1113)">
<circle cx="19.5" cy="20" r="19.5" fill="#FAA61A"/>
<path d="M27.125 29.8359C27.0982 29.8359 27.0982 29.8091 27.0714 29.8091C27.0982 29.7823 27.0982 29.7823 27.125 29.7555C26.3746 28.2815 25.7581 26.7002 25.2757 25.0921C25.7045 24.9581 26.0529 24.6633 26.2942 24.2881C26.589 23.8324 26.6426 23.2964 26.5354 22.7872C26.0261 22.9212 25.5705 23.216 25.2757 23.6716C25.1685 23.8592 25.0881 24.0736 25.0345 24.2881C24.9541 23.9932 24.8737 23.6716 24.8201 23.3768C25.4901 23.216 26.0797 22.814 26.4818 22.1975C26.8838 21.5811 26.991 20.8307 26.8302 20.107C26.1065 20.2678 25.4901 20.6699 25.0881 21.2863C24.8201 21.6883 24.6861 22.1439 24.6593 22.5996C24.5253 21.9563 24.4449 21.3399 24.3645 20.6699C25.0345 20.6163 25.6509 20.375 26.1333 19.8658C26.6158 19.3566 26.8302 18.6866 26.8302 17.9897C26.1333 18.0165 25.4901 18.2845 25.0077 18.7938C24.6325 19.1958 24.4181 19.6782 24.3377 20.1874C24.284 19.6514 24.2572 19.1422 24.2304 18.6062C24.8737 18.5258 25.4633 18.2577 25.8921 17.7485C26.321 17.2393 26.5086 16.5961 26.455 15.926C25.8117 15.9796 25.1953 16.2744 24.7665 16.7837C24.4717 17.1321 24.284 17.5609 24.2304 17.9897C24.2304 17.7753 24.2304 17.5609 24.2304 17.3197C24.2304 16.9713 24.2304 16.6229 24.2572 16.2744C24.8469 16.2208 25.3829 15.9796 25.7849 15.5508C26.187 15.0952 26.3478 14.5323 26.321 13.9427C25.7313 13.9695 25.1685 14.2107 24.7933 14.6663C24.5521 14.9612 24.3913 15.2828 24.3109 15.6312C24.3377 15.2292 24.3645 14.8004 24.4181 14.3983C24.9273 14.2911 25.4097 14.0231 25.7313 13.5943C26.0529 13.1387 26.1601 12.6026 26.0529 12.0666C25.5169 12.147 25.0613 12.4418 24.7397 12.8707C24.6861 12.9511 24.6325 13.0315 24.5789 13.1387C24.6057 12.8975 24.6593 12.6562 24.6861 12.415C25.1149 12.3346 25.5169 12.1202 25.8117 11.7718C26.1065 11.3966 26.2138 10.9142 26.1601 10.4585C25.6777 10.5121 25.2757 10.7533 24.9809 11.1286C24.9541 11.1554 24.9541 11.1822 24.9273 11.209C24.9273 11.075 24.9273 10.9142 24.9005 10.7533C24.8201 10.2709 24.5253 9.8957 24.15 9.62769C23.882 10.0297 23.7748 10.4853 23.8552 10.9678C23.9356 11.4234 24.2304 11.8254 24.6057 12.0934C24.5521 12.3346 24.4985 12.5758 24.4717 12.8171C24.4449 12.7098 24.4181 12.6026 24.3913 12.4954C24.2036 11.9862 23.8284 11.5842 23.346 11.343C23.1048 11.8254 23.078 12.3882 23.2388 12.8975C23.4264 13.4067 23.8016 13.8087 24.2572 14.0231C24.2304 14.2643 24.2036 14.5323 24.15 14.7736C24.1232 14.6127 24.0696 14.4251 23.9892 14.2643C23.748 13.7283 23.2924 13.3263 22.7296 13.1119C22.5152 13.6747 22.5152 14.2643 22.7832 14.8004C23.0244 15.3364 23.48 15.7384 24.0428 15.9528C24.0428 15.9528 24.0428 15.9528 24.0428 15.926C24.016 16.328 23.9892 16.7033 23.9892 17.1053C23.8284 16.9177 23.6944 16.6497 23.5336 16.3816C23.1584 15.8188 22.5956 15.4704 21.9523 15.3364C21.8183 15.9796 21.9255 16.6497 22.3007 17.1857C22.676 17.7485 23.2388 18.0701 23.882 18.2041C23.882 18.6866 23.9088 19.169 23.9356 19.6514C23.8284 19.1422 23.5604 18.6598 23.1584 18.2845C22.6492 17.8021 21.9523 17.5877 21.2823 17.6145C21.3091 18.3113 21.6039 18.9546 22.1131 19.437C22.6224 19.9194 23.2924 20.1338 23.9624 20.107C24.016 20.6163 24.0696 21.1523 24.1232 21.6615C23.9892 21.2595 23.748 20.8843 23.3996 20.5895C22.8368 20.0802 22.1399 19.8658 21.3895 19.8926C21.4431 20.6163 21.7379 21.3131 22.2739 21.8223C22.81 22.3048 23.5068 22.546 24.2304 22.5192C24.284 22.8676 24.3645 23.2428 24.4181 23.5912C24.3109 23.4304 24.1768 23.2696 24.0428 23.1356C23.5068 22.6532 22.8368 22.4388 22.1131 22.4656C22.1399 23.1624 22.4348 23.8324 22.9708 24.3149C23.48 24.7705 24.0964 24.9849 24.7665 24.9849C25.1953 26.5662 25.7313 28.0671 26.4282 29.5411C25.1417 28.9515 23.882 28.2279 22.7028 27.4238C22.944 27.0486 23.0512 26.593 22.9708 26.1374C22.8904 25.6013 22.6224 25.1457 22.1935 24.8241C21.8719 25.2529 21.7111 25.7621 21.7915 26.2982C21.8183 26.5126 21.8987 26.727 22.0059 26.9146C21.7647 26.727 21.4967 26.5394 21.2555 26.3518C21.6575 25.7889 21.8719 25.0921 21.7915 24.3953C21.7111 23.6448 21.3091 23.0284 20.7195 22.5728C20.2638 23.1624 20.0494 23.8592 20.1298 24.6097C20.1834 25.0921 20.371 25.5209 20.6391 25.8693C20.1298 25.4673 19.6474 25.0385 19.1918 24.5829C19.6742 24.1272 19.9958 23.5108 20.0226 22.8408C20.0762 22.1439 19.8082 21.4739 19.3526 20.9647C18.8434 21.4203 18.4949 22.0635 18.4681 22.7604C18.4413 23.2964 18.5754 23.8056 18.8434 24.2613C18.4681 23.886 18.0929 23.5108 17.7445 23.1088C18.2001 22.6532 18.4681 22.0635 18.4681 21.3935C18.4681 20.7235 18.2001 20.107 17.7445 19.6514C17.2889 20.107 16.9941 20.7235 16.9941 21.3935C16.9941 21.8491 17.1281 22.2779 17.3693 22.68C17.2353 22.5192 17.0745 22.3584 16.9405 22.1707C16.7261 21.9027 16.5116 21.6347 16.2972 21.3399C16.7261 20.9379 16.9941 20.4019 16.9941 19.8122C17.0209 19.2226 16.7797 18.6598 16.3776 18.2309C15.9488 18.633 15.6808 19.169 15.654 19.7854C15.654 20.1606 15.7344 20.5359 15.8952 20.8575C15.654 20.5359 15.4128 20.1874 15.1984 19.839C15.5468 19.437 15.7344 18.9278 15.6808 18.3917C15.6272 17.8557 15.3592 17.3733 14.9572 17.0249C14.6087 17.4269 14.4211 17.9629 14.4479 18.499C14.4479 18.6062 14.4747 18.6866 14.5015 18.7938C14.3675 18.5794 14.2603 18.3917 14.1263 18.1773C14.4211 17.8289 14.5819 17.4001 14.5551 16.9445C14.5283 16.462 14.3139 16.0332 13.9655 15.7116C13.6439 16.06 13.4563 16.5156 13.4831 16.9981C13.4831 17.0249 13.4831 17.0785 13.4831 17.1053C13.4027 16.9981 13.2955 16.8641 13.1883 16.7837C12.813 16.4888 12.3574 16.3548 11.875 16.3816C11.9286 16.8641 12.143 17.2929 12.4914 17.5877C12.8667 17.8825 13.3223 18.0165 13.7779 17.9897C13.8851 18.2041 14.0191 18.4185 14.1263 18.633C14.0459 18.5526 13.9655 18.499 13.8583 18.4453C13.4027 18.1773 12.8399 18.0969 12.3306 18.2309C12.4646 18.7402 12.7862 19.1958 13.2419 19.4906C13.6975 19.7586 14.2335 19.839 14.7428 19.705C14.8768 19.9194 15.0108 20.1338 15.1448 20.3482C15.0108 20.241 14.8768 20.1338 14.7159 20.0534C14.1799 19.7854 13.5635 19.7854 13.0275 19.973C13.2151 20.5359 13.6171 20.9915 14.1531 21.2595C14.6891 21.5275 15.3056 21.5275 15.8416 21.3399C15.8416 21.3399 15.8416 21.3399 15.8416 21.3131C16.0828 21.6347 16.2972 21.9563 16.5384 22.2511C16.2972 22.0635 16.0292 21.9295 15.7344 21.8491C15.0912 21.6615 14.4211 21.7687 13.8583 22.0635C14.1799 22.6264 14.6891 23.082 15.3324 23.2696C15.9756 23.4572 16.6188 23.35 17.2085 23.0552C17.5301 23.4304 17.8517 23.7788 18.1733 24.1272C17.7445 23.8056 17.2621 23.5912 16.6993 23.5644C16.0024 23.5376 15.3324 23.8056 14.8232 24.2613C15.3056 24.7705 15.922 25.0921 16.6188 25.1189C17.3157 25.1457 17.9589 24.9045 18.4681 24.4489C18.8434 24.8241 19.2186 25.1725 19.5938 25.5209C19.2186 25.3065 18.7898 25.1725 18.3341 25.1457C17.5837 25.1189 16.8869 25.4137 16.3508 25.8961C16.8601 26.4322 17.5301 26.7806 18.2537 26.8074C18.9774 26.8342 19.6742 26.5662 20.2102 26.0837C20.4783 26.325 20.7731 26.5394 21.0411 26.7806C20.8535 26.727 20.6659 26.7002 20.4514 26.6734C19.7278 26.6466 19.0578 26.9146 18.5486 27.3702C19.031 27.8794 19.6742 28.2279 20.371 28.2547C21.0411 28.2815 21.6843 28.0402 22.1935 27.6382C23.7212 28.7103 25.3025 29.6215 26.991 30.372C27.0714 30.1844 27.0982 30.0236 27.125 29.8359ZM25.5169 23.8056C25.7045 23.5108 25.9725 23.2696 26.321 23.1356C26.321 23.3232 26.321 23.5108 26.2674 23.6984C26.2674 23.618 26.2674 23.5644 26.2674 23.484C25.9189 23.618 25.6509 23.8592 25.4633 24.154C25.3829 24.2881 25.3025 24.4489 25.2757 24.6097C25.2757 24.3149 25.3561 24.0468 25.5169 23.8056ZM25.3025 21.4471C25.5973 20.9915 26.0529 20.6431 26.6158 20.4555C26.6426 20.7503 26.6426 21.0451 26.5622 21.3131C26.589 21.1523 26.589 20.9915 26.5622 20.8039C25.9993 20.9915 25.5437 21.3399 25.2489 21.7955C25.1149 22.0367 25.0077 22.2779 24.9273 22.546C24.9541 22.1439 25.0881 21.7687 25.3025 21.4471ZM25.1685 19.0082C25.5169 18.633 25.9993 18.3917 26.5354 18.3113C26.5354 18.4453 26.5086 18.5526 26.4818 18.6598C25.9457 18.7402 25.4633 18.9814 25.1149 19.3566C24.8469 19.6514 24.6593 19.9998 24.5521 20.4019C24.6057 19.8658 24.8201 19.3834 25.1685 19.0082ZM24.9005 16.9981C25.1953 16.6229 25.6241 16.3816 26.1333 16.2744C26.1333 16.4352 26.1065 16.5693 26.0797 16.7301C26.0797 16.7033 26.0797 16.6765 26.0797 16.6497C25.5973 16.7569 25.1685 16.9981 24.8469 17.3733C24.6325 17.6145 24.4985 17.9361 24.4181 18.2577C24.4449 17.7753 24.6057 17.3465 24.9005 16.9981ZM24.9005 14.9076C25.1685 14.5859 25.5437 14.3983 25.9725 14.3179C25.9725 14.4519 25.9457 14.5591 25.9189 14.6663C25.4901 14.7468 25.1417 14.9612 24.8737 15.256C24.6861 15.4704 24.5521 15.7384 24.4717 16.0332C24.4717 15.6044 24.6325 15.2024 24.9005 14.9076ZM24.8469 13.1119C25.0613 12.8171 25.3561 12.6026 25.7045 12.4686C25.7045 12.6294 25.6777 12.7903 25.6509 12.9511C25.6509 12.8975 25.6509 12.8707 25.6509 12.8171C25.3025 12.9243 25.0077 13.1655 24.7933 13.4603C24.6861 13.6211 24.6057 13.8087 24.5521 13.9963C24.5521 13.6747 24.6593 13.3799 24.8469 13.1119ZM23.4264 12.2274C23.3728 12.4418 23.346 12.683 23.3728 12.8975C23.2656 12.549 23.2388 12.1738 23.346 11.8254C23.6408 12.0398 23.882 12.3346 23.9892 12.683C24.0428 12.8171 24.0696 12.9511 24.0696 13.0851C23.9624 12.7098 23.748 12.415 23.4264 12.2274ZM23.7212 14.8808C23.5604 14.5055 23.2656 14.2107 22.8904 13.9963C22.8368 14.2107 22.8368 14.3983 22.8636 14.6127C22.7564 14.2911 22.7296 13.9427 22.81 13.5943C23.1852 13.8087 23.48 14.1035 23.6408 14.4787C23.7212 14.6664 23.7748 14.8808 23.8016 15.0952C23.7748 15.0148 23.748 14.9344 23.7212 14.8808ZM23.6676 19.8658C23.5336 19.5174 23.346 19.1958 23.0512 18.9278C22.676 18.5794 22.1935 18.3917 21.6575 18.3381C21.6039 18.2041 21.5771 18.0701 21.5503 17.9361C22.0863 17.9629 22.5688 18.1773 22.9708 18.5258C23.346 18.8742 23.614 19.3298 23.6676 19.8658C23.6944 19.8658 23.6676 19.8658 23.6676 19.8658ZM23.9892 22.2511C23.8552 21.8491 23.614 21.5007 23.3192 21.2059C22.9172 20.8307 22.3812 20.6163 21.8183 20.5895C21.7647 20.4555 21.7379 20.3214 21.7111 20.1874C22.3007 20.2142 22.81 20.4287 23.2388 20.8039C23.6408 21.1791 23.9088 21.6883 23.9892 22.2511ZM24.6057 24.7169C24.4717 24.3417 24.2572 24.02 23.9892 23.752C23.5872 23.4036 23.1048 23.1892 22.5688 23.1624C22.5152 23.0284 22.4884 22.8944 22.4616 22.7604C23.0244 22.7872 23.5068 23.0016 23.9088 23.35C24.2841 23.6984 24.5253 24.1808 24.6057 24.7169ZM25.0881 11.3698C25.2757 11.1286 25.5169 10.9678 25.8117 10.8606C25.8117 10.9946 25.7849 11.1018 25.7581 11.209C25.4633 11.3162 25.2221 11.477 25.0345 11.7182C24.9273 11.8522 24.8469 12.013 24.7933 12.2006C24.7933 11.879 24.9005 11.5842 25.0881 11.3698ZM24.1768 10.5121C24.0696 10.7265 24.0428 10.9678 24.0428 11.209C24.016 11.1286 23.9892 11.0482 23.9624 10.9678C23.9088 10.6729 23.9356 10.3781 24.0696 10.0833C24.284 10.2977 24.4449 10.5657 24.4985 10.8606C24.4985 10.9142 24.5253 10.9678 24.5253 11.0482C24.4717 10.8605 24.3377 10.6729 24.1768 10.5121ZM23.3996 16.9445C23.1316 16.5424 22.7296 16.2476 22.2471 16.0868C22.2471 16.2208 22.2471 16.3548 22.2471 16.4888C22.1667 16.2208 22.1399 15.9528 22.1399 15.6848C22.6224 15.8456 23.0244 16.1404 23.2924 16.5424C23.48 16.8373 23.614 17.1589 23.6408 17.5073C23.5872 17.3197 23.5068 17.1321 23.3996 16.9445ZM22.2471 25.2529C22.4884 25.5209 22.6492 25.8425 22.7028 26.191C22.7296 26.325 22.7296 26.4858 22.7028 26.6198C22.6492 26.325 22.4884 26.0301 22.2739 25.7889C22.1667 25.9765 22.1131 26.191 22.0863 26.3786C22.0863 26.3518 22.0595 26.2982 22.0595 26.2714C22.0327 25.9229 22.0863 25.5745 22.2471 25.2529ZM20.3978 24.5829C20.3174 24.02 20.4514 23.484 20.7731 22.9748C21.2019 23.3768 21.4431 23.886 21.5235 24.4489C21.5503 24.6097 21.5503 24.7705 21.5235 24.9045C21.4431 24.3685 21.2019 23.886 20.7999 23.5108C20.5855 23.8592 20.4514 24.2613 20.4246 24.6365C20.3978 24.6365 20.3978 24.6097 20.3978 24.5829ZM18.7362 22.7872C18.763 22.2779 18.9774 21.7955 19.3526 21.3935C19.6474 21.8223 19.8082 22.3584 19.7814 22.8676C19.7814 22.8944 19.7814 22.8944 19.7814 22.9212C19.7278 22.5728 19.5938 22.2243 19.3794 21.9295C19.031 22.3047 18.8166 22.7872 18.7898 23.2964C18.7362 23.1088 18.7094 22.948 18.7362 22.7872ZM17.2621 21.4203C17.2621 20.9379 17.4229 20.4823 17.7445 20.0802C18.0393 20.4823 18.2269 20.9379 18.2001 21.4203C18.2001 21.4739 18.2001 21.5275 18.2001 21.6079C18.1465 21.2595 17.9857 20.9111 17.7713 20.6163C17.5033 20.9647 17.3425 21.3667 17.2889 21.7687C17.2621 21.6615 17.2621 21.5275 17.2621 21.4203ZM16.3508 18.6598C16.592 19.0082 16.7261 19.4102 16.6993 19.839C16.6993 19.8926 16.6993 19.9194 16.6725 19.973C16.6188 19.705 16.5116 19.437 16.3508 19.1958C16.1096 19.4906 15.9756 19.839 15.922 20.2142C15.8952 20.0802 15.8952 19.9462 15.8952 19.8122C15.922 19.3834 16.0828 19.0082 16.3508 18.6598ZM14.984 17.4269C15.2252 17.7217 15.3592 18.0433 15.4128 18.4185C15.4128 18.5258 15.4128 18.633 15.4128 18.7402C15.3592 18.4453 15.2252 18.1773 15.0376 17.9629C14.9036 18.1773 14.8232 18.4185 14.7964 18.6598C14.7964 18.6062 14.7696 18.5258 14.7696 18.4721C14.6891 18.1237 14.7964 17.7485 14.984 17.4269ZM14.4479 19.4638C14.3139 19.2226 14.0995 19.0082 13.8583 18.8742C13.5903 18.7134 13.2955 18.633 12.9739 18.633C12.9203 18.633 12.8667 18.633 12.8399 18.633C12.7862 18.5526 12.7594 18.499 12.7326 18.4185C12.7862 18.4185 12.8399 18.4185 12.8935 18.4185C13.2151 18.4185 13.5099 18.499 13.7779 18.6598C14.0995 18.8206 14.3407 19.1154 14.4479 19.4638C14.4747 19.4638 14.4479 19.4638 14.4479 19.4638ZM15.4932 21.1523C15.3056 20.8843 15.0644 20.6431 14.7696 20.5091C14.5283 20.375 14.2335 20.3214 13.9655 20.3214C13.8583 20.3214 13.7243 20.3214 13.6171 20.3482C13.5635 20.2678 13.5099 20.2142 13.4831 20.1338C13.6171 20.107 13.7511 20.0802 13.8851 20.0802C14.1799 20.0802 14.4479 20.1338 14.6891 20.2678C15.0644 20.4555 15.3592 20.7503 15.5468 21.1255C15.52 21.1255 15.4932 21.1255 15.4932 21.1523ZM18.0393 24.4757C17.6641 24.2076 17.2621 24.0736 16.8333 24.0468C16.8065 24.0468 16.7529 24.0468 16.7261 24.0468C16.2704 24.0468 15.8684 24.1808 15.4932 24.4221C15.4128 24.3685 15.3592 24.3149 15.2788 24.2613C15.6808 23.9664 16.1632 23.8056 16.6456 23.8056C16.6725 23.8056 16.7261 23.8056 16.7529 23.8056C17.2621 23.8324 17.7713 24.0468 18.1733 24.3953C18.1197 24.4221 18.0929 24.4489 18.0393 24.4757ZM14.0191 16.1136C14.2067 16.3548 14.3139 16.6497 14.3139 16.9445C14.3139 17.0249 14.3139 17.1321 14.2871 17.2125C14.2335 16.9981 14.1531 16.8105 14.0191 16.6497C13.9119 16.8373 13.8315 17.0249 13.8047 17.2393C13.7779 17.1589 13.7779 17.0785 13.7779 16.9713C13.7779 16.6765 13.8583 16.3816 14.0191 16.1136ZM13.1347 17.1857C12.8935 16.9981 12.6254 16.8909 12.3038 16.8641C12.3038 16.8909 12.3038 16.8909 12.3306 16.8909C12.277 16.8105 12.2502 16.7301 12.2234 16.6229C12.5182 16.6497 12.813 16.7569 13.0543 16.9445C13.2687 17.1321 13.4295 17.3733 13.5099 17.6413C13.4295 17.4805 13.2955 17.3197 13.1347 17.1857ZM16.8065 22.948C16.5384 22.6532 16.19 22.412 15.8148 22.3047C15.6272 22.2511 15.4128 22.2243 15.2252 22.2243C14.984 22.2243 14.7159 22.2779 14.4747 22.3584C14.4211 22.3048 14.3675 22.2243 14.3139 22.1707C14.5819 22.0635 14.8768 22.0099 15.1448 22.0099C15.3324 22.0099 15.5468 22.0367 15.7344 22.0903C16.19 22.2243 16.592 22.5192 16.8869 22.9212C16.8601 22.9212 16.8333 22.9212 16.8065 22.948ZM19.8082 26.1105C19.4062 25.8157 18.9506 25.6549 18.4681 25.6549C18.4413 25.6549 18.4145 25.6549 18.3609 25.6549C17.8785 25.6549 17.3961 25.8157 16.9941 26.0837C16.9405 26.0301 16.8601 25.9765 16.8065 25.9229C17.2353 25.6013 17.7713 25.4137 18.2805 25.4137C18.3073 25.4137 18.3341 25.4137 18.3877 25.4137C18.9506 25.4405 19.4866 25.6549 19.9154 26.0301C19.8886 26.0569 19.8618 26.0837 19.8082 26.1105ZM21.8719 27.6114C21.4967 27.3434 21.0679 27.1826 20.6391 27.1826C20.6123 27.1826 20.5587 27.1826 20.5319 27.1826C20.0762 27.1826 19.6474 27.3166 19.2454 27.5846C19.165 27.531 19.1114 27.4774 19.0578 27.4238C19.4866 27.129 19.9422 26.9682 20.4514 26.9682C20.4783 26.9682 20.5319 26.9682 20.5587 26.9682C21.0947 26.995 21.5771 27.2094 22.0059 27.5578C21.9523 27.5578 21.8987 27.5846 21.8719 27.6114Z" fill="white"/>
</g>
<defs>
<clipPath id="clip0_1197_1113">
<rect width="39" height="39" fill="white" transform="translate(0 0.5)"/>
</clipPath>
</defs>
</svg>
