<svg width="40" height="39" viewBox="0 0 40 39" fill="none" xmlns="http://www.w3.org/2000/svg">
<g clip-path="url(#clip0_2010_64)">
<circle cx="20" cy="19.3282" r="19" fill="#FAA61A"/>
<path d="M27.9406 29.1265C27.9143 29.1265 27.9143 29.1002 27.8881 29.1002C27.9143 29.074 27.9143 29.074 27.9406 29.0477C27.2054 27.6035 26.6014 26.0543 26.1288 24.4789C26.5489 24.3476 26.8903 24.0588 27.1266 23.6912C27.4154 23.2448 27.4679 22.7196 27.3629 22.2207C26.864 22.352 26.4176 22.6409 26.1288 23.0872C26.0238 23.271 25.945 23.4811 25.8925 23.6912C25.8137 23.4023 25.7349 23.0872 25.6824 22.7984C26.3389 22.6409 26.9165 22.247 27.3104 21.6431C27.7043 21.0391 27.8093 20.3039 27.6517 19.595C26.9428 19.7525 26.3389 20.1464 25.945 20.7503C25.6824 21.1442 25.5511 21.5905 25.5249 22.0369C25.3936 21.4067 25.3148 20.8028 25.236 20.1464C25.8925 20.0939 26.4964 19.8575 26.969 19.3587C27.4417 18.8598 27.6517 18.2033 27.6517 17.5206C26.969 17.5469 26.3389 17.8095 25.8662 18.3083C25.4986 18.7022 25.2886 19.1748 25.2098 19.6737C25.1573 19.1486 25.131 18.6497 25.1048 18.1245C25.7349 18.0458 26.3126 17.7832 26.7327 17.2843C27.1529 16.7854 27.3367 16.1552 27.2841 15.4988C26.654 15.5513 26.05 15.8401 25.6299 16.339C25.3411 16.6804 25.1573 17.1005 25.1048 17.5206C25.1048 17.3106 25.1048 17.1005 25.1048 16.8642C25.1048 16.5228 25.1048 16.1815 25.131 15.8401C25.7087 15.7876 26.2338 15.5513 26.6277 15.1312C27.0216 14.6848 27.1791 14.1334 27.1529 13.5557C26.5752 13.582 26.0238 13.8183 25.6562 14.2647C25.4198 14.5535 25.2623 14.8686 25.1835 15.21C25.2098 14.8161 25.236 14.396 25.2886 14.0021C25.7875 13.8971 26.2601 13.6345 26.5752 13.2144C26.8903 12.768 26.9953 12.2428 26.8903 11.7177C26.3651 11.7965 25.9187 12.0853 25.6037 12.5054C25.5511 12.5842 25.4986 12.663 25.4461 12.768C25.4724 12.5317 25.5249 12.2954 25.5511 12.059C25.9713 11.9803 26.3651 11.7702 26.654 11.4289C26.9428 11.0612 27.0478 10.5886 26.9953 10.1422C26.5227 10.1947 26.1288 10.4311 25.84 10.7987C25.8137 10.8249 25.8137 10.8512 25.7875 10.8774C25.7875 10.7462 25.7875 10.5886 25.7612 10.4311C25.6824 9.95843 25.3936 9.59082 25.026 9.32825C24.7634 9.72211 24.6584 10.1685 24.7371 10.6411C24.8159 11.0875 25.1048 11.4814 25.4724 11.7439C25.4198 11.9803 25.3673 12.2166 25.3411 12.4529C25.3148 12.3479 25.2886 12.2428 25.2623 12.1378C25.0785 11.6389 24.7109 11.2451 24.2383 11.0087C24.0019 11.4814 23.9757 12.0328 24.1332 12.5317C24.317 13.0306 24.6846 13.4244 25.131 13.6345C25.1048 13.8708 25.0785 14.1334 25.026 14.3697C24.9997 14.2122 24.9472 14.0284 24.8684 13.8708C24.6321 13.3457 24.1857 12.9518 23.6343 12.7417C23.4243 13.2931 23.4243 13.8708 23.6868 14.396C23.9232 14.9211 24.3695 15.315 24.921 15.525C24.921 15.525 24.921 15.525 24.921 15.4988C24.8947 15.8927 24.8684 16.2603 24.8684 16.6541C24.7109 16.4703 24.5796 16.2077 24.4221 15.9452C24.0545 15.3938 23.503 15.0524 22.8729 14.9211C22.7416 15.5513 22.8466 16.2077 23.2142 16.7329C23.5818 17.2843 24.1332 17.5994 24.7634 17.7307C24.7634 18.2033 24.7897 18.676 24.8159 19.1486C24.7109 18.6497 24.4483 18.1771 24.0545 17.8095C23.5556 17.3368 22.8729 17.1268 22.2164 17.153C22.2427 17.8357 22.5315 18.4659 23.0304 18.9385C23.5293 19.4112 24.1857 19.6212 24.8422 19.595C24.8947 20.0939 24.9472 20.619 24.9997 21.1179C24.8684 20.724 24.6321 20.3564 24.2908 20.0676C23.7394 19.5687 23.0567 19.3587 22.3215 19.3849C22.374 20.0939 22.6628 20.7766 23.188 21.2755C23.7131 21.7481 24.3958 21.9844 25.1048 21.9582C25.1573 22.2995 25.236 22.6671 25.2886 23.0085C25.1835 22.8509 25.0522 22.6934 24.921 22.5621C24.3958 22.0894 23.7394 21.8794 23.0304 21.9056C23.0567 22.5883 23.3455 23.2448 23.8707 23.7174C24.3695 24.1638 24.9735 24.3739 25.6299 24.3739C26.05 25.9231 26.5752 27.3935 27.2579 28.8377C25.9975 28.26 24.7634 27.551 23.6081 26.7633C23.8444 26.3957 23.9494 25.9493 23.8707 25.5029C23.7919 24.9778 23.5293 24.5314 23.1092 24.2163C22.7941 24.6364 22.6365 25.1353 22.7153 25.6605C22.7416 25.8705 22.8203 26.0806 22.9254 26.2644C22.6891 26.0806 22.4265 25.8968 22.1902 25.713C22.584 25.1616 22.7941 24.4789 22.7153 23.7962C22.6365 23.061 22.2427 22.4571 21.665 22.0107C21.2186 22.5883 21.0086 23.271 21.0873 24.0062C21.1399 24.4789 21.3237 24.899 21.5862 25.2404C21.0873 24.8465 20.6147 24.4264 20.1683 23.98C20.641 23.5336 20.9561 22.9297 20.9823 22.2732C21.0348 21.5905 20.7723 20.9341 20.3259 20.4352C19.827 20.8816 19.4856 21.5118 19.4594 22.1945C19.4331 22.7196 19.5644 23.2185 19.827 23.6649C19.4594 23.2973 19.0918 22.9297 18.7504 22.5358C19.1968 22.0894 19.4594 21.5118 19.4594 20.8553C19.4594 20.1989 19.1968 19.595 18.7504 19.1486C18.304 19.595 18.0152 20.1989 18.0152 20.8553C18.0152 21.3017 18.1465 21.7218 18.3828 22.1157C18.2515 21.9582 18.094 21.8006 17.9627 21.6168C17.7526 21.3542 17.5426 21.0917 17.3325 20.8028C17.7526 20.409 18.0152 19.8838 18.0152 19.3061C18.0415 18.7285 17.8051 18.1771 17.4113 17.7569C16.9912 18.1508 16.7286 18.676 16.7023 19.2799C16.7023 19.6475 16.7811 20.0151 16.9386 20.3302C16.7023 20.0151 16.466 19.6737 16.2559 19.3324C16.5973 18.9385 16.7811 18.4396 16.7286 17.9145C16.6761 17.3893 16.4135 16.9167 16.0196 16.5753C15.6783 16.9692 15.4945 17.4944 15.5207 18.0195C15.5207 18.1245 15.547 18.2033 15.5732 18.3083C15.442 18.0983 15.3369 17.9145 15.2056 17.7044C15.4945 17.3631 15.652 16.943 15.6258 16.4966C15.5995 16.0239 15.3894 15.6038 15.0481 15.2887C14.733 15.6301 14.5492 16.0765 14.5755 16.5491C14.5755 16.5753 14.5755 16.6279 14.5755 16.6541C14.4967 16.5491 14.3917 16.4178 14.2866 16.339C13.919 16.0502 13.4726 15.9189 13 15.9452C13.0525 16.4178 13.2626 16.8379 13.6039 17.1268C13.9715 17.4156 14.4179 17.5469 14.8643 17.5206C14.9693 17.7307 15.1006 17.9407 15.2056 18.1508C15.1269 18.072 15.0481 18.0195 14.9431 17.967C14.4967 17.7044 13.9453 17.6257 13.4464 17.7569C13.5777 18.2558 13.8928 18.7022 14.3391 18.991C14.7855 19.2536 15.3107 19.3324 15.8096 19.2011C15.9409 19.4112 16.0721 19.6212 16.2034 19.8313C16.0721 19.7263 15.9409 19.6212 15.7833 19.5425C15.2582 19.2799 14.6542 19.2799 14.1291 19.4637C14.3129 20.0151 14.7067 20.4615 15.2319 20.724C15.757 20.9866 16.361 20.9866 16.8861 20.8028C16.8861 20.8028 16.8861 20.8028 16.8861 20.7766C17.1224 21.0917 17.3325 21.4067 17.5688 21.6956C17.3325 21.5118 17.0699 21.3805 16.7811 21.3017C16.1509 21.1179 15.4945 21.2229 14.9431 21.5118C15.2582 22.0632 15.757 22.5096 16.3872 22.6934C17.0174 22.8772 17.6476 22.7721 18.2253 22.4833C18.5404 22.8509 18.8554 23.1923 19.1705 23.5336C18.7504 23.2185 18.2778 23.0085 17.7264 22.9822C17.0437 22.9559 16.3872 23.2185 15.8883 23.6649C16.361 24.1638 16.9649 24.4789 17.6476 24.5051C18.3303 24.5314 18.9605 24.2951 19.4594 23.8487C19.827 24.2163 20.1946 24.5577 20.5622 24.899C20.1946 24.6889 19.7745 24.5577 19.3281 24.5314C18.5929 24.5051 17.9102 24.794 17.385 25.2666C17.8839 25.7918 18.5404 26.1331 19.2493 26.1594C19.9583 26.1856 20.641 25.9231 21.1661 25.4504C21.4287 25.6867 21.7175 25.8968 21.9801 26.1331C21.7963 26.0806 21.6125 26.0543 21.4024 26.0281C20.6935 26.0018 20.037 26.2644 19.5381 26.7108C20.0108 27.2097 20.641 27.551 21.3237 27.5773C21.9801 27.6035 22.6103 27.3672 23.1092 26.9734C24.6059 28.0237 26.1551 28.9164 27.8093 29.6516C27.8881 29.4678 27.9143 29.3103 27.9406 29.1265ZM26.3651 23.2185C26.5489 22.9297 26.8115 22.6934 27.1529 22.5621C27.1529 22.7459 27.1528 22.9297 27.1003 23.1135C27.1003 23.0347 27.1003 22.9822 27.1003 22.9034C26.759 23.0347 26.4964 23.271 26.3126 23.5599C26.2338 23.6912 26.1551 23.8487 26.1288 24.0062C26.1288 23.7174 26.2076 23.4548 26.3651 23.2185ZM26.1551 20.9079C26.4439 20.4615 26.8903 20.1201 27.4417 19.9363C27.4679 20.2252 27.4679 20.514 27.3892 20.7766C27.4154 20.619 27.4154 20.4615 27.3892 20.2777C26.8378 20.4615 26.3914 20.8028 26.1025 21.2492C25.9713 21.4855 25.8662 21.7218 25.7875 21.9844C25.8137 21.5905 25.945 21.2229 26.1551 20.9079ZM26.0238 18.5184C26.3651 18.1508 26.8378 17.9145 27.3629 17.8357C27.3629 17.967 27.3367 18.072 27.3104 18.1771C26.7852 18.2558 26.3126 18.4922 25.9713 18.8598C25.7087 19.1486 25.5249 19.4899 25.4198 19.8838C25.4724 19.3587 25.6824 18.886 26.0238 18.5184ZM25.7612 16.5491C26.05 16.1815 26.4702 15.9452 26.969 15.8401C26.969 15.9977 26.9428 16.129 26.9165 16.2865C26.9165 16.2603 26.9165 16.234 26.9165 16.2077C26.4439 16.3128 26.0238 16.5491 25.7087 16.9167C25.4986 17.153 25.3673 17.4681 25.2886 17.7832C25.3148 17.3106 25.4724 16.8904 25.7612 16.5491ZM25.7612 14.501C26.0238 14.1859 26.3914 14.0021 26.8115 13.9233C26.8115 14.0546 26.7852 14.1596 26.759 14.2647C26.3389 14.3435 25.9975 14.5535 25.7349 14.8423C25.5511 15.0524 25.4198 15.315 25.3411 15.6038C25.3411 15.1837 25.4986 14.7898 25.7612 14.501ZM25.7087 12.7417C25.9187 12.4529 26.2076 12.2428 26.5489 12.1116C26.5489 12.2691 26.5227 12.4266 26.4964 12.5842C26.4964 12.5317 26.4964 12.5054 26.4964 12.4529C26.1551 12.5579 25.8662 12.7943 25.6562 13.0831C25.5511 13.2406 25.4724 13.4244 25.4198 13.6082C25.4198 13.2931 25.5249 13.0043 25.7087 12.7417ZM24.317 11.8752C24.2645 12.0853 24.2383 12.3216 24.2645 12.5317C24.1595 12.1903 24.1332 11.8227 24.2383 11.4814C24.5271 11.6914 24.7634 11.9803 24.8684 12.3216C24.921 12.4529 24.9472 12.5842 24.9472 12.7155C24.8422 12.3479 24.6321 12.059 24.317 11.8752ZM24.6059 14.4747C24.4483 14.1071 24.1595 13.8183 23.7919 13.6082C23.7394 13.8183 23.7394 14.0021 23.7656 14.2122C23.6606 13.8971 23.6343 13.5557 23.7131 13.2144C24.0807 13.4244 24.3695 13.7133 24.5271 14.0809C24.6059 14.2647 24.6584 14.4747 24.6846 14.6848C24.6584 14.606 24.6321 14.5273 24.6059 14.4747ZM24.5533 19.3587C24.4221 19.0173 24.2383 18.7022 23.9494 18.4396C23.5818 18.0983 23.1092 17.9145 22.584 17.862C22.5315 17.7307 22.5053 17.5994 22.479 17.4681C23.0041 17.4944 23.4768 17.7044 23.8707 18.0458C24.2383 18.3871 24.5008 18.8335 24.5533 19.3587C24.5796 19.3587 24.5533 19.3587 24.5533 19.3587ZM24.8684 21.6956C24.7371 21.3017 24.5008 20.9604 24.212 20.6715C23.8181 20.3039 23.293 20.0939 22.7416 20.0676C22.6891 19.9363 22.6628 19.805 22.6365 19.6737C23.2142 19.7 23.7131 19.9101 24.1332 20.2777C24.5271 20.6453 24.7897 21.1442 24.8684 21.6956ZM25.4724 24.1113C25.3411 23.7437 25.131 23.4286 24.8684 23.166C24.4746 22.8247 24.0019 22.6146 23.4768 22.5883C23.4243 22.4571 23.398 22.3258 23.3718 22.1945C23.9232 22.2207 24.3958 22.4308 24.7897 22.7721C25.1573 23.1135 25.3936 23.5861 25.4724 24.1113ZM25.945 11.035C26.1288 10.7987 26.3651 10.6411 26.654 10.5361C26.654 10.6674 26.6277 10.7724 26.6014 10.8774C26.3126 10.9825 26.0763 11.14 25.8925 11.3763C25.7875 11.5076 25.7087 11.6652 25.6562 11.849C25.6562 11.5339 25.7612 11.2451 25.945 11.035ZM25.0522 10.1947C24.9472 10.4048 24.921 10.6411 24.921 10.8774C24.8947 10.7987 24.8684 10.7199 24.8422 10.6411C24.7897 10.3523 24.8159 10.0635 24.9472 9.77463C25.1573 9.98469 25.3148 10.2473 25.3673 10.5361C25.3673 10.5886 25.3936 10.6411 25.3936 10.7199C25.3411 10.5361 25.2098 10.3523 25.0522 10.1947ZM24.2908 16.4966C24.0282 16.1027 23.6343 15.8139 23.1617 15.6563C23.1617 15.7876 23.1617 15.9189 23.1617 16.0502C23.0829 15.7876 23.0567 15.525 23.0567 15.2625C23.5293 15.42 23.9232 15.7088 24.1857 16.1027C24.3695 16.3915 24.5008 16.7066 24.5271 17.048C24.4746 16.8642 24.3958 16.6804 24.2908 16.4966ZM23.1617 24.6364C23.398 24.899 23.5556 25.2141 23.6081 25.5554C23.6343 25.6867 23.6343 25.8443 23.6081 25.9756C23.5556 25.6867 23.398 25.3979 23.188 25.1616C23.0829 25.3454 23.0304 25.5554 23.0041 25.7393C23.0041 25.713 22.9779 25.6605 22.9779 25.6342C22.9516 25.2929 23.0041 24.9515 23.1617 24.6364ZM21.3499 23.98C21.2711 23.4286 21.4024 22.9034 21.7175 22.4045C22.1376 22.7984 22.374 23.2973 22.4527 23.8487C22.479 24.0062 22.479 24.1638 22.4527 24.2951C22.374 23.7699 22.1376 23.2973 21.7438 22.9297C21.5337 23.271 21.4024 23.6649 21.3762 24.0325C21.3499 24.0325 21.3499 24.0062 21.3499 23.98ZM19.7219 22.2207C19.7482 21.7218 19.9583 21.2492 20.3259 20.8553C20.6147 21.2755 20.7723 21.8006 20.746 22.2995C20.746 22.3258 20.746 22.3258 20.746 22.352C20.6935 22.0107 20.5622 21.6693 20.3521 21.3805C20.0108 21.7481 19.8007 22.2207 19.7745 22.7196C19.7219 22.5358 19.6957 22.3783 19.7219 22.2207ZM18.2778 20.8816C18.2778 20.409 18.4353 19.9626 18.7504 19.5687C19.0392 19.9626 19.2231 20.409 19.1968 20.8816C19.1968 20.9341 19.1968 20.9866 19.1968 21.0654C19.1443 20.724 18.9867 20.3827 18.7767 20.0939C18.5141 20.4352 18.3566 20.8291 18.304 21.2229C18.2778 21.1179 18.2778 20.9866 18.2778 20.8816ZM17.385 18.1771C17.6213 18.5184 17.7526 18.9123 17.7264 19.3324C17.7264 19.3849 17.7264 19.4112 17.7001 19.4637C17.6476 19.2011 17.5426 18.9385 17.385 18.7022C17.1487 18.991 17.0174 19.3324 16.9649 19.7C16.9386 19.5687 16.9386 19.4374 16.9386 19.3061C16.9649 18.886 17.1224 18.5184 17.385 18.1771ZM16.0459 16.9692C16.2822 17.258 16.4135 17.5731 16.466 17.9407C16.466 18.0458 16.466 18.1508 16.466 18.2558C16.4135 17.967 16.2822 17.7044 16.0984 17.4944C15.9671 17.7044 15.8883 17.9407 15.8621 18.1771C15.8621 18.1245 15.8358 18.0458 15.8358 17.9933C15.757 17.6519 15.8621 17.2843 16.0459 16.9692ZM15.5207 18.9648C15.3894 18.7285 15.1794 18.5184 14.9431 18.3871C14.6805 18.2296 14.3917 18.1508 14.0766 18.1508C14.024 18.1508 13.9715 18.1508 13.9453 18.1508C13.8928 18.072 13.8665 18.0195 13.8402 17.9407C13.8928 17.9407 13.9453 17.9407 13.9978 17.9407C14.3129 17.9407 14.6017 18.0195 14.8643 18.1771C15.1794 18.3346 15.4157 18.6234 15.5207 18.9648C15.547 18.9648 15.5207 18.9648 15.5207 18.9648ZM16.5448 20.619C16.361 20.3564 16.1247 20.1201 15.8358 19.9888C15.5995 19.8575 15.3107 19.805 15.0481 19.805C14.9431 19.805 14.8118 19.805 14.7067 19.8313C14.6542 19.7525 14.6017 19.7 14.5755 19.6212C14.7067 19.595 14.838 19.5687 14.9693 19.5687C15.2582 19.5687 15.5207 19.6212 15.757 19.7525C16.1247 19.9363 16.4135 20.2252 16.5973 20.5928C16.571 20.5928 16.5448 20.5928 16.5448 20.619ZM19.0392 23.875C18.6716 23.6124 18.2778 23.4811 17.8577 23.4548C17.8314 23.4548 17.7789 23.4548 17.7526 23.4548C17.3062 23.4548 16.9124 23.5861 16.5448 23.8224C16.466 23.7699 16.4135 23.7174 16.3347 23.6649C16.7286 23.3761 17.2012 23.2185 17.6739 23.2185C17.7001 23.2185 17.7526 23.2185 17.7789 23.2185C18.2778 23.2448 18.7767 23.4548 19.1705 23.7962C19.118 23.8224 19.0918 23.8487 19.0392 23.875ZM15.1006 15.6826C15.2844 15.9189 15.3894 16.2077 15.3894 16.4966C15.3894 16.5753 15.3894 16.6804 15.3632 16.7591C15.3107 16.5491 15.2319 16.3653 15.1006 16.2077C14.9956 16.3915 14.9168 16.5753 14.8905 16.7854C14.8643 16.7066 14.8643 16.6279 14.8643 16.5228C14.8643 16.234 14.9431 15.9452 15.1006 15.6826ZM14.2341 16.7329C13.9978 16.5491 13.7352 16.4441 13.4201 16.4178C13.4201 16.4441 13.4201 16.4441 13.4464 16.4441C13.3939 16.3653 13.3676 16.2865 13.3413 16.1815C13.6302 16.2077 13.919 16.3128 14.1553 16.4966C14.3654 16.6804 14.5229 16.9167 14.6017 17.1793C14.5229 17.0217 14.3917 16.8642 14.2341 16.7329ZM17.8314 22.3783C17.5688 22.0894 17.2275 21.8531 16.8599 21.7481C16.6761 21.6956 16.466 21.6693 16.2822 21.6693C16.0459 21.6693 15.7833 21.7218 15.547 21.8006C15.4945 21.7481 15.442 21.6693 15.3894 21.6168C15.652 21.5118 15.9409 21.4593 16.2034 21.4593C16.3872 21.4593 16.5973 21.4855 16.7811 21.538C17.2275 21.6693 17.6213 21.9582 17.9102 22.352C17.8839 22.352 17.8577 22.352 17.8314 22.3783ZM20.7723 25.4767C20.3784 25.1878 19.932 25.0303 19.4594 25.0303C19.4331 25.0303 19.4069 25.0303 19.3543 25.0303C18.8817 25.0303 18.4091 25.1878 18.0152 25.4504C17.9627 25.3979 17.8839 25.3454 17.8314 25.2929C18.2515 24.9778 18.7767 24.794 19.2756 24.794C19.3018 24.794 19.3281 24.794 19.3806 24.794C19.932 24.8202 20.4572 25.0303 20.8773 25.3979C20.851 25.4242 20.8248 25.4504 20.7723 25.4767ZM22.7941 26.9471C22.4265 26.6845 22.0064 26.527 21.5862 26.527C21.56 26.527 21.5075 26.527 21.4812 26.527C21.0348 26.527 20.6147 26.6583 20.2208 26.9208C20.1421 26.8683 20.0896 26.8158 20.037 26.7633C20.4572 26.4745 20.9035 26.3169 21.4024 26.3169C21.4287 26.3169 21.4812 26.3169 21.5075 26.3169C22.0326 26.3432 22.5053 26.5532 22.9254 26.8946C22.8729 26.8946 22.8203 26.9208 22.7941 26.9471Z" fill="white"/>
</g>
<defs>
<clipPath id="clip0_2010_64">
<rect width="38.2087" height="38.2087" fill="white" transform="translate(0.878296)"/>
</clipPath>
</defs>
</svg>
