<svg width="24" height="24" viewBox="0 0 24 24" fill="none" xmlns="http://www.w3.org/2000/svg">
<path d="M12 0C5.37097 0 0 5.41935 0 12C0 18.629 5.37097 24 12 24C18.5806 24 24 18.629 24 12C24 5.41935 18.5806 0 12 0ZM20.129 5.51613L17.0806 8.56452C16.6452 7.8871 16.1129 7.35484 15.4355 6.91935L18.4839 3.87097C19.1129 4.35484 19.6452 4.8871 20.129 5.51613ZM12 16.6452C9.43548 16.6452 7.35484 14.5645 7.35484 12C7.35484 9.48387 9.43548 7.35484 12 7.35484C14.5161 7.35484 16.6452 9.48387 16.6452 12C16.6452 14.5645 14.5161 16.6452 12 16.6452ZM17.1774 2.95161L13.9839 6.14516C12.6774 5.70968 11.2742 5.70968 9.96774 6.14516L6.77419 2.95161C9.96774 1.1129 13.9839 1.1129 17.1774 2.95161ZM5.46774 3.87097L8.51613 6.91935C7.83871 7.35484 7.30645 7.8871 6.87097 8.56452L3.82258 5.51613C4.30645 4.8871 4.83871 4.35484 5.46774 3.87097ZM2.90323 6.82258L6.09677 10.0161C5.66129 11.3226 5.66129 12.7258 6.09677 14.0323L2.90323 17.2258C1.06452 14.0323 1.06452 10.0161 2.90323 6.82258ZM3.82258 18.5323L6.87097 15.4839C7.30645 16.1613 7.83871 16.6935 8.51613 17.129L5.46774 20.1774C4.83871 19.6935 4.30645 19.1613 3.82258 18.5323ZM6.77419 21.0968L9.96774 17.9032C11.2742 18.3387 12.6774 18.3387 13.9839 17.9032L17.1774 21.0968C13.9839 22.9355 9.96774 22.9355 6.77419 21.0968ZM18.4839 20.1774L15.4355 17.129C16.1129 16.6935 16.6452 16.1613 17.0806 15.4839L20.129 18.5323C19.6452 19.1613 19.1129 19.6935 18.4839 20.1774ZM21.0484 17.2258L17.8548 14.0323C18.2903 12.7258 18.2903 11.3226 17.8548 10.0161L21.0484 6.82258C22.8871 10.0161 22.8871 14.0323 21.0484 17.2258Z" fill="#404040"/>
</svg>
