<svg width="201" height="200" viewBox="0 0 201 200" fill="none" xmlns="http://www.w3.org/2000/svg">
<path d="M26.98 61.0001L32.19 55.7901C32.3048 55.6642 32.4439 55.5629 32.5989 55.4923C32.754 55.4216 32.9217 55.3832 33.0921 55.3792C33.2624 55.3753 33.4318 55.4059 33.5899 55.4693C33.7481 55.5327 33.8917 55.6275 34.0122 55.748C34.1327 55.8684 34.2274 56.0121 34.2908 56.1702C34.3542 56.3284 34.3848 56.4977 34.3809 56.6681C34.377 56.8384 34.3385 57.0062 34.2679 57.1612C34.1973 57.3163 34.0959 57.4554 33.97 57.5701L28.75 62.7801C28.508 62.9817 28.1992 63.0854 27.8846 63.0706C27.5699 63.0559 27.2722 62.9238 27.0501 62.7005C26.828 62.4771 26.6976 62.1786 26.6846 61.8639C26.6717 61.5492 26.777 61.241 26.98 61.0001Z" fill="#82EA00"/>
<path d="M25.5 57.6999L28.73 60.9999C28.933 61.2408 29.0383 61.5489 29.0254 61.8637C29.0124 62.1784 28.882 62.4768 28.6599 62.7002C28.4378 62.9236 28.1401 63.0556 27.8254 63.0704C27.5108 63.0851 27.202 62.9815 26.96 62.7799L23.67 59.4899C23.4326 59.2472 23.3014 58.9202 23.3051 58.5807C23.3089 58.2413 23.4473 57.9173 23.69 57.6799C23.9327 57.4425 24.2597 57.3113 24.5991 57.315C24.9386 57.3188 25.2626 57.4572 25.5 57.6999Z" fill="#82EA00"/>
<path style="mix-blend-mode:multiply" opacity="0.54" d="M105.84 187.82C145.533 187.82 177.71 184.677 177.71 180.8C177.71 176.923 145.533 173.78 105.84 173.78C66.1473 173.78 33.97 176.923 33.97 180.8C33.97 184.677 66.1473 187.82 105.84 187.82Z" fill="url(#paint0_radial_736_875)"/>
<path d="M155.94 24.9002C155.749 24.8996 155.566 24.8242 155.43 24.6902L152.69 21.8602C152.623 21.795 152.571 21.7172 152.535 21.6314C152.498 21.5455 152.48 21.4533 152.48 21.3602C152.48 21.2671 152.498 21.1749 152.535 21.089C152.571 21.0032 152.623 20.9254 152.69 20.8602C152.823 20.7283 153.003 20.6543 153.19 20.6543C153.377 20.6543 153.557 20.7283 153.69 20.8602L156.5 23.7002C156.596 23.8006 156.66 23.9267 156.685 24.0632C156.71 24.1996 156.694 24.3403 156.64 24.4679C156.585 24.5956 156.495 24.7045 156.38 24.7813C156.264 24.8581 156.129 24.8995 155.99 24.9002H155.94Z" fill="#00A9EC"/>
<path d="M158.58 24.9002C158.394 24.8987 158.216 24.8273 158.08 24.7002C157.948 24.5673 157.874 24.3875 157.874 24.2002C157.874 24.0129 157.948 23.8332 158.08 23.7002L160.82 20.8802C160.953 20.7483 161.133 20.6743 161.32 20.6743C161.507 20.6743 161.687 20.7483 161.82 20.8802C161.887 20.9454 161.939 21.0232 161.975 21.1091C162.012 21.1949 162.03 21.2871 162.03 21.3802C162.03 21.4734 162.012 21.5656 161.975 21.6514C161.939 21.7373 161.887 21.8151 161.82 21.8802L159.08 24.7102C158.945 24.8373 158.765 24.9056 158.58 24.9002Z" fill="#00A9EC"/>
<path d="M158.58 26.4502C158.673 26.4502 158.765 26.4687 158.851 26.5048C158.937 26.5409 159.015 26.5937 159.08 26.6602L161.82 29.4802C161.952 29.6132 162.026 29.7929 162.026 29.9802C162.026 30.1675 161.952 30.3472 161.82 30.4802C161.686 30.6097 161.507 30.6821 161.32 30.6821C161.133 30.6821 160.954 30.6097 160.82 30.4802L158.08 27.6502C157.983 27.5511 157.917 27.4255 157.892 27.2891C157.866 27.1528 157.882 27.0119 157.936 26.8844C157.991 26.7569 158.082 26.6485 158.199 26.5729C158.315 26.4974 158.451 26.4582 158.59 26.4602L158.58 26.4502Z" fill="#00A9EC"/>
<path d="M155.94 26.4498C156.031 26.4481 156.121 26.465 156.206 26.4994C156.29 26.5338 156.366 26.585 156.43 26.6498C156.496 26.715 156.549 26.7928 156.585 26.8786C156.622 26.9645 156.64 27.0567 156.64 27.1498C156.64 27.2429 156.622 27.3351 156.585 27.421C156.549 27.5069 156.496 27.5846 156.43 27.6498L153.69 30.4798C153.556 30.6094 153.377 30.6817 153.19 30.6817C153.003 30.6817 152.824 30.6094 152.69 30.4798C152.558 30.3468 152.484 30.1671 152.484 29.9798C152.484 29.7925 152.558 29.6128 152.69 29.4798L155.43 26.6598C155.566 26.5258 155.749 26.4504 155.94 26.4498Z" fill="#00A9EC"/>
<path d="M21.71 104.7H14.33C13.9958 104.7 13.6753 104.567 13.4391 104.331C13.2028 104.095 13.07 103.774 13.07 103.44C13.07 103.106 13.2028 102.786 13.4391 102.549C13.6753 102.313 13.9958 102.18 14.33 102.18H21.71C22.0442 102.18 22.3647 102.313 22.601 102.549C22.8373 102.786 22.97 103.106 22.97 103.44C22.97 103.774 22.8373 104.095 22.601 104.331C22.3647 104.567 22.0442 104.7 21.71 104.7Z" fill="#FFD02E"/>
<path d="M8.72 104.7H6.04C5.70583 104.7 5.38534 104.567 5.14904 104.331C4.91275 104.095 4.78 103.774 4.78 103.44C4.78 103.106 4.91275 102.786 5.14904 102.549C5.38534 102.313 5.70583 102.18 6.04 102.18H8.72C9.05417 102.18 9.37466 102.313 9.61095 102.549C9.84725 102.786 9.98 103.106 9.98 103.44C9.98 103.774 9.84725 104.095 9.61095 104.331C9.37466 104.567 9.05417 104.7 8.72 104.7Z" fill="#FFD02E"/>
<path d="M38.02 156.61C37.8662 156.61 37.7187 156.549 37.61 156.44L35.38 154.14C35.3281 154.085 35.2875 154.021 35.2604 153.951C35.2334 153.881 35.2204 153.806 35.2223 153.731C35.2241 153.655 35.2408 153.581 35.2713 153.513C35.3018 153.444 35.3455 153.382 35.4 153.33C35.4545 153.278 35.5187 153.237 35.5889 153.21C35.6591 153.183 35.7339 153.17 35.8091 153.172C35.8844 153.174 35.9585 153.191 36.0273 153.221C36.096 153.252 36.1581 153.295 36.21 153.35L38.43 155.64C38.5204 155.718 38.5839 155.822 38.6117 155.939C38.6394 156.055 38.63 156.177 38.5846 156.287C38.5393 156.398 38.4604 156.491 38.3591 156.555C38.2578 156.618 38.1392 156.648 38.02 156.64V156.61Z" fill="#00A9EC"/>
<path d="M40.16 156.61C40.0408 156.618 39.9222 156.588 39.8209 156.524C39.7196 156.461 39.6407 156.368 39.5954 156.257C39.5501 156.147 39.5406 156.025 39.5684 155.909C39.5961 155.792 39.6596 155.688 39.75 155.61L41.97 153.32C42.023 153.266 42.0861 153.224 42.1556 153.195C42.2251 153.166 42.2997 153.151 42.375 153.151C42.4503 153.151 42.5249 153.166 42.5944 153.195C42.6639 153.224 42.727 153.266 42.78 153.32C42.8348 153.372 42.8783 153.435 42.9081 153.505C42.9379 153.574 42.9533 153.649 42.9533 153.725C42.9533 153.801 42.9379 153.875 42.9081 153.945C42.8783 154.015 42.8348 154.078 42.78 154.13L40.56 156.43C40.4554 156.54 40.3118 156.604 40.16 156.61Z" fill="#00A9EC"/>
<path d="M40.16 157.87C40.2365 157.868 40.3126 157.881 40.3833 157.911C40.454 157.94 40.5176 157.984 40.57 158.04L42.79 160.33C42.8448 160.382 42.8884 160.445 42.9181 160.515C42.9479 160.584 42.9633 160.659 42.9633 160.735C42.9633 160.811 42.9479 160.885 42.9181 160.955C42.8884 161.025 42.8448 161.088 42.79 161.14C42.737 161.193 42.6739 161.236 42.6044 161.265C42.5349 161.294 42.4603 161.309 42.385 161.309C42.3097 161.309 42.2351 161.294 42.1656 161.265C42.0961 161.236 42.033 161.193 41.98 161.14L39.76 158.85C39.6697 158.772 39.6061 158.667 39.5784 158.551C39.5506 158.435 39.5601 158.313 39.6054 158.202C39.6507 158.092 39.7296 157.998 39.8309 157.935C39.9322 157.872 40.0508 157.842 40.17 157.85L40.16 157.87Z" fill="#00A9EC"/>
<path d="M38.02 157.87C38.1392 157.862 38.2578 157.892 38.3591 157.955C38.4604 158.019 38.5393 158.112 38.5846 158.223C38.6299 158.333 38.6394 158.455 38.6116 158.571C38.5839 158.687 38.5203 158.792 38.43 158.87L36.21 161.16C36.1002 161.251 35.9607 161.298 35.8181 161.293C35.6756 161.288 35.54 161.23 35.4373 161.131C35.3346 161.032 35.272 160.899 35.2614 160.757C35.2508 160.614 35.2931 160.473 35.38 160.36L37.61 158C37.6658 157.951 37.731 157.915 37.8015 157.892C37.872 157.87 37.9464 157.862 38.02 157.87Z" fill="#00A9EC"/>
<path d="M24.2257 130.147C24.7277 127.882 23.2989 125.639 21.0343 125.137C18.7697 124.635 16.5268 126.064 16.0248 128.329C15.5227 130.593 16.9516 132.836 19.2162 133.338C21.4808 133.84 23.7236 132.411 24.2257 130.147Z" fill="#00A9EC"/>
<path d="M18.72 132.11C17.7603 132.112 16.8216 131.829 16.0228 131.298C15.2239 130.766 14.6007 130.009 14.232 129.123C13.8634 128.237 13.766 127.262 13.952 126.32C14.138 125.379 14.5991 124.514 15.277 123.834C15.9549 123.155 16.819 122.692 17.7601 122.504C18.7012 122.316 19.6769 122.412 20.5637 122.778C21.4505 123.145 22.2085 123.767 22.7419 124.565C23.2753 125.362 23.56 126.3 23.56 127.26C23.56 128.545 23.0504 129.777 22.143 130.686C21.2356 131.595 20.0046 132.107 18.72 132.11ZM18.72 123.71C18.0155 123.71 17.3268 123.919 16.7411 124.311C16.1555 124.702 15.6992 125.259 15.43 125.91C15.1609 126.561 15.091 127.278 15.2291 127.968C15.3673 128.659 15.7074 129.294 16.2062 129.791C16.7051 130.288 17.3404 130.627 18.0316 130.763C18.7228 130.899 19.439 130.827 20.0893 130.556C20.7396 130.285 21.2949 129.827 21.6849 129.241C22.0749 128.654 22.282 127.965 22.28 127.26C22.2773 126.318 21.9011 125.415 21.2338 124.749C20.5664 124.084 19.6624 123.71 18.72 123.71Z" fill="#231F20"/>
<path d="M52.8773 34.6637C53.3226 32.777 52.1541 30.8866 50.2674 30.4413C48.3808 29.996 46.4903 31.1645 46.045 33.0511C45.5997 34.9378 46.7682 36.8283 48.6549 37.2736C50.5416 37.7189 52.432 36.5504 52.8773 34.6637Z" fill="#82EA00"/>
<path d="M48.28 36.25C47.4889 36.25 46.7155 36.0154 46.0577 35.5759C45.3999 35.1364 44.8872 34.5116 44.5845 33.7807C44.2817 33.0498 44.2025 32.2456 44.3569 31.4696C44.5112 30.6937 44.8922 29.981 45.4516 29.4216C46.011 28.8622 46.7237 28.4812 47.4996 28.3269C48.2756 28.1725 49.0798 28.2517 49.8107 28.5545C50.5416 28.8572 51.1664 29.3699 51.6059 30.0277C52.0454 30.6855 52.28 31.4589 52.28 32.25C52.28 33.3109 51.8586 34.3283 51.1084 35.0784C50.3583 35.8286 49.3409 36.25 48.28 36.25ZM48.28 29.25C47.6867 29.25 47.1066 29.4259 46.6133 29.7556C46.1199 30.0852 45.7354 30.5538 45.5084 31.102C45.2813 31.6501 45.2219 32.2533 45.3376 32.8353C45.4534 33.4172 45.7391 33.9518 46.1587 34.3713C46.5782 34.7909 47.1128 35.0766 47.6947 35.1924C48.2767 35.3081 48.8799 35.2487 49.4281 35.0216C49.9762 34.7946 50.4448 34.4101 50.7744 33.9167C51.1041 33.4234 51.28 32.8433 51.28 32.25C51.2813 31.8552 51.2047 31.464 51.0545 31.0989C50.9043 30.7337 50.6836 30.4018 50.4049 30.1222C50.1262 29.8426 49.795 29.6207 49.4304 29.4693C49.0657 29.3179 48.6748 29.24 48.28 29.24V29.25Z" fill="#FFD02E"/>
<path d="M32.8 36.1202H27.56C27.4345 36.1335 27.3076 36.1202 27.1876 36.0813C27.0676 36.0424 26.9571 35.9786 26.8633 35.8942C26.7695 35.8099 26.6945 35.7067 26.6431 35.5914C26.5918 35.4761 26.5652 35.3514 26.5652 35.2252C26.5652 35.099 26.5918 34.9742 26.6431 34.859C26.6945 34.7437 26.7695 34.6405 26.8633 34.5561C26.9571 34.4717 27.0676 34.408 27.1876 34.3691C27.3076 34.3302 27.4345 34.3169 27.56 34.3302H32.8C33.021 34.3536 33.2256 34.458 33.3743 34.6232C33.523 34.7885 33.6052 35.0029 33.6052 35.2252C33.6052 35.4475 33.523 35.6619 33.3743 35.8272C33.2256 35.9924 33.021 36.0968 32.8 36.1202Z" fill="#FFD02E"/>
<path d="M23.57 36.1201H21.66C21.4389 36.0967 21.2344 35.9923 21.0857 35.827C20.937 35.6618 20.8547 35.4474 20.8547 35.2251C20.8547 35.0028 20.937 34.7884 21.0857 34.6231C21.2344 34.4579 21.4389 34.3535 21.66 34.3301H23.57C23.7911 34.3535 23.9956 34.4579 24.1443 34.6231C24.293 34.7884 24.3753 35.0028 24.3753 35.2251C24.3753 35.4474 24.293 35.6618 24.1443 35.827C23.9956 35.9923 23.7911 36.0967 23.57 36.1201Z" fill="#FFD02E"/>
<path d="M196.118 86.6086C196.589 84.4334 195.207 82.288 193.032 81.8169C190.857 81.3458 188.711 82.7273 188.24 84.9026C187.769 87.0779 189.151 89.2232 191.326 89.6943C193.501 90.1654 195.647 88.7839 196.118 86.6086Z" fill="#00A9EC"/>
<path d="M190.83 88.5099C189.911 88.506 189.014 88.2299 188.252 87.7165C187.49 87.2032 186.897 86.4756 186.548 85.6256C186.199 84.7756 186.11 83.8412 186.292 82.9406C186.473 82.0399 186.918 81.2132 187.569 80.5649C188.22 79.9166 189.049 79.4757 189.95 79.2979C190.852 79.1201 191.786 79.2133 192.634 79.5658C193.483 79.9184 194.208 80.5144 194.718 81.2786C195.228 82.0429 195.5 82.9411 195.5 83.8599C195.5 84.4723 195.379 85.0786 195.144 85.644C194.909 86.2095 194.565 86.723 194.131 87.1551C193.697 87.5871 193.182 87.9292 192.616 88.1617C192.049 88.3942 191.442 88.5126 190.83 88.5099ZM190.83 80.4399C190.153 80.4379 189.491 80.6368 188.927 81.0114C188.364 81.386 187.924 81.9195 187.663 82.5442C187.403 83.1689 187.334 83.8569 187.465 84.521C187.595 85.185 187.92 85.7954 188.398 86.2747C188.876 86.754 189.485 87.0807 190.149 87.2135C190.813 87.3462 191.501 87.2791 192.126 87.0205C192.752 86.762 193.287 86.3236 193.663 85.761C194.039 85.1984 194.24 84.5368 194.24 83.8599C194.24 82.9546 193.881 82.0862 193.242 81.4451C192.603 80.804 191.735 80.4426 190.83 80.4399Z" fill="#231F20"/>
<path d="M185.59 54.4199H178.89C178.605 54.3932 178.34 54.261 178.147 54.0493C177.954 53.8375 177.847 53.5613 177.847 53.2749C177.847 52.9884 177.954 52.7123 178.147 52.5005C178.34 52.2887 178.605 52.1566 178.89 52.1299H185.59C185.875 52.1566 186.14 52.2887 186.333 52.5005C186.526 52.7123 186.633 52.9884 186.633 53.2749C186.633 53.5613 186.526 53.8375 186.333 54.0493C186.14 54.261 185.875 54.3932 185.59 54.4199Z" fill="#231F20"/>
<path d="M173.79 54.4199H171.35C171.065 54.3932 170.8 54.261 170.607 54.0493C170.414 53.8375 170.307 53.5613 170.307 53.2749C170.307 52.9884 170.414 52.7123 170.607 52.5005C170.8 52.2887 171.065 52.1566 171.35 52.1299H173.79C174.075 52.1566 174.34 52.2887 174.533 52.5005C174.726 52.7123 174.833 52.9884 174.833 53.2749C174.833 53.5613 174.726 53.8375 174.533 54.0493C174.34 54.261 174.075 54.3932 173.79 54.4199Z" fill="#231F20"/>
<path d="M158.97 168.35H152.27C151.968 168.35 151.678 168.23 151.464 168.016C151.25 167.802 151.13 167.512 151.13 167.21C151.13 166.907 151.25 166.618 151.464 166.404C151.678 166.19 151.968 166.07 152.27 166.07H158.97C159.272 166.07 159.562 166.19 159.776 166.404C159.99 166.618 160.11 166.907 160.11 167.21C160.11 167.512 159.99 167.802 159.776 168.016C159.562 168.23 159.272 168.35 158.97 168.35Z" fill="#FFD02E"/>
<path d="M147.17 168.35H144.74C144.438 168.35 144.148 168.23 143.934 168.016C143.72 167.802 143.6 167.512 143.6 167.21C143.6 166.907 143.72 166.618 143.934 166.404C144.148 166.19 144.438 166.07 144.74 166.07H147.17C147.472 166.07 147.762 166.19 147.976 166.404C148.19 166.618 148.31 166.907 148.31 167.21C148.31 167.512 148.19 167.802 147.976 168.016C147.762 168.23 147.472 168.35 147.17 168.35Z" fill="#FFD02E"/>
<path d="M104.52 162.92C138.806 162.92 166.6 135.126 166.6 100.84C166.6 66.5539 138.806 38.7598 104.52 38.7598C70.2342 38.7598 42.44 66.5539 42.44 100.84C42.44 135.126 70.2342 162.92 104.52 162.92Z" fill="#00A9EC"/>
<path d="M104.54 159.59C137.395 159.59 164.03 132.955 164.03 100.1C164.03 67.2444 137.395 40.6099 104.54 40.6099C71.6846 40.6099 45.05 67.2444 45.05 100.1C45.05 132.955 71.6846 159.59 104.54 159.59Z" fill="#F8FDFF"/>
<path d="M56.31 62.38C55.9055 62.3804 55.5092 62.265 55.1681 62.0476C54.827 61.8301 54.5553 61.5195 54.3849 61.1526C54.2146 60.7856 54.1528 60.3776 54.2069 59.9767C54.2609 59.5758 54.4286 59.1987 54.69 58.89C56.16 57.15 57.74 55.46 59.38 53.89C59.576 53.6739 59.8143 53.5004 60.0801 53.3801C60.3459 53.2599 60.6336 53.1956 60.9253 53.1912C61.217 53.1867 61.5065 53.2423 61.7759 53.3543C62.0453 53.4664 62.2887 53.6326 62.4912 53.8426C62.6937 54.0526 62.8509 54.302 62.953 54.5753C63.0551 54.8486 63.1 55.1399 63.0849 55.4313C63.0698 55.7226 62.995 56.0078 62.8651 56.269C62.7353 56.5302 62.5531 56.762 62.33 56.95C60.7849 58.4382 59.3195 60.0071 57.94 61.65C57.7382 61.8835 57.4877 62.0698 57.206 62.196C56.9244 62.3221 56.6185 62.3849 56.31 62.38Z" fill="#231F20"/>
<path d="M106.02 169.34C97.0403 169.355 88.1498 167.559 79.88 164.06C63.7812 157.238 50.9676 144.421 44.15 128.32C39.7713 117.932 38.0745 106.611 39.2156 95.3957C40.3566 84.1808 44.2989 73.4328 50.68 64.14C50.9996 63.6758 51.4905 63.3577 52.0446 63.2555C52.5988 63.1533 53.1709 63.2754 53.635 63.595C54.0991 63.9146 54.4173 64.4054 54.5195 64.9596C54.6217 65.5138 54.4996 66.0858 54.18 66.55C44.9282 80.0266 41.2853 96.5752 44.0229 112.691C46.7604 128.807 55.6635 143.224 68.8465 152.89C82.0295 162.556 98.457 166.71 114.65 164.474C130.843 162.238 145.53 153.787 155.6 140.91C155.946 140.466 156.455 140.177 157.013 140.108C157.572 140.038 158.136 140.194 158.58 140.54C159.024 140.886 159.313 141.394 159.382 141.953C159.452 142.512 159.296 143.076 158.95 143.52C155.869 147.447 152.365 151.022 148.5 154.18C144.624 157.354 140.404 160.085 135.92 162.32C131.365 164.593 126.563 166.334 121.61 167.51C116.502 168.725 111.27 169.339 106.02 169.34Z" fill="#231F20"/>
<path d="M163.5 134.67C163.135 134.667 162.776 134.571 162.459 134.389C162.142 134.208 161.877 133.948 161.689 133.635C161.501 133.322 161.397 132.965 161.387 132.6C161.376 132.235 161.46 131.873 161.63 131.55C168.526 118.454 170.603 103.352 167.5 88.8799C167.441 88.6074 167.436 88.3259 167.486 88.0515C167.535 87.7772 167.639 87.5153 167.79 87.2808C167.94 87.0464 168.136 86.8439 168.365 86.685C168.594 86.5262 168.853 86.414 169.125 86.3549C169.398 86.2958 169.679 86.2909 169.953 86.3406C170.228 86.3903 170.49 86.4935 170.724 86.6444C170.959 86.7953 171.161 86.9909 171.32 87.2201C171.479 87.4492 171.591 87.7074 171.65 87.9799C175.001 103.429 172.787 119.564 165.4 133.54C165.218 133.885 164.944 134.173 164.609 134.372C164.274 134.571 163.89 134.675 163.5 134.67Z" fill="#231F20"/>
<path d="M165.76 78.5598C165.337 78.5691 164.921 78.4523 164.565 78.2243C164.209 77.9964 163.929 77.6676 163.76 77.2798C162.642 74.6848 161.349 72.169 159.89 69.7498C159.6 69.2671 159.513 68.6888 159.649 68.1421C159.785 67.5955 160.132 67.1252 160.615 66.8348C161.098 66.5444 161.676 66.4576 162.223 66.5936C162.769 66.7295 163.24 67.0771 163.53 67.5598C165.088 70.1306 166.471 72.8033 167.67 75.5598C167.891 76.0786 167.899 76.6638 167.691 77.1881C167.483 77.7125 167.077 78.1335 166.56 78.3598C166.308 78.4743 166.037 78.5421 165.76 78.5598Z" fill="#231F20"/>
<path d="M157.18 64.16C156.859 64.1591 156.542 64.0857 156.253 63.9455C155.964 63.8053 155.71 63.6018 155.51 63.35C145.353 50.4082 130.531 41.96 114.22 39.8159C97.9084 37.6719 81.4063 42.0026 68.25 51.88C68.0274 52.0481 67.7739 52.1707 67.5039 52.2409C67.2339 52.311 66.9528 52.3272 66.6766 52.2887C66.4003 52.2502 66.1343 52.1576 65.8939 52.0163C65.6534 51.8749 65.4431 51.6876 65.275 51.465C64.9355 51.0155 64.7885 50.4495 64.8664 49.8916C64.9442 49.3337 65.2405 48.8295 65.69 48.49C77.6758 39.4676 92.3404 34.7241 107.34 35.0177C122.339 35.3114 136.807 40.6253 148.43 50.11C152.284 53.2518 155.778 56.8101 158.85 60.72C159.025 60.9397 159.154 61.1917 159.231 61.4616C159.308 61.7316 159.331 62.014 159.299 62.2928C159.266 62.5716 159.179 62.8412 159.042 63.0861C158.905 63.3311 158.721 63.5465 158.5 63.72C158.12 64.0076 157.656 64.1622 157.18 64.16Z" fill="#231F20"/>
<path d="M112.149 20.0951C114.158 19.4867 115.293 17.3653 114.685 15.3567C114.076 13.3481 111.955 12.213 109.946 12.8214C107.938 13.4297 106.803 15.5511 107.411 17.5597C108.019 19.5683 110.141 20.7034 112.149 20.0951Z" fill="#82EA00"/>
<path d="M111.05 20.7602C110.95 20.7603 110.852 20.7296 110.77 20.6724C110.688 20.6152 110.625 20.5341 110.59 20.4402C110.379 19.5913 109.941 18.8159 109.323 18.1974C108.704 17.5789 107.929 17.1408 107.08 16.9302C106.986 16.8954 106.905 16.8327 106.848 16.7504C106.791 16.6682 106.76 16.5704 106.76 16.4702C106.761 16.3703 106.792 16.2731 106.85 16.1911C106.907 16.1091 106.987 16.0461 107.08 16.0102C107.929 15.7995 108.704 15.3614 109.323 14.7429C109.941 14.1245 110.379 13.3491 110.59 12.5002C110.625 12.4062 110.688 12.3251 110.77 12.2679C110.852 12.2107 110.95 12.1801 111.05 12.1802C111.15 12.1815 111.247 12.2126 111.329 12.2697C111.411 12.3267 111.474 12.407 111.51 12.5002C111.722 13.3472 112.161 14.1205 112.779 14.7371C113.398 15.3537 114.172 15.7903 115.02 16.0002C115.113 16.0361 115.193 16.0991 115.251 16.1811C115.308 16.2631 115.339 16.3603 115.34 16.4602C115.34 16.5604 115.309 16.6582 115.252 16.7404C115.195 16.8227 115.114 16.8854 115.02 16.9202C114.168 17.13 113.39 17.5689 112.769 18.1894C112.149 18.8098 111.71 19.5882 111.5 20.4402C111.465 20.5318 111.403 20.611 111.323 20.6679C111.243 20.7248 111.148 20.7569 111.05 20.7602ZM108.5 16.4702C109.638 16.962 110.549 17.8656 111.05 19.0002C111.546 17.8636 112.453 16.9565 113.59 16.4602C112.453 15.9639 111.546 15.0567 111.05 13.9202C110.553 15.0623 109.642 15.9736 108.5 16.4702Z" fill="#82EA00"/>
<path d="M96.28 24.7098C95.9216 24.7098 95.5713 24.6034 95.2734 24.4041C94.9755 24.2048 94.7435 23.9215 94.6068 23.5902C94.4702 23.2589 94.4349 22.8944 94.5056 22.543C94.5762 22.1917 94.7496 21.8692 95.0037 21.6164C95.2579 21.3637 95.5813 21.1921 95.9331 21.1234C96.2848 21.0547 96.6491 21.092 96.9796 21.2305C97.3102 21.369 97.5922 21.6026 97.7898 21.9016C97.9875 22.2005 98.092 22.5514 98.09 22.9098C98.0874 23.3882 97.8955 23.846 97.5563 24.1832C97.2172 24.5205 96.7583 24.7099 96.28 24.7098ZM96.28 22.1698C96.1336 22.1698 95.9906 22.2132 95.8689 22.2946C95.7472 22.3759 95.6523 22.4914 95.5963 22.6267C95.5403 22.7619 95.5257 22.9107 95.5542 23.0542C95.5828 23.1978 95.6533 23.3296 95.7567 23.4331C95.8602 23.5366 95.9921 23.6071 96.1356 23.6356C96.2792 23.6642 96.428 23.6495 96.5632 23.5935C96.6984 23.5375 96.814 23.4427 96.8953 23.321C96.9766 23.1993 97.02 23.0562 97.02 22.9098C97.02 22.7136 96.942 22.5254 96.8033 22.3866C96.6645 22.2478 96.4763 22.1698 96.28 22.1698Z" fill="#231F20"/>
<path d="M185.58 108.31C185.222 108.31 184.872 108.204 184.574 108.005C184.277 107.806 184.045 107.523 183.908 107.193C183.771 106.862 183.735 106.498 183.805 106.147C183.875 105.796 184.047 105.473 184.3 105.22C184.553 104.967 184.876 104.795 185.227 104.725C185.578 104.655 185.942 104.691 186.273 104.828C186.603 104.965 186.886 105.197 187.085 105.494C187.284 105.792 187.39 106.142 187.39 106.5C187.39 106.98 187.199 107.44 186.86 107.78C186.52 108.119 186.06 108.31 185.58 108.31ZM185.58 105.76C185.384 105.76 185.196 105.838 185.057 105.977C184.918 106.115 184.84 106.304 184.84 106.5C184.84 106.696 184.918 106.884 185.057 107.023C185.196 107.162 185.384 107.24 185.58 107.24C185.776 107.24 185.964 107.162 186.103 107.023C186.242 106.884 186.32 106.696 186.32 106.5C186.32 106.304 186.242 106.115 186.103 105.977C185.964 105.838 185.776 105.76 185.58 105.76Z" fill="#FFD02E"/>
<path d="M65.08 171.88C64.5752 171.882 64.0812 171.734 63.6606 171.455C63.2399 171.176 62.9115 170.778 62.717 170.313C62.5224 169.847 62.4705 169.334 62.5678 168.838C62.665 168.343 62.9071 167.888 63.2633 167.53C63.6196 167.173 64.0739 166.929 64.5688 166.83C65.0637 166.73 65.577 166.78 66.0435 166.973C66.51 167.166 66.9089 167.492 67.1895 167.912C67.4702 168.332 67.62 168.825 67.62 169.33C67.62 170.004 67.3527 170.651 66.8767 171.129C66.4006 171.607 65.7546 171.877 65.08 171.88ZM65.08 168.29C64.8822 168.29 64.6889 168.348 64.5244 168.458C64.36 168.568 64.2318 168.724 64.1561 168.907C64.0804 169.09 64.0606 169.291 64.0992 169.485C64.1378 169.679 64.233 169.857 64.3729 169.997C64.5127 170.137 64.6909 170.232 64.8849 170.271C65.0789 170.309 65.2799 170.289 65.4627 170.214C65.6454 170.138 65.8016 170.01 65.9115 169.845C66.0213 169.681 66.08 169.488 66.08 169.29C66.08 169.025 65.9746 168.77 65.7871 168.583C65.5996 168.395 65.3452 168.29 65.08 168.29Z" fill="#231F20"/>
<path d="M28.82 91.7799C28.3394 91.7799 27.8696 91.6374 27.47 91.3704C27.0703 91.1034 26.7589 90.7239 26.575 90.2798C26.391 89.8358 26.3429 89.3472 26.4367 88.8759C26.5304 88.4045 26.7619 87.9715 27.1017 87.6317C27.4416 87.2918 27.8745 87.0604 28.3459 86.9666C28.8173 86.8729 29.3059 86.921 29.7499 87.1049C30.1939 87.2888 30.5734 87.6003 30.8405 87.9999C31.1075 88.3995 31.25 88.8693 31.25 89.3499C31.25 89.9944 30.994 90.6125 30.5383 91.0682C30.0825 91.5239 29.4645 91.7799 28.82 91.7799ZM28.82 87.9799C28.549 87.9799 28.2841 88.0603 28.0589 88.2108C27.8336 88.3613 27.658 88.5753 27.5543 88.8256C27.4506 89.076 27.4234 89.3514 27.4763 89.6172C27.5292 89.8829 27.6597 90.1271 27.8512 90.3187C28.0428 90.5103 28.287 90.6407 28.5527 90.6936C28.8185 90.7465 29.0939 90.7193 29.3443 90.6156C29.5946 90.5119 29.8086 90.3363 29.9591 90.1111C30.1096 89.8858 30.19 89.6209 30.19 89.3499C30.1847 88.9901 30.0381 88.6467 29.7817 88.3941C29.5254 88.1415 29.1799 87.9999 28.82 87.9999V87.9799Z" fill="#231F20"/>
<path d="M21.9 81.1901L16.69 76.0001C16.5718 75.8812 16.4782 75.7403 16.4145 75.5852C16.3508 75.4302 16.3182 75.2641 16.3187 75.0965C16.3196 74.758 16.455 74.4338 16.695 74.1951C16.935 73.9564 17.26 73.8228 17.5985 73.8237C17.937 73.8247 18.2613 73.96 18.5 74.2001L23.71 79.4101C23.9283 79.6496 24.0459 79.964 24.0384 80.288C24.0309 80.612 23.8989 80.9206 23.6697 81.1498C23.4406 81.379 23.1319 81.511 22.8079 81.5185C22.4839 81.526 22.1695 81.4084 21.93 81.1901H21.9Z" fill="#82EA00"/>
<path d="M32.23 72.64L23.68 81.19C23.438 81.3916 23.1292 81.4953 22.8146 81.4805C22.4999 81.4658 22.2022 81.3337 21.9801 81.1103C21.758 80.887 21.6276 80.5885 21.6146 80.2738C21.6017 79.9591 21.707 79.6509 21.91 79.41L30.5 70.86C30.7395 70.6417 31.0539 70.5241 31.3779 70.5316C31.7019 70.5391 32.0106 70.6711 32.2397 70.9003C32.4689 71.1295 32.6009 71.4381 32.6084 71.7621C32.6159 72.0861 32.4983 72.4005 32.28 72.64H32.23Z" fill="#82EA00"/>
<path d="M180.5 151.42L185.71 146.21C185.947 145.973 186.269 145.839 186.605 145.839C186.941 145.839 187.263 145.973 187.5 146.21C187.737 146.447 187.871 146.769 187.871 147.105C187.871 147.441 187.737 147.763 187.5 148L182.28 153.21C182.165 153.329 182.028 153.423 181.876 153.488C181.724 153.553 181.56 153.586 181.395 153.586C181.23 153.586 181.066 153.553 180.914 153.488C180.762 153.423 180.625 153.329 180.51 153.21C180.39 153.094 180.294 152.956 180.229 152.802C180.163 152.649 180.129 152.484 180.128 152.317C180.127 152.15 180.159 151.985 180.223 151.831C180.287 151.677 180.381 151.537 180.5 151.42Z" fill="#82EA00"/>
<path d="M179.01 148.13L182.29 151.42C182.406 151.536 182.498 151.674 182.561 151.826C182.624 151.978 182.657 152.141 182.657 152.305C182.657 152.469 182.624 152.632 182.561 152.784C182.498 152.936 182.406 153.074 182.29 153.19C182.174 153.306 182.036 153.398 181.884 153.461C181.732 153.524 181.569 153.557 181.405 153.557C181.241 153.557 181.078 153.524 180.926 153.461C180.774 153.398 180.636 153.306 180.52 153.19L177.23 149.91C177.012 149.671 176.894 149.356 176.902 149.032C176.909 148.708 177.041 148.399 177.27 148.17C177.499 147.941 177.808 147.809 178.132 147.802C178.456 147.794 178.77 147.912 179.01 148.13Z" fill="#82EA00"/>
<path d="M183.6 138.1L178.39 132.89C178.264 132.775 178.163 132.636 178.092 132.481C178.021 132.326 177.983 132.158 177.979 131.988C177.975 131.818 178.006 131.648 178.069 131.49C178.133 131.332 178.227 131.188 178.348 131.068C178.468 130.947 178.612 130.853 178.77 130.789C178.928 130.726 179.098 130.695 179.268 130.699C179.438 130.703 179.606 130.741 179.761 130.812C179.916 130.883 180.055 130.984 180.17 131.11L185.38 136.32C185.598 136.559 185.716 136.874 185.708 137.198C185.701 137.522 185.569 137.831 185.34 138.06C185.111 138.289 184.802 138.421 184.478 138.428C184.154 138.436 183.84 138.318 183.6 138.1Z" fill="#82EA00"/>
<path d="M193.93 129.55L185.38 138.1C185.138 138.301 184.829 138.405 184.515 138.39C184.2 138.376 183.902 138.244 183.68 138.02C183.458 137.797 183.328 137.498 183.315 137.184C183.302 136.869 183.407 136.561 183.61 136.32L192.15 127.78C192.391 127.577 192.699 127.471 193.014 127.484C193.329 127.497 193.627 127.628 193.85 127.85C194.074 128.072 194.206 128.37 194.22 128.684C194.235 128.999 194.132 129.308 193.93 129.55Z" fill="#82EA00"/>
<path d="M97.2 114.91L82.2 99.9098C81.5738 99.2237 81.2362 98.3226 81.2573 97.3939C81.2785 96.4652 81.6569 95.5804 82.3138 94.9236C82.9706 94.2667 83.8554 93.8883 84.7841 93.8672C85.7128 93.846 86.6139 94.1836 87.3 94.8098L102.3 109.81C102.926 110.496 103.264 111.397 103.243 112.326C103.221 113.254 102.843 114.139 102.186 114.796C101.529 115.453 100.645 115.831 99.7159 115.852C98.7872 115.874 97.8861 115.536 97.2 114.91Z" fill="#82EA00"/>
<path d="M126.84 90.38L102.32 114.91C101.634 115.536 100.733 115.874 99.8041 115.853C98.8754 115.831 97.9906 115.453 97.3337 114.796C96.6769 114.139 96.2985 113.255 96.2773 112.326C96.2562 111.397 96.5938 110.496 97.22 109.81L121.74 85.28C122.426 84.6538 123.327 84.3162 124.256 84.3374C125.185 84.3586 126.069 84.7369 126.726 85.3938C127.383 86.0506 127.761 86.9354 127.783 87.8641C127.804 88.7928 127.466 89.6939 126.84 90.38Z" fill="#82EA00"/>
<defs>
<radialGradient id="paint0_radial_736_875" cx="0" cy="0" r="1" gradientUnits="userSpaceOnUse" gradientTransform="translate(106.463 177.106) scale(71.8848 7.3008)">
<stop stop-color="#231F20"/>
<stop offset="0.04" stop-color="#3D3A3B"/>
<stop offset="0.13" stop-color="#6A6868"/>
<stop offset="0.22" stop-color="#929091"/>
<stop offset="0.32" stop-color="#B4B3B3"/>
<stop offset="0.42" stop-color="#CFCECF"/>
<stop offset="0.53" stop-color="#E5E4E4"/>
<stop offset="0.65" stop-color="#F3F3F3"/>
<stop offset="0.79" stop-color="#FCFCFC"/>
<stop offset="1" stop-color="white"/>
</radialGradient>
</defs>
</svg>
