<svg width="201" height="200" viewBox="0 0 201 200" fill="none" xmlns="http://www.w3.org/2000/svg">
<path style="mix-blend-mode:multiply" opacity="0.54" d="M104.68 186.81C143.914 186.81 175.72 183.703 175.72 179.87C175.72 176.037 143.914 172.93 104.68 172.93C65.4457 172.93 33.64 176.037 33.64 179.87C33.64 183.703 65.4457 186.81 104.68 186.81Z" fill="url(#paint0_radial_736_751)"/>
<path d="M154.2 25.7599C154.107 25.7599 154.015 25.7414 153.929 25.7053C153.843 25.6692 153.765 25.6164 153.7 25.5499L151 22.7599C150.932 22.6955 150.878 22.6179 150.841 22.5319C150.805 22.446 150.786 22.3534 150.786 22.2599C150.786 22.1664 150.805 22.0738 150.841 21.9879C150.878 21.9019 150.932 21.8244 151 21.7599C151.065 21.6934 151.143 21.6405 151.229 21.6045C151.315 21.5684 151.407 21.5498 151.5 21.5498C151.593 21.5498 151.685 21.5684 151.771 21.6045C151.857 21.6405 151.935 21.6934 152 21.7599L154.71 24.5499C154.809 24.6476 154.876 24.7728 154.902 24.9091C154.928 25.0455 154.913 25.1866 154.858 25.3141C154.803 25.4416 154.711 25.5495 154.593 25.6236C154.476 25.6978 154.339 25.7349 154.2 25.7299V25.7599Z" fill="#00A9EC"/>
<path d="M156.81 25.7601C156.672 25.763 156.536 25.7244 156.421 25.6495C156.305 25.5745 156.214 25.4665 156.16 25.3395C156.107 25.2124 156.092 25.0722 156.119 24.9368C156.145 24.8015 156.212 24.6772 156.31 24.5801L159.02 21.7901C159.153 21.6575 159.332 21.583 159.52 21.583C159.708 21.583 159.887 21.6575 160.02 21.7901C160.153 21.9227 160.227 22.1026 160.227 22.2901C160.227 22.4777 160.153 22.6575 160.02 22.7901L157.31 25.5801C157.173 25.7035 156.994 25.7682 156.81 25.7601Z" fill="#00A9EC"/>
<path d="M156.81 27.29C156.903 27.29 156.995 27.3086 157.081 27.3447C157.167 27.3807 157.245 27.4335 157.31 27.5L160.02 30.29C160.087 30.3552 160.139 30.433 160.175 30.5189C160.212 30.6047 160.23 30.6969 160.23 30.79C160.23 30.8832 160.212 30.9754 160.175 31.0612C160.139 31.1471 160.087 31.2249 160.02 31.29C159.956 31.3578 159.878 31.4118 159.792 31.4487C159.706 31.4855 159.614 31.5045 159.52 31.5045C159.426 31.5045 159.334 31.4855 159.248 31.4487C159.162 31.4118 159.084 31.3578 159.02 31.29L156.31 28.5C156.242 28.4356 156.188 28.358 156.151 28.2721C156.115 28.1861 156.096 28.0936 156.096 28C156.096 27.9065 156.115 27.814 156.151 27.728C156.188 27.6421 156.242 27.5645 156.31 27.5C156.442 27.3666 156.622 27.2911 156.81 27.29Z" fill="#00A9EC"/>
<path d="M154.2 27.2902C154.383 27.2912 154.559 27.3628 154.69 27.4902C154.758 27.5546 154.812 27.6322 154.849 27.7181C154.885 27.8041 154.904 27.8966 154.904 27.9902C154.904 28.0837 154.885 28.1763 154.849 28.2622C154.812 28.3482 154.758 28.4257 154.69 28.4902L151.98 31.2802C151.847 31.4128 151.668 31.4873 151.48 31.4873C151.292 31.4873 151.113 31.4128 150.98 31.2802C150.847 31.1476 150.773 30.9677 150.773 30.7802C150.773 30.5926 150.847 30.4128 150.98 30.2802L153.68 27.4902C153.748 27.423 153.83 27.3706 153.919 27.3362C154.009 27.3018 154.104 27.2861 154.2 27.2902Z" fill="#00A9EC"/>
<path d="M21.5 104.64H14.23C13.9012 104.64 13.5858 104.51 13.3532 104.277C13.1207 104.044 12.99 103.729 12.99 103.4C12.99 103.071 13.1207 102.756 13.3532 102.523C13.5858 102.291 13.9012 102.16 14.23 102.16H21.5C21.8289 102.16 22.1443 102.291 22.3768 102.523C22.6094 102.756 22.74 103.071 22.74 103.4C22.74 103.729 22.6094 104.044 22.3768 104.277C22.1443 104.51 21.8289 104.64 21.5 104.64Z" fill="#FF4344"/>
<path d="M8.68001 104.64H6.03001C5.70114 104.64 5.38574 104.51 5.1532 104.277C4.92065 104.044 4.79001 103.729 4.79001 103.4C4.79001 103.071 4.92065 102.756 5.1532 102.523C5.38574 102.291 5.70114 102.16 6.03001 102.16H8.68001C9.00888 102.16 9.32428 102.291 9.55682 102.523C9.78937 102.756 9.92001 103.071 9.92001 103.4C9.92001 103.729 9.78937 104.044 9.55682 104.277C9.32428 104.51 9.00888 104.64 8.68001 104.64Z" fill="#FF4344"/>
<path d="M37.64 156C37.4862 156 37.3387 155.939 37.23 155.83L35.03 153.56C34.925 153.453 34.8661 153.31 34.8661 153.16C34.8661 153.01 34.925 152.867 35.03 152.76C35.1383 152.654 35.2837 152.595 35.435 152.595C35.5863 152.595 35.7317 152.654 35.84 152.76L38.04 155C38.0932 155.052 38.1355 155.114 38.1644 155.183C38.1932 155.252 38.2081 155.326 38.2081 155.4C38.2081 155.475 38.1932 155.548 38.1644 155.617C38.1355 155.686 38.0932 155.748 38.04 155.8C37.9915 155.86 37.9307 155.909 37.8617 155.943C37.7927 155.978 37.7171 155.997 37.64 156Z" fill="#00A9EC"/>
<path d="M39.75 156C39.6776 156.001 39.6057 155.987 39.5387 155.96C39.4718 155.932 39.411 155.892 39.36 155.84C39.3068 155.788 39.2645 155.726 39.2357 155.657C39.2068 155.588 39.1919 155.515 39.1919 155.44C39.1919 155.366 39.2068 155.292 39.2357 155.223C39.2645 155.155 39.3068 155.092 39.36 155.04L41.56 152.77C41.6686 152.683 41.8052 152.639 41.9442 152.646C42.0831 152.652 42.2148 152.71 42.3144 152.807C42.414 152.904 42.4746 153.034 42.4848 153.173C42.4951 153.312 42.4542 153.449 42.37 153.56L40.17 155.83C40.115 155.885 40.0495 155.929 39.9773 155.958C39.9051 155.987 39.8278 156.001 39.75 156Z" fill="#00A9EC"/>
<path d="M39.75 157.2C39.9038 157.2 40.0513 157.261 40.16 157.37L42.36 159.64C42.4442 159.751 42.4851 159.888 42.4748 160.027C42.4646 160.166 42.4039 160.296 42.3044 160.393C42.2048 160.49 42.0731 160.548 41.9341 160.554C41.7952 160.561 41.6586 160.517 41.55 160.43L39.35 158.16C39.2968 158.108 39.2545 158.046 39.2256 157.977C39.1968 157.908 39.1819 157.834 39.1819 157.76C39.1819 157.685 39.1968 157.612 39.2256 157.543C39.2545 157.474 39.2968 157.412 39.35 157.36C39.4021 157.307 39.4645 157.266 39.5333 157.238C39.6022 157.211 39.6759 157.198 39.75 157.2Z" fill="#00A9EC"/>
<path d="M37.64 157.2C37.7124 157.199 37.7843 157.213 37.8513 157.241C37.9183 157.268 37.9791 157.309 38.03 157.36C38.0832 157.412 38.1255 157.475 38.1544 157.543C38.1832 157.612 38.1981 157.686 38.1981 157.76C38.1981 157.835 38.1832 157.909 38.1544 157.977C38.1255 158.046 38.0832 158.108 38.03 158.16L35.84 160.43C35.7317 160.536 35.5863 160.595 35.435 160.595C35.2837 160.595 35.1383 160.536 35.03 160.43C34.925 160.324 34.8661 160.18 34.8661 160.03C34.8661 159.881 34.925 159.737 35.03 159.63L37.23 157.36C37.3403 157.255 37.4876 157.198 37.64 157.2Z" fill="#00A9EC"/>
<path d="M24.0079 129.791C24.5039 127.553 23.0921 125.337 20.8545 124.841C18.6168 124.345 16.4007 125.757 15.9046 127.994C15.4085 130.232 16.8204 132.448 19.058 132.944C21.2957 133.44 23.5118 132.028 24.0079 129.791Z" fill="#00A9EC"/>
<path d="M18.56 131.74C17.6105 131.74 16.6825 131.458 15.8937 130.929C15.1049 130.401 14.4911 129.65 14.13 128.771C13.769 127.893 13.6771 126.928 13.866 125.997C14.0549 125.067 14.5161 124.213 15.191 123.545C15.8659 122.878 16.7241 122.425 17.6565 122.246C18.589 122.067 19.5536 122.169 20.428 122.539C21.3023 122.91 22.0469 123.531 22.5672 124.325C23.0874 125.12 23.3599 126.051 23.35 127C23.3342 128.261 22.823 129.465 21.9266 130.352C21.0303 131.239 19.821 131.738 18.56 131.74ZM18.56 123.44C17.8651 123.438 17.1852 123.642 16.6059 124.026C16.0266 124.41 15.5739 124.956 15.3048 125.597C15.0358 126.238 14.9623 126.944 15.0938 127.626C15.2253 128.308 15.5558 128.937 16.0437 129.431C16.5316 129.926 17.155 130.266 17.8354 130.407C18.5158 130.548 19.2228 130.484 19.8672 130.224C20.5117 129.964 21.0647 129.52 21.4567 128.946C21.8487 128.372 22.0621 127.695 22.07 127C22.0753 126.535 21.9885 126.074 21.8146 125.643C21.6407 125.212 21.3831 124.82 21.0568 124.489C20.7305 124.158 20.3418 123.895 19.9133 123.715C19.4847 123.535 19.0248 123.441 18.56 123.44Z" fill="#231F20"/>
<path d="M52.3212 35.413C52.7601 33.5532 51.6083 31.6897 49.7485 31.2508C47.8887 30.8118 46.0252 31.9636 45.5862 33.8234C45.1473 35.6832 46.2991 37.5468 48.1589 37.9857C50.0187 38.4247 51.8822 37.2728 52.3212 35.413Z" fill="#FF4344"/>
<path d="M47.78 37C46.9889 37 46.2155 36.7654 45.5577 36.3259C44.8999 35.8864 44.3872 35.2616 44.0845 34.5307C43.7817 33.7998 43.7025 32.9956 43.8569 32.2196C44.0112 31.4437 44.3922 30.731 44.9516 30.1716C45.511 29.6122 46.2237 29.2312 46.9996 29.0769C47.7756 28.9225 48.5798 29.0017 49.3107 29.3045C50.0416 29.6072 50.6664 30.1199 51.1059 30.7777C51.5454 31.4355 51.78 32.2089 51.78 33C51.78 34.0609 51.3586 35.0783 50.6084 35.8284C49.8583 36.5786 48.8409 37 47.78 37ZM47.78 30.07C47.1981 30.07 46.6293 30.2427 46.1456 30.5662C45.6619 30.8897 45.2851 31.3494 45.0629 31.8872C44.8406 32.425 44.783 33.0167 44.8972 33.5873C45.0115 34.1578 45.2925 34.6817 45.7047 35.0924C46.1168 35.5032 46.6416 35.7824 47.2126 35.8947C47.7836 36.007 48.375 35.9474 48.912 35.7233C49.4491 35.4993 49.9075 35.1209 50.2294 34.6361C50.5512 34.1513 50.722 33.5819 50.72 33C50.7213 32.6131 50.6462 32.2297 50.4991 31.8718C50.3519 31.514 50.1356 31.1887 49.8624 30.9146C49.5893 30.6406 49.2648 30.4231 48.9074 30.2747C48.5501 30.1264 48.1669 30.05 47.78 30.05V30.07Z" fill="#231F20"/>
<path d="M32.5 36.8498H27.29C27.0566 36.8498 26.8328 36.7571 26.6677 36.5921C26.5027 36.4271 26.41 36.2032 26.41 35.9698C26.41 35.7365 26.5027 35.5126 26.6677 35.3476C26.8328 35.1826 27.0566 35.0898 27.29 35.0898H32.5C32.7334 35.0898 32.9572 35.1826 33.1223 35.3476C33.2873 35.5126 33.38 35.7365 33.38 35.9698C33.38 36.2032 33.2873 36.4271 33.1223 36.5921C32.9572 36.7571 32.7334 36.8498 32.5 36.8498Z" fill="#231F20"/>
<path d="M23.35 36.8498H21.5C21.2666 36.8498 21.0428 36.7571 20.8777 36.5921C20.7127 36.4271 20.62 36.2032 20.62 35.9698C20.62 35.7365 20.7127 35.5126 20.8777 35.3476C21.0428 35.1826 21.2666 35.0898 21.5 35.0898H23.38C23.6134 35.0898 23.8372 35.1826 24.0022 35.3476C24.1673 35.5126 24.26 35.7365 24.26 35.9698C24.26 36.2032 24.1673 36.4271 24.0022 36.5921C23.8372 36.7571 23.6134 36.8498 23.38 36.8498H23.35Z" fill="#231F20"/>
<path d="M193.92 86.7651C194.386 84.6114 193.019 82.4874 190.865 82.0209C188.711 81.5545 186.587 82.9223 186.121 85.076C185.654 87.2297 187.022 89.3537 189.176 89.8201C191.329 90.2866 193.453 88.9188 193.92 86.7651Z" fill="#00A9EC"/>
<path d="M188.69 88.6399C187.78 88.6399 186.891 88.3702 186.134 87.8647C185.378 87.3592 184.788 86.6408 184.44 85.8003C184.092 84.9597 184.001 84.0348 184.178 83.1425C184.356 82.2502 184.794 81.4306 185.437 80.7873C186.081 80.1439 186.9 79.7058 187.793 79.5283C188.685 79.3508 189.61 79.4419 190.45 79.7901C191.291 80.1383 192.009 80.7279 192.515 81.4843C193.02 82.2408 193.29 83.1301 193.29 84.0399C193.287 85.2591 192.802 86.4276 191.94 87.2897C191.078 88.1518 189.909 88.6373 188.69 88.6399ZM188.69 80.6399C188.02 80.638 187.365 80.835 186.807 81.2061C186.25 81.5772 185.815 82.1056 185.558 82.7242C185.302 83.3428 185.234 84.0237 185.365 84.6806C185.496 85.3374 185.819 85.9406 186.294 86.4135C186.768 86.8864 187.372 87.2077 188.029 87.3367C188.687 87.4656 189.367 87.3964 189.985 87.1378C190.603 86.8792 191.13 86.4429 191.499 85.8842C191.869 85.3255 192.064 84.6697 192.06 83.9999C192.049 83.1131 191.69 82.2662 191.059 81.6428C190.428 81.0194 189.577 80.6699 188.69 80.6699V80.6399Z" fill="#231F20"/>
<path d="M183.5 54.9402H176.87C176.57 54.9402 176.283 54.8211 176.071 54.6092C175.859 54.3973 175.74 54.1099 175.74 53.8102C175.74 53.5105 175.859 53.2231 176.071 53.0111C176.283 52.7992 176.57 52.6802 176.87 52.6802H183.5C183.8 52.6802 184.087 52.7992 184.299 53.0111C184.511 53.2231 184.63 53.5105 184.63 53.8102C184.63 54.1099 184.511 54.3973 184.299 54.6092C184.087 54.8211 183.8 54.9402 183.5 54.9402Z" fill="#231F20"/>
<path d="M171.85 54.9402H169.44C169.14 54.9402 168.853 54.8211 168.641 54.6092C168.429 54.3973 168.31 54.1099 168.31 53.8102C168.31 53.5105 168.429 53.2231 168.641 53.0111C168.853 52.7992 169.14 52.6802 169.44 52.6802H171.85C172.15 52.6802 172.437 52.7992 172.649 53.0111C172.861 53.2231 172.98 53.5105 172.98 53.8102C172.98 54.1099 172.861 54.3973 172.649 54.6092C172.437 54.8211 172.15 54.9402 171.85 54.9402Z" fill="#231F20"/>
<path d="M157.2 167.57H150.58C150.28 167.57 149.993 167.451 149.781 167.239C149.569 167.027 149.45 166.74 149.45 166.44C149.45 166.14 149.569 165.853 149.781 165.641C149.993 165.429 150.28 165.31 150.58 165.31H157.2C157.5 165.31 157.787 165.429 157.999 165.641C158.211 165.853 158.33 166.14 158.33 166.44C158.33 166.74 158.211 167.027 157.999 167.239C157.787 167.451 157.5 167.57 157.2 167.57Z" fill="#FF4344"/>
<path d="M145.5 167.57H143.09C142.79 167.57 142.503 167.451 142.291 167.239C142.079 167.027 141.96 166.74 141.96 166.44C141.96 166.14 142.079 165.853 142.291 165.641C142.503 165.429 142.79 165.31 143.09 165.31H145.5C145.8 165.31 146.087 165.429 146.299 165.641C146.511 165.853 146.63 166.14 146.63 166.44C146.63 166.74 146.511 167.027 146.299 167.239C146.087 167.451 145.8 167.57 145.5 167.57Z" fill="#FF4344"/>
<path d="M103.37 162.2C137.264 162.2 164.74 134.724 164.74 100.83C164.74 66.9362 137.264 39.46 103.37 39.46C69.4763 39.46 42 66.9362 42 100.83C42 134.724 69.4763 162.2 103.37 162.2Z" fill="#00A9EC"/>
<path d="M103.37 159.63C135.844 159.63 162.17 133.305 162.17 100.83C162.17 68.3559 135.844 42.0303 103.37 42.0303C70.8957 42.0303 44.57 68.3559 44.57 100.83C44.57 133.305 70.8957 159.63 103.37 159.63Z" fill="#F8FDFF"/>
<path d="M55.72 62.8201C55.3209 62.816 54.9311 62.6988 54.5959 62.4821C54.2608 62.2654 53.9939 61.9581 53.8264 61.5958C53.6589 61.2335 53.5975 60.8311 53.6495 60.4354C53.7015 60.0397 53.8646 59.6668 54.12 59.3601C55.5792 57.6143 57.1279 55.9454 58.76 54.3601C58.9493 54.1361 59.1835 53.9543 59.4473 53.8263C59.7112 53.6983 59.9989 53.627 60.292 53.617C60.5851 53.6069 60.877 53.6584 61.149 53.768C61.421 53.8777 61.667 54.0431 61.8712 54.2536C62.0754 54.4641 62.2332 54.715 62.3345 54.9902C62.4358 55.2654 62.4784 55.5588 62.4594 55.8514C62.4405 56.1441 62.3604 56.4295 62.2245 56.6893C62.0885 56.9492 61.8996 57.1777 61.67 57.3601C60.1466 58.8366 58.6981 60.3885 57.33 62.0101C57.1377 62.2551 56.8936 62.4547 56.6154 62.5947C56.3371 62.7347 56.0314 62.8116 55.72 62.8201Z" fill="#231F20"/>
<path d="M104.86 168.54C91.6332 168.564 78.7042 164.613 67.75 157.2C60.6756 152.433 54.5877 146.345 49.82 139.27C42.3734 128.22 38.4228 115.185 38.4816 101.859C38.5405 88.5341 42.606 75.5345 50.15 64.5502C50.467 64.0914 50.9532 63.7772 51.5017 63.6769C52.0503 63.5766 52.6162 63.6983 53.075 64.0152C53.5338 64.3321 53.848 64.8183 53.9483 65.3669C54.0486 65.9154 53.9269 66.4814 53.61 66.9402C44.488 80.2634 40.9055 96.6122 43.6201 112.529C46.3347 128.446 55.1335 142.683 68.1559 152.23C81.1782 161.776 97.403 165.884 113.399 163.684C129.395 161.484 143.909 153.148 153.87 140.44C154.22 140.026 154.717 139.763 155.257 139.707C155.797 139.651 156.337 139.806 156.765 140.139C157.193 140.473 157.475 140.959 157.553 141.496C157.63 142.033 157.496 142.579 157.18 143.02C150.981 150.98 143.044 157.418 133.976 161.841C124.908 166.264 114.949 168.555 104.86 168.54Z" fill="#231F20"/>
<path d="M161.72 134.27C161.372 134.272 161.029 134.19 160.72 134.03C160.228 133.769 159.86 133.323 159.695 132.791C159.53 132.259 159.582 131.684 159.84 131.19C164.551 122.249 167.015 112.296 167.02 102.19C167.029 97.7574 166.569 93.3362 165.65 89C165.574 88.7245 165.556 88.4364 165.596 88.1535C165.635 87.8705 165.732 87.5986 165.88 87.3545C166.029 87.1103 166.225 86.8989 166.458 86.7334C166.691 86.5678 166.955 86.4514 167.235 86.3915C167.514 86.3315 167.803 86.3292 168.083 86.3847C168.363 86.4401 168.629 86.5522 168.865 86.714C169.1 86.8758 169.3 87.0839 169.452 87.3257C169.605 87.5674 169.706 87.8377 169.75 88.12C173.059 103.378 170.873 119.315 163.58 133.12C163.404 133.463 163.137 133.751 162.81 133.953C162.482 134.156 162.105 134.265 161.72 134.27Z" fill="#231F20"/>
<path d="M163.91 78.8098C163.499 78.81 163.098 78.6898 162.755 78.4641C162.412 78.2383 162.142 77.917 161.98 77.5398C160.872 74.9767 159.592 72.4911 158.15 70.0998C157.862 69.6224 157.776 69.0503 157.91 68.5092C158.044 67.9682 158.388 67.5026 158.865 67.2148C159.342 66.9271 159.915 66.8407 160.456 66.9748C160.997 67.1089 161.462 67.4524 161.75 67.9298C163.289 70.4804 164.653 73.1333 165.83 75.8698C166.051 76.3804 166.06 76.9578 165.856 77.4753C165.652 77.9928 165.25 78.408 164.74 78.6298C164.479 78.7485 164.196 78.8099 163.91 78.8098Z" fill="#231F20"/>
<path d="M155.43 64.5699C155.112 64.5707 154.798 64.4991 154.513 64.3605C154.227 64.2219 153.976 64.0199 153.78 63.7699C143.738 50.9728 129.082 42.6191 112.953 40.4993C96.825 38.3795 80.5081 42.6624 67.5 52.4299C67.282 52.616 67.0281 52.7555 66.7541 52.8398C66.4801 52.9242 66.1917 52.9515 65.9068 52.9201C65.6218 52.8888 65.3463 52.7994 65.0972 52.6575C64.8481 52.5156 64.6306 52.3242 64.4583 52.0951C64.286 51.866 64.1624 51.6041 64.0951 51.3254C64.0278 51.0467 64.0184 50.7572 64.0672 50.4747C64.1161 50.1922 64.2223 49.9227 64.3793 49.6828C64.5363 49.443 64.7407 49.2377 64.98 49.0799C76.4656 40.4276 90.4601 35.7581 104.84 35.7799C114.901 35.7718 124.832 38.0547 133.88 42.4556C142.928 46.8565 150.855 53.2597 157.06 61.1799C157.305 61.4885 157.458 61.8603 157.501 62.2522C157.544 62.6441 157.475 63.0401 157.303 63.3946C157.13 63.749 156.861 64.0475 156.526 64.2555C156.191 64.4634 155.804 64.5724 155.41 64.5699H155.43Z" fill="#231F20"/>
<path d="M95.23 25.58C94.8756 25.582 94.5285 25.4787 94.2328 25.2832C93.9371 25.0877 93.7062 24.8088 93.5691 24.4819C93.4321 24.155 93.3952 23.7948 93.4632 23.4469C93.5311 23.099 93.7008 22.7792 93.9507 22.5278C94.2007 22.2765 94.5196 22.105 94.8671 22.0351C95.2146 21.9653 95.575 22.0001 95.9027 22.1353C96.2303 22.2705 96.5105 22.4999 96.7076 22.7945C96.9047 23.089 97.01 23.4355 97.01 23.79C97.01 24.263 96.8228 24.7168 96.4893 25.0522C96.1557 25.3876 95.703 25.5773 95.23 25.58ZM95.23 23.06C95.0828 23.058 94.9384 23.1 94.8152 23.1805C94.6919 23.2611 94.5956 23.3765 94.5383 23.5121C94.4811 23.6478 94.4656 23.7974 94.4938 23.9418C94.522 24.0863 94.5927 24.2191 94.6968 24.3232C94.8009 24.4273 94.9337 24.4979 95.0781 24.5262C95.2226 24.5544 95.3722 24.5389 95.5078 24.4817C95.6434 24.4244 95.7589 24.328 95.8395 24.2048C95.92 24.0816 95.962 23.9372 95.96 23.79C95.9574 23.5972 95.8797 23.413 95.7433 23.2766C95.607 23.1403 95.4228 23.0626 95.23 23.06Z" fill="#231F20"/>
<path d="M183.5 108.21C183.146 108.21 182.799 108.105 182.504 107.908C182.21 107.71 181.98 107.43 181.845 107.103C181.71 106.775 181.675 106.414 181.745 106.067C181.815 105.719 181.987 105.401 182.238 105.151C182.489 104.901 182.809 104.731 183.157 104.663C183.505 104.595 183.865 104.632 184.192 104.769C184.519 104.906 184.798 105.137 184.993 105.433C185.189 105.728 185.292 106.075 185.29 106.43C185.29 106.664 185.244 106.897 185.154 107.113C185.063 107.33 184.931 107.527 184.765 107.692C184.599 107.858 184.401 107.988 184.184 108.077C183.967 108.166 183.735 108.211 183.5 108.21ZM183.5 105.69C183.354 105.69 183.211 105.733 183.089 105.815C182.967 105.896 182.872 106.011 182.816 106.147C182.76 106.282 182.746 106.431 182.774 106.574C182.803 106.718 182.873 106.85 182.977 106.953C183.08 107.057 183.212 107.127 183.356 107.156C183.499 107.184 183.648 107.17 183.783 107.114C183.918 107.058 184.034 106.963 184.115 106.841C184.197 106.719 184.24 106.576 184.24 106.43C184.24 106.234 184.162 106.045 184.023 105.907C183.884 105.768 183.696 105.69 183.5 105.69Z" fill="#FF4344"/>
<path d="M64.38 171.05C63.884 171.048 63.3997 170.899 62.9883 170.622C62.5768 170.345 62.2567 169.953 62.0682 169.494C61.8798 169.035 61.8315 168.531 61.9295 168.044C62.0274 167.558 62.2673 167.112 62.6187 166.762C62.9701 166.412 63.4174 166.174 63.904 166.078C64.3906 165.982 64.8948 166.032 65.3528 166.222C65.8109 166.413 66.2023 166.734 66.4777 167.147C66.753 167.559 66.9 168.044 66.9 168.54C66.8974 169.207 66.6307 169.845 66.1584 170.316C65.6861 170.786 65.0466 171.05 64.38 171.05ZM64.38 167.5C64.1822 167.5 63.9889 167.559 63.8244 167.669C63.66 167.779 63.5318 167.935 63.4561 168.118C63.3804 168.3 63.3606 168.501 63.3992 168.695C63.4378 168.889 63.533 169.068 63.6729 169.207C63.8128 169.347 63.9909 169.442 64.1849 169.481C64.3789 169.52 64.58 169.5 64.7627 169.424C64.9454 169.348 65.1016 169.22 65.2115 169.056C65.3214 168.891 65.38 168.698 65.38 168.5C65.38 168.235 65.2746 167.981 65.0871 167.793C64.8996 167.606 64.6452 167.5 64.38 167.5Z" fill="#FF4344"/>
<path d="M28.5 91.8703C28.0258 91.8683 27.5627 91.7259 27.1694 91.461C26.776 91.1961 26.47 90.8205 26.2898 90.3818C26.1097 89.9431 26.0636 89.4609 26.1574 88.996C26.2511 88.5311 26.4805 88.1044 26.8165 87.7697C27.1525 87.4351 27.5802 87.2075 28.0455 87.1157C28.5107 87.0239 28.9928 87.072 29.4308 87.254C29.8687 87.4359 30.243 87.7435 30.5062 88.138C30.7695 88.5324 30.91 88.996 30.91 89.4703C30.91 89.7863 30.8476 90.0992 30.7264 90.391C30.6051 90.6829 30.4275 90.9479 30.2035 91.1709C29.9796 91.3939 29.7139 91.5705 29.4215 91.6905C29.1292 91.8105 28.816 91.8716 28.5 91.8703ZM28.5 88.1203C28.2334 88.1223 27.9734 88.2031 27.7527 88.3527C27.5321 88.5022 27.3606 88.7137 27.2599 88.9606C27.1593 89.2074 27.134 89.4785 27.1872 89.7397C27.2404 90.001 27.3698 90.2406 27.559 90.4284C27.7481 90.6162 27.9887 90.7438 28.2503 90.795C28.5119 90.8463 28.7828 90.819 29.0289 90.7165C29.275 90.6141 29.4853 90.441 29.6332 90.2193C29.7811 89.9975 29.86 89.7369 29.86 89.4703C29.86 89.2922 29.8248 89.1158 29.7563 88.9514C29.6878 88.7869 29.5875 88.6376 29.4611 88.5121C29.3347 88.3867 29.1847 88.2874 29.0197 88.2202C28.8548 88.1529 28.6781 88.119 28.5 88.1203Z" fill="#231F20"/>
<path d="M181.39 150.28L176.24 145.13C176.007 144.896 175.875 144.58 175.875 144.25C175.875 143.92 176.007 143.603 176.24 143.37C176.473 143.136 176.79 143.005 177.12 143.005C177.45 143.005 177.767 143.136 178 143.37L183.15 148.53C183.265 148.645 183.356 148.783 183.418 148.933C183.48 149.084 183.511 149.245 183.511 149.408C183.511 149.571 183.478 149.733 183.415 149.883C183.352 150.033 183.261 150.17 183.145 150.285C183.029 150.4 182.892 150.491 182.742 150.553C182.591 150.615 182.429 150.646 182.266 150.646C182.103 150.645 181.942 150.613 181.792 150.55C181.641 150.487 181.505 150.395 181.39 150.28Z" fill="#FF4344"/>
<path d="M176.24 148.53L181.39 143.37C181.625 143.14 181.941 143.012 182.27 143.012C182.599 143.012 182.915 143.14 183.15 143.37C183.266 143.485 183.358 143.622 183.421 143.773C183.484 143.924 183.516 144.086 183.516 144.25C183.516 144.414 183.484 144.576 183.421 144.727C183.358 144.878 183.266 145.015 183.15 145.13L178 150.28C177.768 150.513 177.453 150.645 177.124 150.646C176.794 150.647 176.478 150.517 176.245 150.285C176.012 150.053 175.88 149.738 175.879 149.408C175.878 149.079 176.008 148.763 176.24 148.53Z" fill="#FF4344"/>
<path d="M194.09 139.66L185.65 131.21C185.534 131.095 185.443 130.958 185.38 130.808C185.317 130.658 185.285 130.496 185.284 130.333C185.284 130.17 185.315 130.009 185.377 129.858C185.439 129.707 185.53 129.57 185.645 129.455C185.76 129.339 185.896 129.247 186.047 129.185C186.197 129.122 186.359 129.089 186.522 129.089C186.684 129.088 186.846 129.12 186.997 129.182C187.147 129.244 187.284 129.335 187.4 129.45L195.85 137.9C195.966 138.015 196.058 138.152 196.121 138.303C196.184 138.454 196.216 138.616 196.216 138.78C196.216 138.943 196.184 139.105 196.121 139.256C196.058 139.407 195.966 139.545 195.85 139.66C195.615 139.89 195.299 140.018 194.97 140.018C194.641 140.018 194.325 139.89 194.09 139.66Z" fill="#FF4344"/>
<path d="M185.65 137.9L194.09 129.45C194.325 129.22 194.641 129.092 194.97 129.092C195.299 129.092 195.615 129.22 195.85 129.45C195.966 129.565 196.058 129.702 196.121 129.853C196.184 130.004 196.216 130.166 196.216 130.33C196.216 130.494 196.184 130.656 196.121 130.807C196.058 130.958 195.966 131.095 195.85 131.21L187.4 139.66C187.167 139.892 186.851 140.022 186.522 140.021C186.192 140.02 185.877 139.888 185.645 139.655C185.413 139.422 185.283 139.106 185.284 138.776C185.285 138.447 185.417 138.132 185.65 137.9Z" fill="#FF4344"/>
<path d="M37.56 59.3701L32.41 54.2201C32.1803 53.9848 32.0518 53.669 32.0518 53.3401C32.0518 53.0113 32.1803 52.6955 32.41 52.4601C32.5253 52.344 32.6624 52.2519 32.8134 52.189C32.9644 52.1261 33.1264 52.0938 33.29 52.0938C33.4536 52.0938 33.6156 52.1261 33.7666 52.189C33.9177 52.2519 34.0547 52.344 34.17 52.4601L39.32 57.6101C39.4361 57.7254 39.5283 57.8625 39.5911 58.0135C39.654 58.1646 39.6864 58.3265 39.6864 58.4901C39.6864 58.6537 39.654 58.8157 39.5911 58.9668C39.5283 59.1178 39.4361 59.2549 39.32 59.3701C39.0847 59.5998 38.7689 59.7284 38.44 59.7284C38.1112 59.7284 37.7954 59.5998 37.56 59.3701Z" fill="#FF4344"/>
<path d="M32.41 57.6102L37.56 52.4602C37.7934 52.2268 38.1099 52.0957 38.44 52.0957C38.7701 52.0957 39.0866 52.2268 39.32 52.4602C39.5534 52.6936 39.6845 53.0101 39.6845 53.3402C39.6845 53.6703 39.5534 53.9868 39.32 54.2202L34.17 59.3702C34.0544 59.4858 33.9173 59.5774 33.7663 59.64C33.6153 59.7025 33.4534 59.7347 33.29 59.7347C33.1266 59.7347 32.9647 59.7025 32.8138 59.64C32.6628 59.5774 32.5256 59.4858 32.41 59.3702C32.2944 59.2546 32.2028 59.1175 32.1402 58.9665C32.0777 58.8155 32.0455 58.6536 32.0455 58.4902C32.0455 58.3268 32.0777 58.1649 32.1402 58.014C32.2028 57.863 32.2944 57.7258 32.41 57.6102Z" fill="#FF4344"/>
<path d="M116.36 20.4601L111.21 15.3101C111.094 15.1949 111.002 15.0578 110.939 14.9067C110.876 14.7557 110.844 14.5937 110.844 14.4301C110.844 14.2665 110.876 14.1045 110.939 13.9535C111.002 13.8025 111.094 13.6654 111.21 13.5501C111.445 13.3205 111.761 13.1919 112.09 13.1919C112.419 13.1919 112.735 13.3205 112.97 13.5501L118.12 18.7101C118.235 18.8257 118.326 18.9627 118.388 19.1135C118.45 19.2642 118.481 19.4257 118.481 19.5887C118.481 19.7516 118.448 19.9129 118.385 20.0633C118.322 20.2137 118.231 20.3502 118.115 20.4651C117.999 20.58 117.862 20.671 117.712 20.733C117.561 20.7949 117.399 20.8266 117.236 20.8261C117.074 20.8256 116.912 20.7931 116.762 20.7303C116.611 20.6675 116.475 20.5757 116.36 20.4601Z" fill="#FF4344"/>
<path d="M111.21 18.7101L116.36 13.5501C116.476 13.4345 116.613 13.3428 116.764 13.2803C116.915 13.2177 117.077 13.1855 117.24 13.1855C117.403 13.1855 117.565 13.2177 117.716 13.2803C117.867 13.3428 118.004 13.4345 118.12 13.5501C118.236 13.6656 118.327 13.8028 118.39 13.9538C118.452 14.1048 118.485 14.2666 118.485 14.4301C118.485 14.5935 118.452 14.7553 118.39 14.9063C118.327 15.0573 118.236 15.1945 118.12 15.3101L112.97 20.4601C112.738 20.6934 112.423 20.8251 112.094 20.826C111.764 20.827 111.448 20.6971 111.215 20.4651C110.982 20.233 110.85 19.9177 110.849 19.5886C110.848 19.2595 110.978 18.9434 111.21 18.7101Z" fill="#FF4344"/>
<path d="M26.21 73.1701L17.76 64.7301C17.5304 64.4948 17.4018 64.1789 17.4018 63.8501C17.4018 63.5213 17.5304 63.2055 17.76 62.9701C17.9959 62.7457 18.3106 62.623 18.6362 62.6286C18.9617 62.6342 19.272 62.7677 19.5 63.0001L27.95 71.4501C28.1821 71.6835 28.3119 71.9995 28.311 72.3286C28.3101 72.6578 28.1784 72.973 27.945 73.2051C27.7116 73.4372 27.3956 73.567 27.0665 73.5661C26.7374 73.5651 26.4221 73.4335 26.19 73.2001L26.21 73.1701Z" fill="#FF4344"/>
<path d="M17.76 71.4202L26.21 63.0002C26.3253 62.8841 26.4624 62.7919 26.6134 62.729C26.7644 62.6662 26.9264 62.6338 27.09 62.6338C27.2536 62.6338 27.4156 62.6662 27.5666 62.729C27.7176 62.7919 27.8547 62.8841 27.97 63.0002C28.1997 63.2355 28.3282 63.5513 28.3282 63.8802C28.3282 64.209 28.1997 64.5248 27.97 64.7602L19.5 73.1702C19.2679 73.4036 18.9527 73.5352 18.6235 73.5361C18.2944 73.5371 17.9784 73.4072 17.745 73.1752C17.5116 72.9431 17.38 72.6278 17.379 72.2987C17.3781 71.9696 17.5079 71.6536 17.74 71.4202H17.76Z" fill="#FF4344"/>
<path d="M115.14 118.78L85.42 89.0602C85.0102 88.6554 84.6845 88.1734 84.4616 87.6422C84.2387 87.1109 84.1231 86.5409 84.1213 85.9648C84.1196 85.3887 84.2318 84.8179 84.4514 84.2853C84.6711 83.7527 84.9939 83.2689 85.4012 82.8615C85.8086 82.4541 86.2925 82.1313 86.8251 81.9117C87.3577 81.692 87.9284 81.5798 88.5045 81.5816C89.0806 81.5833 89.6507 81.6989 90.1819 81.9218C90.7132 82.1447 91.1951 82.4704 91.6 82.8802L121.33 112.6C122.15 113.421 122.609 114.534 122.608 115.694C122.608 116.854 122.146 117.966 121.325 118.785C120.504 119.605 119.391 120.065 118.231 120.064C117.072 120.063 115.96 119.601 115.14 118.78Z" fill="#FF4344"/>
<path d="M85.42 112.6L115.14 82.8801C115.96 82.0593 117.072 81.5976 118.231 81.5967C119.391 81.5957 120.504 82.0556 121.325 82.8751C122.146 83.6947 122.608 84.8067 122.608 85.9666C122.609 87.1265 122.15 88.2393 121.33 89.0601L91.6 118.78C91.1951 119.19 90.7132 119.516 90.1819 119.739C89.6507 119.961 89.0806 120.077 88.5045 120.079C87.9284 120.081 87.3577 119.968 86.8251 119.749C86.2925 119.529 85.8086 119.206 85.4012 118.799C84.9939 118.392 84.6711 117.908 84.4514 117.375C84.2318 116.842 84.1196 116.272 84.1213 115.696C84.1231 115.12 84.2387 114.549 84.4616 114.018C84.6845 113.487 85.0102 113.005 85.42 112.6Z" fill="#FF4344"/>
<defs>
<radialGradient id="paint0_radial_736_751" cx="0" cy="0" r="1" gradientUnits="userSpaceOnUse" gradientTransform="translate(105.312 176.141) scale(71.0528 7.2163)">
<stop stop-color="#231F20"/>
<stop offset="0.04" stop-color="#3D3A3B"/>
<stop offset="0.13" stop-color="#6A6868"/>
<stop offset="0.22" stop-color="#929091"/>
<stop offset="0.32" stop-color="#B4B3B3"/>
<stop offset="0.42" stop-color="#CFCECF"/>
<stop offset="0.53" stop-color="#E5E4E4"/>
<stop offset="0.65" stop-color="#F3F3F3"/>
<stop offset="0.79" stop-color="#FCFCFC"/>
<stop offset="1" stop-color="white"/>
</radialGradient>
</defs>
</svg>
