<svg width="27" height="26" viewBox="0 0 27 26" fill="none" xmlns="http://www.w3.org/2000/svg">
<path d="M8.34521 12.3335L8.34521 7.00016C8.34521 4.05465 10.733 1.66683 13.6785 1.66683V1.66683C16.6241 1.66683 19.0119 4.05465 19.0119 7.00016L19.0119 12.3335" stroke="#404040" stroke-width="2" stroke-linecap="round"/>
<path d="M2.70639 12.0013C2.85147 10.2604 2.92401 9.38997 3.49809 8.86173C4.07218 8.3335 4.94564 8.3335 6.69258 8.3335H20.6648C22.4118 8.3335 23.2852 8.3335 23.8593 8.86173C24.4334 9.38997 24.506 10.2604 24.651 12.0013L25.4982 22.1674C25.5827 23.1809 25.6249 23.6877 25.3278 24.0106C25.0307 24.3335 24.5222 24.3335 23.5051 24.3335H3.85231C2.83526 24.3335 2.32673 24.3335 2.02963 24.0106C1.73253 23.6877 1.77476 23.1809 1.85922 22.1674L2.70639 12.0013Z" stroke="#404040" stroke-width="2"/>
</svg>
