<svg width="22" height="28" viewBox="0 0 22 28" fill="none" xmlns="http://www.w3.org/2000/svg">
<path fill-rule="evenodd" clip-rule="evenodd" d="M21.6787 22.2969C21.6787 26.6666 15.6863 27.1717 11.18 27.1717L10.8576 27.1714C7.98656 27.1644 0.678711 26.9832 0.678711 22.2704C0.678711 17.9899 6.43031 17.4178 10.9023 17.3962L11.5025 17.3958C14.3733 17.4028 21.6787 17.5841 21.6787 22.2969ZM11.18 19.3842C5.53098 19.3842 2.66735 20.3547 2.66735 22.2704C2.66735 24.2033 5.53098 25.1831 11.18 25.1831C16.8278 25.1831 19.6901 24.2126 19.6901 22.2969C19.6901 20.3639 16.8278 19.3842 11.18 19.3842ZM11.18 0.828369C15.0619 0.828369 18.2185 3.98632 18.2185 7.86814C18.2185 11.75 15.0619 14.9066 11.18 14.9066H11.1376C7.26375 14.8947 4.12568 11.7354 4.1389 7.86416C4.1389 3.98632 7.29689 0.828369 11.18 0.828369ZM11.18 2.72155C8.34159 2.72155 6.03209 5.02969 6.03209 7.86814C6.02284 10.6973 8.31507 13.0041 11.1416 13.0147L11.18 13.9613V13.0147C14.0172 13.0147 16.3253 10.7053 16.3253 7.86814C16.3253 5.02969 14.0172 2.72155 11.18 2.72155Z" fill="#404040"/>
</svg>
