<svg width="18" height="18" viewBox="0 0 18 18" fill="none" xmlns="http://www.w3.org/2000/svg">
<path d="M5.33579 15.6642C5.00773 15.3362 4.87175 14.9264 4.80938 14.4625C4.74997 14.0207 4.74998 13.4623 4.75 12.7853L4.75 12.75V5.25L4.75 5.21472C4.74998 4.53765 4.74997 3.97935 4.80938 3.53747C4.87175 3.07355 5.00773 2.66384 5.33579 2.33579C5.66384 2.00773 6.07355 1.87175 6.53747 1.80938C6.97935 1.74997 7.53766 1.74998 8.21473 1.75H8.25H9.75H9.78527C10.4623 1.74998 11.0206 1.74997 11.4625 1.80938C11.9264 1.87175 12.3362 2.00773 12.6642 2.33579C12.9923 2.66384 13.1283 3.07355 13.1906 3.53747C13.25 3.97935 13.25 4.53766 13.25 5.21473L13.25 5.25V12.75L13.25 12.7853C13.25 13.4623 13.25 14.0207 13.1906 14.4625C13.1283 14.9264 12.9923 15.3362 12.6642 15.6642C12.3362 15.9923 11.9264 16.1283 11.4625 16.1906C11.0207 16.25 10.4623 16.25 9.78528 16.25L9.75 16.25H8.25L8.21471 16.25C7.53765 16.25 6.97935 16.25 6.53747 16.1906C6.07355 16.1283 5.66384 15.9923 5.33579 15.6642Z" stroke="#404040"/>
<ellipse cx="9" cy="14.25" rx="0.750001" ry="0.749999" fill="#404040"/>
<path d="M5.25 12H12.75" stroke="#404040"/>
</svg>
