<svg width="14" height="18" viewBox="0 0 14 18" fill="none" xmlns="http://www.w3.org/2000/svg">
<path fill-rule="evenodd" clip-rule="evenodd" d="M6.7853 0.000115536C7.20006 0.00592697 7.67912 0.22922 7.93756 0.755293L8.09487 1.07554C10.4953 5.96144 12.4521 11.0402 13.9409 16.2504C14.1376 16.9386 13.8135 17.5224 13.4087 17.793C13.0129 18.0576 12.4682 18.093 12.0071 17.7552L7.73799 14.6282C7.26625 14.2826 6.62591 14.2817 6.18397 14.5997L2.00161 17.6082C1.53021 17.9473 0.983196 17.8818 0.599174 17.6193C0.213472 17.3557 -0.130889 16.7875 0.0491475 16.094C1.392 10.921 3.20704 5.89211 5.47184 1.06836L5.62021 0.752393C5.87685 0.205696 6.37171 -0.00567532 6.7853 0.000115536ZM6.77883 1.55637L6.66622 1.79605C4.49424 6.42218 2.7448 11.2385 1.43767 16.1892L5.46059 13.2953C6.36254 12.6465 7.57079 12.6715 8.47066 13.3306L12.5307 16.3046C11.0855 11.3402 9.2059 6.49652 6.91275 1.82907L6.77883 1.55637Z" fill="#FFD02E"/>
</svg>
