<svg width="25" height="25" viewBox="0 0 25 25" fill="none" xmlns="http://www.w3.org/2000/svg">
<path d="M15.8561 2.63192L16.6801 3.19855L17.3362 2.24446L16.2968 1.73423L15.8561 2.63192ZM5.38278 8.38435L4.38889 8.27392L5.38278 8.38435ZM5.05358 11.3471L4.0597 11.2367L5.05358 11.3471ZM4.90775 12.4784L5.89134 12.6588L4.90775 12.4784ZM4.17277 14.6558L3.28105 14.2032L3.28105 14.2032L4.17277 14.6558ZM3.6032 15.644L2.7457 15.1295L2.7457 15.1295L3.6032 15.644ZM2.69255 17.1617L1.83506 16.6472H1.83506L2.69255 17.1617ZM1.77114 19.6834L2.64134 19.1907L2.64134 19.1907L1.77114 19.6834ZM23.5119 19.6834L22.6417 19.1907L22.6417 19.1907L23.5119 19.6834ZM22.5905 17.1617L23.448 16.6472L22.5905 17.1617ZM21.6799 15.644L22.5374 15.1295L22.5332 15.1225L21.6799 15.644ZM21.6798 15.6439L20.8223 16.1584L20.8265 16.1653L21.6798 15.6439ZM21.1103 14.6558L22.002 14.2032L22.002 14.2032L21.1103 14.6558ZM20.3753 12.4784L19.3917 12.6588V12.6588L20.3753 12.4784ZM20.2375 11.419L21.2313 11.3085L21.1367 10.4571L20.2809 10.4199L20.2375 11.419ZM18.2294 4.4876L18.9941 3.84322L18.0829 2.76196L17.367 3.98127L18.2294 4.4876ZM19.8973 8.35786L19.6732 9.33242L21.0521 9.64957L20.8908 8.24386L19.8973 8.35786ZM12.6415 2.88745C13.6345 2.88745 14.5764 3.11773 15.4155 3.52961L16.2968 1.73423C15.1895 1.19072 13.9467 0.887451 12.6415 0.887451V2.88745ZM6.37666 8.49479C6.73136 5.30252 9.42963 2.88745 12.6415 2.88745V0.887451C8.41053 0.887451 4.85613 4.0688 4.38889 8.27392L6.37666 8.49479ZM6.04746 11.4576L6.37666 8.49479L4.38889 8.27392L4.0597 11.2367L6.04746 11.4576ZM5.89134 12.6588C5.95026 12.3375 5.98579 12.0127 6.04746 11.4576L4.0597 11.2367C3.99504 11.8186 3.9674 12.0622 3.92416 12.298L5.89134 12.6588ZM5.06449 15.1084C5.45656 14.3359 5.73505 13.5108 5.89134 12.6588L3.92416 12.298C3.8026 12.9607 3.586 13.6024 3.28105 14.2032L5.06449 15.1084ZM4.46069 16.1585C4.74805 15.6795 4.91667 15.3996 5.06449 15.1084L3.28105 14.2032C3.17259 14.4169 3.04693 14.6274 2.7457 15.1295L4.46069 16.1585ZM3.55004 17.6762L4.46069 16.1585L2.7457 15.1295L1.83506 16.6472L3.55004 17.6762ZM2.64134 19.1907C2.72906 19.3456 2.61813 19.4266 2.74569 19.119C2.876 18.8048 3.12975 18.3767 3.55004 17.6762L1.83506 16.6472C1.44959 17.2897 1.09902 17.8688 0.898265 18.3528C0.694752 18.8436 0.526003 19.5139 0.900945 20.1761L2.64134 19.1907ZM4.40753 19.1907C3.59064 19.1907 3.09299 19.188 2.75651 19.1381C2.42715 19.0893 2.55363 19.0358 2.64134 19.1907L0.900945 20.1761C1.27589 20.8383 1.93751 21.0385 2.46301 21.1165C2.98139 21.1934 3.65832 21.1907 4.40753 21.1907V19.1907ZM20.8755 19.1907H4.40753V21.1907H20.8755V19.1907ZM22.6417 19.1907C22.7294 19.0358 22.8559 19.0893 22.5266 19.1381C22.1901 19.188 21.6924 19.1907 20.8755 19.1907V21.1907C21.6247 21.1907 22.3017 21.1934 22.8201 21.1165C23.3456 21.0385 24.0072 20.8383 24.3821 20.1761L22.6417 19.1907ZM21.733 17.6762C22.1533 18.3767 22.4071 18.8048 22.5374 19.119C22.6649 19.4266 22.554 19.3456 22.6417 19.1907L24.3821 20.1761C24.7571 19.5139 24.5883 18.8436 24.3848 18.3528C24.184 17.8688 23.8335 17.2897 23.448 16.6472L21.733 17.6762ZM20.8224 16.1585L21.733 17.6762L23.448 16.6472L22.5374 15.1295L20.8224 16.1585ZM20.8265 16.1653L20.8266 16.1654L22.5332 15.1225L22.5331 15.1224L20.8265 16.1653ZM20.2186 15.1084C20.3664 15.3996 20.535 15.6795 20.8223 16.1584L22.5373 15.1294C22.2361 14.6274 22.1105 14.4169 22.002 14.2032L20.2186 15.1084ZM19.3917 12.6588C19.548 13.5108 19.8265 14.3359 20.2186 15.1084L22.002 14.2032C21.6971 13.6024 21.4805 12.9607 21.3589 12.2979L19.3917 12.6588ZM19.2436 11.5295C19.3004 12.0402 19.3352 12.3504 19.3917 12.6588L21.3589 12.298C21.3177 12.0734 21.2904 11.8399 21.2313 11.3085L19.2436 11.5295ZM20.2809 10.4199C17.8277 10.3132 15.871 8.28962 15.871 5.8096H13.871C13.871 9.36506 16.6757 12.2649 20.194 12.418L20.2809 10.4199ZM15.871 5.8096C15.871 4.8388 16.1697 3.94076 16.6801 3.19855L15.0322 2.06528C14.2998 3.13026 13.871 4.42136 13.871 5.8096H15.871ZM17.4646 5.13198C18.2395 6.05148 18.7577 7.19855 18.9038 8.47187L20.8908 8.24386C20.6985 6.56825 20.0149 5.05471 18.9941 3.84322L17.4646 5.13198ZM16.871 5.8096C16.871 7.52751 18.0684 8.96334 19.6732 9.33242L20.1214 7.38331C19.4048 7.21847 18.871 6.57517 18.871 5.8096H16.871ZM17.367 3.98127C17.0516 4.51848 16.871 5.14447 16.871 5.8096H18.871C18.871 5.51011 18.9516 5.23248 19.0917 4.99392L17.367 3.98127Z" fill="white"/>
<path d="M8.71922 20.1907C8.71922 20.7057 8.82067 21.2158 9.01778 21.6916C9.21488 22.1675 9.50379 22.5998 9.86799 22.964C10.2322 23.3282 10.6646 23.6171 11.1404 23.8143C11.6163 24.0114 12.1263 24.1128 12.6414 24.1128C13.1564 24.1128 13.6664 24.0114 14.1423 23.8143C14.6181 23.6171 15.0505 23.3282 15.4147 22.964C15.7789 22.5998 16.0678 22.1675 16.2649 21.6916C16.462 21.2158 16.5635 20.7057 16.5635 20.1907L12.6414 20.1907H8.71922Z" fill="white"/>
<circle cx="20.4858" cy="5.80958" r="3.11475" fill="#FFD02E" stroke="#FFD02E"/>
</svg>
