<svg width="39" height="40" viewBox="0 0 39 40" fill="none" xmlns="http://www.w3.org/2000/svg">
<circle cx="19.5" cy="20" r="19.5" fill="#FAA61A"/>
<path d="M29.282 18.4211C28.0285 15.7349 23.4082 12.8337 23.4082 12.8337C23.4082 12.8337 22.1546 14.1948 18.9311 16.8094C18.4297 17.2033 18.0715 17.7048 17.8208 18.242C17.9641 18.3136 18.1073 18.3853 18.2148 18.4569C18.4297 17.9913 18.752 17.5257 19.2176 17.1675C21.6532 15.1976 22.9425 13.944 23.4798 13.4426C24.5185 14.1231 27.8852 16.487 28.8522 18.636C29.5328 20.1045 29.4611 21.8236 28.6373 23.113C28.8522 22.2176 28.7806 21.1789 28.2792 20.2835C27.348 18.6002 24.9483 16.3079 23.5156 15.52C23.05 16.6303 21.9755 19.4956 22.262 22.7191C21.5099 20.1761 21.7964 16.9884 22.262 15.52C20.8294 17.3108 19.2176 17.4541 18.3939 18.5285C19.1102 18.9583 19.6833 19.4598 20.0772 20.0328C20.6145 20.8566 20.7219 21.7878 20.3996 22.6116C20.3638 22.7191 20.2921 22.8265 20.2563 22.9339C20.0056 23.6503 19.7549 24.2233 19.4684 24.7248C20.2921 25.2262 21.295 25.3695 22.5127 25.0471C28.1001 26.9812 31.0012 22.2176 29.282 18.4211Z" fill="white"/>
<path d="M11.4815 17.5259C9.15339 18.9585 7.75655 23.6505 13.129 24.0445C16.9614 24.331 18.3582 24.4384 19.1462 23.7221C18.5731 24.331 17.6777 24.7608 15.9943 24.6175C13.4514 24.3668 9.69063 24.8324 9.22502 21.6448C9.22502 21.6448 9.15339 26.0143 12.735 27.0172C14.9198 27.6261 15.9943 26.2651 16.9972 24.8324C16.7106 25.6204 15.9585 26.6232 15.9585 26.6232C15.9585 26.6232 18.3582 27.1247 19.8267 22.7551C19.8625 22.6476 19.9341 22.5402 19.9699 22.3969C20.8295 20.3196 18.1791 17.5259 11.4815 17.5259ZM16.3883 23.5072C15.6361 22.0387 13.7021 22.182 13.6663 21.0717C13.6304 19.9972 12.8425 18.3855 12.8425 18.3855C17.9642 20.6061 16.2808 22.0387 16.3883 23.5072Z" fill="white"/>
</svg>
