<svg width="22" height="24" viewBox="0 0 22 24" fill="none" xmlns="http://www.w3.org/2000/svg">
<path d="M1 12.5C1 10.6144 1 9.67157 1.58579 9.08579C2.17157 8.5 3.11438 8.5 5 8.5H17C18.8856 8.5 19.8284 8.5 20.4142 9.08579C21 9.67157 21 10.6144 21 12.5V17.5C21 20.3284 21 21.7426 20.1213 22.6213C19.2426 23.5 17.8284 23.5 15 23.5H7C4.17157 23.5 2.75736 23.5 1.87868 22.6213C1 21.7426 1 20.3284 1 17.5V12.5Z" stroke="#404040"/>
<path d="M16 7.25V6C16 3.23858 13.7614 1 11 1V1C8.23858 1 6 3.23858 6 6V7.25" stroke="#404040" stroke-linecap="round"/>
<circle cx="11" cy="16" r="2.5" fill="#404040"/>
</svg>
