<svg width="18" height="17" viewBox="0 0 18 17" fill="none" xmlns="http://www.w3.org/2000/svg">
<path fill-rule="evenodd" clip-rule="evenodd" d="M7.54982 0.839137C8.19597 -0.279717 9.80406 -0.279707 10.4502 0.839137L12.4291 4.26552C12.6115 4.58134 12.9267 4.79688 13.2861 4.8514L16.572 5.35005C18.0044 5.56741 18.5069 7.38451 17.3913 8.31298L14.9971 10.306C14.6611 10.5857 14.5031 11.027 14.5847 11.4577L15.2554 14.9963C15.5181 16.3825 14.0698 17.4595 12.8271 16.802L9.55802 15.0726C9.20869 14.8878 8.79134 14.8878 8.44201 15.0726L5.17292 16.802C3.93025 17.4595 2.48194 16.3825 2.74465 14.9963L3.41531 11.4577C3.49694 11.027 3.33893 10.5857 3.00288 10.306L0.608664 8.31298C-0.506853 7.38451 -0.00441112 5.56741 1.42796 5.35005L4.71393 4.8514C5.07328 4.79688 5.38855 4.58134 5.57094 4.26552L7.54982 0.839137ZM9.20718 1.56383C9.11491 1.40399 8.88515 1.40399 8.79289 1.56383L6.81401 4.99021C6.41273 5.68505 5.71916 6.15921 4.92859 6.27917L1.64262 6.77786C1.43798 6.80885 1.3662 7.06848 1.52557 7.20113L3.91979 9.19408C4.65909 9.8095 5.00673 10.7802 4.82712 11.7278L4.15646 15.2664C4.11895 15.4644 4.32584 15.6184 4.50336 15.5244L7.7725 13.7949C8.54081 13.3884 9.45925 13.3884 10.2276 13.7949L13.4967 15.5244C13.6743 15.6184 13.8811 15.4644 13.8436 15.2664L13.173 11.7278C12.9933 10.7802 13.3409 9.8095 14.0803 9.19408L16.4745 7.20113C16.6339 7.06848 16.5621 6.80885 16.3574 6.77786L13.0715 6.27917C12.2809 6.15921 11.5873 5.68505 11.1861 4.99021L9.20718 1.56383Z" fill="#FFD02E"/>
</svg>
