<svg width="39" height="39" viewBox="0 0 39 39" fill="none" xmlns="http://www.w3.org/2000/svg">
<circle cx="19.5" cy="19.5" r="19.5" fill="#FAA61A"/>
<path d="M16.6645 16.3746C16.9635 15.9669 17.1537 15.4776 17.1537 14.934C17.1537 13.6293 16.0665 12.542 14.7618 12.542C13.4299 12.542 12.3698 13.6293 12.3698 14.934C12.3698 15.4776 12.5329 15.9669 12.8319 16.3746C12.0436 16.6464 11.5 17.3803 11.5 18.2501V21.1042C11.5 21.7837 11.9621 22.3545 12.5873 22.5176V25.0183C12.5873 25.8337 13.2124 26.4589 14.0279 26.4589H15.4957C16.2839 26.4589 16.9363 25.8337 16.9363 25.0183V22.5176C17.5343 22.3545 18.0236 21.7837 18.0236 21.1042V18.2501C18.0236 17.3803 17.4527 16.6464 16.6645 16.3746ZM14.7618 13.4118C15.5772 13.4118 16.2839 14.1185 16.2839 14.934C16.2839 15.7766 15.5772 16.4561 14.7618 16.4561C13.9192 16.4561 13.2396 15.7766 13.2396 14.934C13.2396 14.1185 13.9192 13.4118 14.7618 13.4118ZM17.1537 21.1042C17.1537 21.4303 16.8819 21.675 16.5829 21.675H16.0665V25.0183C16.0665 25.3445 15.7947 25.5891 15.4957 25.5891H14.0279C13.7017 25.5891 13.4571 25.3445 13.4571 25.0183V21.675H12.9406C12.6144 21.675 12.3698 21.4303 12.3698 21.1042V18.2501C12.3698 17.6249 12.8591 17.1085 13.5114 17.1085H13.7561C14.3812 17.4075 15.088 17.4075 15.7403 17.1085H16.0121C16.6373 17.1085 17.1537 17.6249 17.1537 18.2501V21.1042Z" fill="white"/>
<path d="M27.4646 21.8109L26.3773 17.3531C26.323 17.0541 26.1599 16.8095 25.9152 16.6464C25.8881 16.592 25.8337 16.5649 25.8065 16.5377C26.1871 16.1299 26.4317 15.5591 26.4317 14.934C26.4317 13.6293 25.3444 12.542 24.0397 12.542C22.7078 12.542 21.6478 13.6293 21.6478 14.934C21.6478 15.5591 21.8652 16.1299 22.2457 16.5377C22.2186 16.5649 22.1642 16.592 22.137 16.6464C21.8924 16.8095 21.7293 17.0541 21.6749 17.3531L20.5877 21.8109C20.3974 22.6263 20.9954 23.4146 21.8652 23.4146H22.2186V25.0183C22.2186 25.8337 22.8437 26.4589 23.6592 26.4589H24.4203C25.2085 26.4589 25.8609 25.8337 25.8609 25.0183V23.4146H26.1871C27.0569 23.4146 27.6549 22.6263 27.4646 21.8109ZM24.0397 13.4118C24.8552 13.4118 25.5619 14.1185 25.5619 14.934C25.5619 15.7766 24.8552 16.4561 24.0397 16.4561C23.1971 16.4561 22.5176 15.7766 22.5176 14.934C22.5176 14.1185 23.1971 13.4118 24.0397 13.4118ZM26.2142 22.5448H24.9911V25.0183C24.9911 25.3445 24.7193 25.5891 24.4203 25.5891H23.6592C23.333 25.5891 23.0884 25.3445 23.0884 25.0183V22.5448H21.8652C21.5662 22.5448 21.3759 22.3001 21.4303 22.0283L22.5176 17.5434C22.5719 17.3531 22.735 17.2172 22.9525 17.2172H23.2786C23.5233 17.2988 23.7679 17.3259 24.0125 17.3259C24.2844 17.3259 24.529 17.2988 24.7736 17.2172H25.127C25.3173 17.2172 25.4803 17.3531 25.5347 17.5434L26.622 22.0283C26.6763 22.3001 26.4861 22.5448 26.2142 22.5448Z" fill="white"/>
</svg>
