<svg width="26" height="26" viewBox="0 0 26 26" fill="none" xmlns="http://www.w3.org/2000/svg">
<path d="M15.5637 2.629H16.0637V2.60394L16.0612 2.579L15.5637 2.629ZM15.263 1.35904L15.6468 1.03857V1.03857L15.263 1.35904ZM15.5637 2.62901H15.0637V2.65407L15.0662 2.679L15.5637 2.62901ZM16.1459 4.85246L15.8643 5.26561L15.8643 5.26561L16.1459 4.85246ZM16.5213 5.00837L16.4273 5.49947L16.4273 5.49947L16.5213 5.00837ZM18.515 3.84543L18.1993 3.45769V3.4577L18.515 3.84543ZM19.6375 3.15639L19.6793 3.65464L19.6375 3.15639ZM19.9035 3.16965L19.9947 2.67804V2.67804L19.9035 3.16965ZM20.9486 3.96356L21.3013 3.60914V3.60914L20.9486 3.96356ZM22.0208 5.03049L22.3735 4.67608V4.67608L22.0208 5.03049ZM22.8131 6.05889L22.3227 6.1563V6.1563L22.8131 6.05889ZM22.8277 6.34991L23.3253 6.39802V6.39801L22.8277 6.34991ZM22.1416 7.45208L22.5278 7.76963V7.76963L22.1416 7.45208ZM20.9772 9.4227L21.4693 9.33427V9.33427L20.9772 9.4227ZM21.1393 9.81517L21.5503 9.5305L21.5503 9.5305L21.1393 9.81517ZM23.3648 10.3904L23.4143 9.89289H23.4143L23.3648 10.3904ZM24.6403 10.6905L24.3202 11.0745L24.3202 11.0745L24.6403 10.6905ZM24.8277 10.8974L25.2416 10.6169V10.6169L24.8277 10.8974ZM24.8278 14.9853L24.4139 14.7048L24.4139 14.7048L24.8278 14.9853ZM24.6403 15.1925L24.9604 15.5766L24.9604 15.5766L24.6403 15.1925ZM23.3649 15.4924L23.3154 14.9949L23.3649 15.4924ZM21.1399 16.0675L21.5509 16.3522V16.3522L21.1399 16.0675ZM20.9776 16.4604L21.4697 16.5487V16.5487L20.9776 16.4604ZM22.1418 18.4304L21.7556 18.748H21.7556L22.1418 18.4304ZM22.8277 19.5323L22.33 19.5805V19.5805L22.8277 19.5323ZM22.8132 19.8236L22.3228 19.7261V19.7261L22.8132 19.8236ZM22.021 20.8517L22.3737 21.2061L22.021 20.8517ZM20.9487 21.9188L20.596 21.5644L20.5951 21.5652L20.9487 21.9188ZM20.9486 21.9188L21.3013 22.2732L21.3022 22.2724L20.9486 21.9188ZM19.9036 22.7127L19.9948 23.2043H19.9948L19.9036 22.7127ZM19.6376 22.726L19.6794 22.2277L19.6794 22.2277L19.6376 22.726ZM18.5151 22.037L18.1994 22.4247V22.4247L18.5151 22.037ZM16.5211 20.874L16.6152 21.3651L16.5211 20.874ZM16.1461 21.0298L15.8646 20.6166H15.8646L16.1461 21.0298ZM15.5637 23.2537L16.0612 23.3037L15.5637 23.2537ZM15.2629 24.5239L14.8792 24.2034L14.8792 24.2034L15.2629 24.5239ZM15.0566 24.7106L15.3371 25.1245L15.3371 25.1245L15.0566 24.7106ZM10.9435 24.7107L11.224 24.2968L10.9435 24.7107ZM10.737 24.5238L11.1208 24.2034L11.1208 24.2034L10.737 24.5238ZM10.4363 23.2539L9.9388 23.3039L10.4363 23.2539ZM9.85408 21.0303L10.1357 20.6172L10.1357 20.6172L9.85408 21.0303ZM9.47875 20.8744L9.3848 21.3655H9.38481L9.47875 20.8744ZM7.48498 22.0374L7.80067 22.4252L7.80067 22.4252L7.48498 22.0374ZM6.36237 22.7265L6.32055 22.2282H6.32054L6.36237 22.7265ZM6.0964 22.7132L6.18756 22.2216L6.18756 22.2216L6.0964 22.7132ZM5.05127 21.9193L5.40396 21.5649L5.05127 21.9193ZM3.97914 20.8524L4.33182 20.498H4.33182L3.97914 20.8524ZM3.18676 19.824L2.69634 19.9214L2.69634 19.9214L3.18676 19.824ZM3.17224 19.533L2.67456 19.4849L2.67456 19.4849L3.17224 19.533ZM3.8583 18.4308L3.47208 18.1133L3.8583 18.4308ZM5.02275 16.4602L4.53063 16.5486V16.5486L5.02275 16.4602ZM4.86063 16.0677L5.27168 15.7831L5.27168 15.7831L4.86063 16.0677ZM2.63517 15.4924L2.68468 14.9949H2.68468L2.63517 15.4924ZM1.35967 15.1924L1.03951 15.5765H1.03951L1.35967 15.1924ZM1.17227 14.9854L0.758398 15.266L0.758399 15.266L1.17227 14.9854ZM1.17233 10.8974L0.758501 10.6168L0.7585 10.6168L1.17233 10.8974ZM1.35958 10.6906L1.67979 11.0746L1.67979 11.0746L1.35958 10.6906ZM2.63528 10.3904L2.58577 9.89288H2.58577L2.63528 10.3904ZM4.86123 9.81493L4.4501 9.53036H4.4501L4.86123 9.81493ZM5.02317 9.42291L5.51526 9.51146V9.51146L5.02317 9.42291ZM3.85849 7.45171L3.47227 7.76926L3.85849 7.45171ZM3.17228 6.34921L2.67459 6.39722V6.39722L3.17228 6.34921ZM3.18679 6.05852L3.67722 6.15585L3.67722 6.15585L3.18679 6.05852ZM3.97934 5.02981L4.33202 5.38423V5.38422L3.97934 5.02981ZM5.05133 3.96305L4.69864 3.60863L5.05133 3.96305ZM6.09645 3.16911L6.18762 3.66073L6.09645 3.16911ZM6.36243 3.15585L6.40425 2.6576H6.40425L6.36243 3.15585ZM7.48512 3.845L7.80081 3.45726L7.48512 3.845ZM9.4786 5.00794L9.38476 4.51683L9.38475 4.51683L9.4786 5.00794ZM9.85431 4.8519L10.136 5.26499V5.26499L9.85431 4.8519ZM10.4363 2.62884L10.9338 2.67884V2.67884L10.4363 2.62884ZM10.7369 1.35914L10.3531 1.03871L10.3531 1.03871L10.7369 1.35914ZM10.9437 1.17211L11.2241 1.58606V1.58606L10.9437 1.17211ZM15.0564 1.17218L14.776 1.58609L14.776 1.58609L15.0564 1.17218ZM16.0612 2.579C16.0276 2.24484 15.9992 1.9556 15.9507 1.72211C15.9002 1.47904 15.8187 1.24442 15.6468 1.03857L14.8792 1.67952C14.9041 1.70926 14.9382 1.76482 14.9716 1.92543C15.0069 2.09563 15.0305 2.32358 15.0662 2.67899L16.0612 2.579ZM16.0637 2.62901V2.629H15.0637V2.62901H16.0637ZM16.4275 4.43932C16.3968 4.41836 16.3209 4.34882 16.2474 4.02268C16.1747 3.69989 16.1282 3.24616 16.0612 2.57901L15.0662 2.679C15.1305 3.31913 15.1826 3.84587 15.2718 4.24236C15.3604 4.63548 15.5099 5.02404 15.8643 5.26561L16.4275 4.43932ZM16.6152 4.51727C16.548 4.50441 16.4841 4.47788 16.4275 4.43932L15.8643 5.26561C16.034 5.38129 16.2256 5.46088 16.4273 5.49947L16.6152 4.51727ZM18.1993 3.4577C17.6768 3.88307 17.3205 4.172 17.0392 4.34941C16.7544 4.52895 16.6512 4.52416 16.6152 4.51727L16.4273 5.49947C16.8491 5.58014 17.2308 5.41072 17.5725 5.19532C17.9175 4.97779 18.3292 4.64146 18.8307 4.23317L18.1993 3.4577ZM19.5957 2.65815C19.3263 2.68076 19.1006 2.78933 18.891 2.92614C18.6896 3.05763 18.4625 3.24341 18.1993 3.45769L18.8307 4.23317C19.1105 4.00533 19.2906 3.85952 19.4377 3.76349C19.5766 3.67278 19.6407 3.65789 19.6793 3.65464L19.5957 2.65815ZM19.9947 2.67804C19.8632 2.65364 19.729 2.64695 19.5957 2.65815L19.6793 3.65464C19.7238 3.65091 19.7685 3.65314 19.8124 3.66127L19.9947 2.67804ZM21.3013 3.60914C21.0619 3.37089 20.8551 3.1642 20.6682 3.01382C20.4736 2.8572 20.2601 2.72727 19.9947 2.67804L19.8124 3.66127C19.8508 3.66841 19.9129 3.68958 20.0413 3.7929C20.1774 3.90246 20.3412 4.06454 20.5959 4.31798L21.3013 3.60914ZM22.3735 4.67608L21.3013 3.60914L20.5959 4.31798L21.6681 5.38491L22.3735 4.67608ZM23.3036 5.96148C23.2516 5.70009 23.1214 5.49024 22.9655 5.29897C22.8156 5.11516 22.6103 4.91173 22.3735 4.67608L21.6681 5.38491C21.9199 5.63552 22.0811 5.7968 22.1904 5.93087C22.2936 6.05748 22.3152 6.1187 22.3227 6.1563L23.3036 5.96148ZM23.3253 6.39801C23.3394 6.25222 23.3321 6.10515 23.3036 5.96148L22.3227 6.1563C22.3322 6.20419 22.3347 6.25321 22.33 6.30181L23.3253 6.39801ZM22.5278 7.76963C22.74 7.51157 22.924 7.28871 23.0549 7.0909C23.191 6.88505 23.2997 6.66328 23.3253 6.39802L22.33 6.30181C22.3263 6.33997 22.3109 6.40303 22.2208 6.53929C22.1253 6.68358 21.981 6.8601 21.7554 7.13454L22.5278 7.76963ZM21.4693 9.33427C21.4628 9.29845 21.4592 9.19589 21.6387 8.91468C21.816 8.63673 22.1039 8.28524 22.5278 7.76963L21.7554 7.13454C21.3485 7.62939 21.0133 8.03574 20.7957 8.37676C20.5802 8.7145 20.4097 9.09202 20.485 9.51113L21.4693 9.33427ZM21.5503 9.5305C21.5096 9.47165 21.4819 9.40473 21.4693 9.33427L20.485 9.51112C20.523 9.72251 20.606 9.92327 20.7282 10.0998L21.5503 9.5305ZM23.4143 9.89289C22.7468 9.82647 22.2923 9.78036 21.9687 9.7084C21.6408 9.63548 21.5707 9.55997 21.5503 9.5305L20.7282 10.0998C20.971 10.4503 21.3596 10.5974 21.7516 10.6846C22.1479 10.7727 22.6745 10.8242 23.3153 10.888L23.4143 9.89289ZM24.9605 10.3065C24.7542 10.1344 24.5187 10.0532 24.2751 10.0029C24.0408 9.95459 23.7503 9.92632 23.4143 9.89289L23.3153 10.888C23.6724 10.9235 23.9018 10.947 24.0731 10.9823C24.2349 11.0157 24.2907 11.05 24.3202 11.0745L24.9605 10.3065ZM25.2416 10.6169C25.1629 10.5008 25.0683 10.3963 24.9605 10.3064L24.3202 11.0745C24.3561 11.1045 24.3876 11.1393 24.4139 11.178L25.2416 10.6169ZM25.5 12.1917C25.5 11.8557 25.5006 11.5649 25.4757 11.3276C25.4498 11.0806 25.3921 10.8389 25.2416 10.6169L24.4139 11.178C24.4356 11.2101 24.4641 11.2688 24.4812 11.432C24.4994 11.605 24.5 11.8343 24.5 12.1917H25.5ZM25.5 13.6914V12.1917H24.5V13.6914H25.5ZM25.2417 15.2659C25.3922 15.0438 25.4498 14.8022 25.4757 14.5552C25.5006 14.318 25.5 14.0273 25.5 13.6914H24.5C24.5 14.0487 24.4994 14.2779 24.4812 14.4508C24.4641 14.6141 24.4356 14.6728 24.4139 14.7048L25.2417 15.2659ZM24.9604 15.5766C25.0682 15.4867 25.1629 15.3821 25.2417 15.2659L24.4139 14.7048C24.3876 14.7436 24.3561 14.7784 24.3201 14.8084L24.9604 15.5766ZM23.4144 15.99C23.7503 15.9566 24.0408 15.9283 24.275 15.88C24.5187 15.8297 24.7541 15.7485 24.9604 15.5766L24.3201 14.8084C24.2906 14.833 24.2349 14.8672 24.0731 14.9006C23.9019 14.9359 23.6725 14.9594 23.3154 14.9949L23.4144 15.99ZM21.5509 16.3522C21.5713 16.3228 21.6413 16.2473 21.9691 16.1744C22.2927 16.1025 22.7471 16.0564 23.4144 15.99L23.3154 14.9949C22.6747 15.0587 22.1483 15.1102 21.7521 15.1983C21.3602 15.2854 20.9717 15.4324 20.7289 15.7827L21.5509 16.3522ZM21.4697 16.5487C21.4824 16.4782 21.51 16.4112 21.5509 16.3522L20.7289 15.7827C20.6064 15.9594 20.5234 16.1604 20.4854 16.3721L21.4697 16.5487ZM22.528 18.1129C22.1042 17.5974 21.8164 17.246 21.6391 16.9682C21.4597 16.687 21.4633 16.5845 21.4697 16.5487L20.4854 16.3721C20.4103 16.7911 20.5807 17.1685 20.7961 17.5061C21.0137 17.847 21.3488 18.2533 21.7556 18.748L22.528 18.1129ZM23.3254 19.4841C23.2997 19.2189 23.191 18.9972 23.0549 18.7914C22.9241 18.5937 22.7401 18.3709 22.528 18.1129L21.7556 18.748C21.9811 19.0223 22.1254 19.1988 22.2208 19.343C22.3109 19.4793 22.3263 19.5423 22.33 19.5805L23.3254 19.4841ZM23.3036 19.9211C23.3322 19.7773 23.3395 19.63 23.3254 19.4841L22.33 19.5805C22.3347 19.6291 22.3323 19.6782 22.3228 19.7261L23.3036 19.9211ZM22.3737 21.2061C22.6104 20.9705 22.8157 20.7672 22.9655 20.5834C23.1214 20.3922 23.2516 20.1824 23.3036 19.9211L22.3228 19.7261C22.3153 19.7637 22.2937 19.8249 22.1905 19.9515C22.0812 20.0855 21.9201 20.2468 21.6683 20.4973L22.3737 21.2061ZM21.3013 22.2732L22.3737 21.2061L21.6683 20.4973L20.596 21.5644L21.3013 22.2732ZM21.3022 22.2724L21.3022 22.2723L20.5951 21.5652L20.5951 21.5652L21.3022 22.2724ZM19.9948 23.2043C20.2602 23.1551 20.4736 23.0252 20.6683 22.8685C20.8551 22.7182 21.0619 22.5115 21.3013 22.2732L20.596 21.5644C20.3413 21.8178 20.1775 21.9799 20.0413 22.0894C19.9129 22.1928 19.8509 22.2139 19.8124 22.2211L19.9948 23.2043ZM19.5957 23.2242C19.729 23.2354 19.8632 23.2287 19.9948 23.2043L19.8124 22.2211C19.7686 22.2292 19.7238 22.2314 19.6794 22.2277L19.5957 23.2242ZM18.1994 22.4247C18.4626 22.639 18.6897 22.8247 18.8911 22.9562C19.1007 23.093 19.3264 23.2016 19.5957 23.2242L19.6794 22.2277C19.6407 22.2245 19.5767 22.2096 19.4378 22.1189C19.2907 22.0229 19.1106 21.8771 18.8308 21.6493L18.1994 22.4247ZM16.6152 21.3651C16.6512 21.3582 16.7544 21.3534 17.0392 21.5329C17.3206 21.7103 17.6769 21.9993 18.1994 22.4247L18.8308 21.6493C18.3293 21.2409 17.9175 20.9045 17.5725 20.687C17.2307 20.4716 16.8489 20.3022 16.4271 20.3829L16.6152 21.3651ZM16.4277 21.443C16.4842 21.4045 16.548 21.378 16.6152 21.3651L16.4271 20.3829C16.2256 20.4215 16.0341 20.501 15.8646 20.6166L16.4277 21.443ZM16.0612 23.3037C16.1283 22.6364 16.1748 22.1825 16.2475 21.8597C16.321 21.5335 16.3969 21.4639 16.4277 21.443L15.8646 20.6166C15.5101 20.8581 15.3605 21.2468 15.2719 21.64C15.1826 22.0366 15.1306 22.5634 15.0662 23.2037L16.0612 23.3037ZM15.6467 24.8445C15.8186 24.6386 15.9002 24.4039 15.9507 24.1608C15.9992 23.9273 16.0276 23.6379 16.0612 23.3037L15.0662 23.2037C15.0305 23.5592 15.0069 23.7872 14.9716 23.9575C14.9382 24.1181 14.904 24.1737 14.8792 24.2034L15.6467 24.8445ZM15.3371 25.1245C15.4529 25.046 15.5571 24.9518 15.6467 24.8445L14.8792 24.2034C14.8493 24.2392 14.8146 24.2706 14.776 24.2968L15.3371 25.1245ZM13.7626 25.3829C14.0986 25.3829 14.3893 25.3835 14.6265 25.3586C14.8734 25.3327 15.1151 25.275 15.3371 25.1245L14.776 24.2968C14.7439 24.3185 14.6852 24.3469 14.522 24.3641C14.3491 24.3822 14.1199 24.3829 13.7626 24.3829V25.3829ZM12.2372 25.3829H13.7626V24.3829H12.2372V25.3829ZM10.663 25.1246C10.885 25.2751 11.1266 25.3327 11.3736 25.3586C11.6107 25.3835 11.9014 25.3829 12.2372 25.3829V24.3829C11.88 24.3829 11.6508 24.3822 11.478 24.3641C11.3148 24.347 11.2561 24.3185 11.224 24.2968L10.663 25.1246ZM10.3532 24.8443C10.4429 24.9518 10.5472 25.0461 10.663 25.1246L11.224 24.2968C11.1854 24.2706 11.1507 24.2392 11.1208 24.2034L10.3532 24.8443ZM9.9388 23.3039C9.97239 23.638 10.0008 23.9273 10.0493 24.1608C10.0998 24.4039 10.1813 24.6385 10.3532 24.8443L11.1208 24.2034C11.0959 24.1736 11.0618 24.1181 11.0284 23.9574C10.9931 23.7872 10.9695 23.5593 10.9338 23.2039L9.9388 23.3039ZM9.57247 21.4435C9.60323 21.4644 9.67913 21.534 9.75257 21.8601C9.82526 22.1829 9.87176 22.6367 9.9388 23.3039L10.9338 23.2039C10.8695 22.5637 10.8174 22.037 10.7281 21.6405C10.6396 21.2473 10.4901 20.8587 10.1357 20.6172L9.57247 21.4435ZM9.38481 21.3655C9.45203 21.3784 9.51591 21.4049 9.57247 21.4435L10.1357 20.6172C9.96601 20.5015 9.77439 20.4219 9.5727 20.3834L9.38481 21.3655ZM7.80067 22.4252C8.32314 21.9998 8.67943 21.7108 8.96084 21.5334C9.24562 21.3539 9.34878 21.3587 9.3848 21.3655L9.5727 20.3834C9.1509 20.3027 8.76917 20.4721 8.42751 20.6875C8.08247 20.905 7.67078 21.2414 7.16929 21.6497L7.80067 22.4252ZM6.40419 23.2247C6.67356 23.2021 6.8993 23.0936 7.10887 22.9567C7.3103 22.8252 7.53747 22.6395 7.80067 22.4252L7.16929 21.6497C6.88944 21.8775 6.70932 22.0234 6.56221 22.1194C6.42325 22.2101 6.35922 22.225 6.32055 22.2282L6.40419 23.2247ZM6.00523 23.2049C6.13673 23.2292 6.27092 23.2359 6.4042 23.2247L6.32054 22.2282C6.27612 22.232 6.2314 22.2297 6.18756 22.2216L6.00523 23.2049ZM4.69858 22.2737C4.93802 22.512 5.14481 22.7187 5.3317 22.8691C5.52634 23.0257 5.73979 23.1556 6.00523 23.2049L6.18756 22.2216C6.14907 22.2145 6.08702 22.1933 5.95861 22.09C5.82246 21.9804 5.65865 21.8183 5.40396 21.5649L4.69858 22.2737ZM3.62645 21.2068L4.69858 22.2737L5.40396 21.5649L4.33182 20.498L3.62645 21.2068ZM2.69634 19.9214C2.74826 20.1828 2.8785 20.3926 3.03445 20.5839C3.18431 20.7677 3.38963 20.9712 3.62645 21.2068L4.33182 20.498C4.07998 20.2474 3.91881 20.0861 3.8095 19.952C3.70627 19.8254 3.68465 19.7642 3.67719 19.7266L2.69634 19.9214ZM2.67456 19.4849C2.66047 19.6307 2.66781 19.7777 2.69634 19.9214L3.67719 19.7266C3.66767 19.6787 3.66523 19.6297 3.66992 19.5811L2.67456 19.4849ZM3.47208 18.1133C3.2599 18.3713 3.07585 18.5942 2.94503 18.792C2.8089 18.9978 2.7002 19.2196 2.67456 19.4849L3.66992 19.5811C3.67361 19.5429 3.68903 19.4799 3.77914 19.3436C3.87456 19.1993 4.01888 19.0228 4.24452 18.7483L3.47208 18.1133ZM4.53063 16.5486C4.53707 16.5844 4.54068 16.687 4.36123 16.9682C4.18387 17.2461 3.89602 17.5976 3.47208 18.1133L4.24452 18.7483C4.65138 18.2535 4.98662 17.8471 5.20423 17.5061C5.41974 17.1684 5.59018 16.7909 5.51487 16.3717L4.53063 16.5486ZM4.44957 16.3524C4.49033 16.4112 4.51797 16.4781 4.53063 16.5486L5.51487 16.3717C5.47688 16.1604 5.39395 15.9596 5.27168 15.7831L4.44957 16.3524ZM2.58566 15.99C3.25308 16.0564 3.70767 16.1025 4.03126 16.1745C4.35916 16.2474 4.42916 16.3229 4.44957 16.3524L5.27168 15.7831C5.02894 15.4325 4.64032 15.2855 4.24833 15.1983C3.85203 15.1102 3.32546 15.0587 2.68468 14.9949L2.58566 15.99ZM1.03951 15.5765C1.24583 15.7485 1.48128 15.8297 1.72493 15.88C1.95923 15.9283 2.24969 15.9566 2.58566 15.99L2.68468 14.9949C2.32752 14.9594 2.09814 14.9359 1.92692 14.9006C1.76507 14.8672 1.70933 14.8329 1.67984 14.8084L1.03951 15.5765ZM0.758399 15.266C0.837122 15.3821 0.931747 15.4866 1.03951 15.5765L1.67984 14.8084C1.64392 14.7784 1.61237 14.7436 1.58613 14.7049L0.758399 15.266ZM0.5 13.6912C0.5 14.0272 0.499358 14.318 0.524266 14.5553C0.550196 14.8022 0.607868 15.0439 0.758398 15.266L1.58613 14.7049C1.5644 14.6728 1.53594 14.6141 1.5188 14.4508C1.50064 14.2779 1.5 14.0486 1.5 13.6912H0.5ZM0.5 12.1918V13.6912H1.5V12.1918H0.5ZM0.7585 10.6168C0.607912 10.8388 0.550216 11.0806 0.524276 11.3276C0.499358 11.5649 0.5 11.8557 0.5 12.1918H1.5C1.5 11.8344 1.50064 11.605 1.51881 11.432C1.53595 11.2688 1.56442 11.21 1.58617 11.178L0.7585 10.6168ZM1.03937 10.3065C0.931712 10.3963 0.837169 10.5007 0.758501 10.6168L1.58617 11.178C1.61239 11.1393 1.6439 11.1045 1.67979 11.0746L1.03937 10.3065ZM2.58577 9.89288C2.24975 9.92632 1.95923 9.95459 1.7249 10.0029C1.48119 10.0532 1.24571 10.1345 1.03937 10.3065L1.67979 11.0746C1.70929 11.05 1.76503 11.0157 1.92691 10.9823C2.09815 10.947 2.32757 10.9235 2.68479 10.888L2.58577 9.89288ZM4.4501 9.53036C4.42968 9.55986 4.35969 9.63539 4.03172 9.70834C3.70806 9.78032 3.25337 9.82645 2.58577 9.89288L2.68479 10.888C3.32573 10.8242 3.85244 10.7726 4.24883 10.6845C4.64092 10.5973 5.02963 10.4502 5.27235 10.0995L4.4501 9.53036ZM4.53107 9.33435C4.51841 9.40473 4.49079 9.47157 4.4501 9.53036L5.27235 10.0995C5.39444 9.9231 5.47727 9.72258 5.51526 9.51146L4.53107 9.33435ZM3.47227 7.76926C3.89633 8.28502 4.18427 8.63662 4.36167 8.91464C4.54115 9.19594 4.53752 9.29852 4.53107 9.33435L5.51526 9.51146C5.5907 9.09224 5.42025 8.7146 5.20468 8.37675C4.98703 8.03564 4.65169 7.62916 4.2447 7.13416L3.47227 7.76926ZM2.67459 6.39722C2.70019 6.66257 2.80891 6.88441 2.94508 7.09032C3.07593 7.2882 3.26003 7.51112 3.47227 7.76926L4.2447 7.13416C4.019 6.85965 3.87464 6.68307 3.7792 6.53874C3.68906 6.40244 3.67365 6.33936 3.66997 6.30119L2.67459 6.39722ZM2.69635 5.9612C2.66787 6.1047 2.66054 6.2516 2.67459 6.39722L3.66997 6.30119C3.66529 6.25265 3.66773 6.20368 3.67722 6.15585L2.69635 5.9612ZM3.62665 4.67539C3.38977 4.91112 3.18439 5.1146 3.03449 5.29847C2.8785 5.4898 2.74824 5.69972 2.69635 5.9612L3.67722 6.15585C3.68469 6.11823 3.7063 6.057 3.80955 5.93035C3.91889 5.79623 4.08011 5.63491 4.33202 5.38423L3.62665 4.67539ZM4.69864 3.60863L3.62665 4.67539L4.33202 5.38422L5.40401 4.31747L4.69864 3.60863ZM6.00528 2.67749C5.73984 2.72672 5.5264 2.85665 5.33175 3.01328C5.14486 3.16366 4.93808 3.37036 4.69864 3.60863L5.40401 4.31747C5.6587 4.06402 5.82251 3.90193 5.95867 3.79237C6.08707 3.68904 6.14913 3.66787 6.18762 3.66073L6.00528 2.67749ZM6.40425 2.6576C6.27097 2.64642 6.13679 2.65311 6.00528 2.67749L6.18762 3.66073C6.23145 3.6526 6.27618 3.65037 6.32061 3.6541L6.40425 2.6576ZM7.80081 3.45726C7.53758 3.24294 7.3104 3.05713 7.10896 2.92562C6.89938 2.7888 6.67362 2.68021 6.40425 2.6576L6.32061 3.6541C6.35926 3.65734 6.4233 3.67224 6.56229 3.76297C6.70941 3.85902 6.88956 4.00486 7.16943 4.23273L7.80081 3.45726ZM9.38475 4.51683C9.34876 4.5237 9.2456 4.52848 8.96084 4.34893C8.67947 4.17151 8.32322 3.8826 7.80081 3.45726L7.16943 4.23273C7.67087 4.641 8.0825 4.97729 8.42748 5.19481C8.76907 5.4102 9.15073 5.57964 9.57245 5.49905L9.38475 4.51683ZM9.57261 4.4388C9.516 4.47741 9.45206 4.50397 9.38476 4.51683L9.57245 5.49905C9.77435 5.46047 9.96618 5.3808 10.136 5.26499L9.57261 4.4388ZM9.93882 2.57885C9.87179 3.24586 9.82531 3.69949 9.75264 4.02222C9.67922 4.34831 9.60335 4.41784 9.57261 4.4388L10.136 5.26499C10.4903 5.02341 10.6397 4.63492 10.7282 4.24187C10.8175 3.84546 10.8695 3.31884 10.9338 2.67884L9.93882 2.57885ZM10.3531 1.03871C10.1812 1.24454 10.0997 1.47911 10.0493 1.72214C10.0008 1.95558 9.97239 2.24476 9.93882 2.57885L10.9338 2.67884C10.9695 2.3235 10.9931 2.0956 11.0284 1.92544C11.0617 1.76486 11.0959 1.7093 11.1207 1.67957L10.3531 1.03871ZM10.6632 0.758167C10.5472 0.83674 10.4428 0.931172 10.3531 1.03871L11.1207 1.67957C11.1506 1.64372 11.1854 1.61225 11.2241 1.58606L10.6632 0.758167ZM12.237 0.5C11.9013 0.5 11.6107 0.499358 11.3736 0.524245C11.1267 0.550154 10.8852 0.607779 10.6632 0.758167L11.2241 1.58606C11.2562 1.56433 11.3149 1.5359 11.478 1.51878C11.6508 1.50064 11.8799 1.5 12.237 1.5V0.5ZM13.7628 0.5H12.237V1.5H13.7628V0.5ZM15.3369 0.758272C15.1149 0.607824 14.8733 0.550175 14.6264 0.524255C14.3893 0.499358 14.0986 0.5 13.7628 0.5V1.5C14.12 1.5 14.3492 1.50064 14.522 1.51879C14.6852 1.53592 14.7439 1.56436 14.776 1.58609L15.3369 0.758272ZM15.6468 1.03857C15.5571 0.931136 15.4528 0.836789 15.3369 0.758271L14.776 1.58609C14.8146 1.61226 14.8493 1.64371 14.8792 1.67952L15.6468 1.03857ZM17.3 12.9414C17.3 15.301 15.3771 17.218 13 17.218V18.218C15.9248 18.218 18.3 15.8579 18.3 12.9414H17.3ZM13 8.66486C15.3771 8.66486 17.3 10.5819 17.3 12.9414H18.3C18.3 10.025 15.9248 7.66486 13 7.66486V8.66486ZM8.7 12.9414C8.7 10.5819 10.6229 8.66486 13 8.66486V7.66486C10.0752 7.66486 7.7 10.025 7.7 12.9414H8.7ZM13 17.218C10.6229 17.218 8.7 15.301 8.7 12.9414H7.7C7.7 15.8579 10.0752 18.218 13 18.218V17.218Z" fill="#404040"/>
</svg>
