<svg width="40" height="39" viewBox="0 0 40 39" fill="none" xmlns="http://www.w3.org/2000/svg">
<circle cx="20" cy="19.8442" r="19" fill="#FAA61A"/>
<path d="M24.6981 28.6915C24.6981 28.796 24.6284 28.796 24.5238 28.7612L20.5155 26.2864C20.4109 26.2167 20.3412 26.1122 20.3412 26.0076V21.9992C20.3412 21.8947 20.4109 21.8947 20.5155 21.9295L24.5238 24.4043C24.6284 24.474 24.6981 24.5785 24.6981 24.6831V28.6915Z" fill="white"/>
<path d="M15.3569 28.3776C15.3569 28.4822 15.2872 28.4822 15.1826 28.4473L11.1743 25.9726C11.0697 25.9029 11 25.7983 11 25.6938V21.6854C11 21.5808 11.0697 21.5808 11.1743 21.6157L15.1826 24.0904C15.2872 24.1601 15.3569 24.2647 15.3569 24.3693V28.3776Z" fill="white"/>
<path d="M19.8182 20.5351C19.8182 20.6396 19.7485 20.6396 19.6439 20.6048L15.6356 18.1301C15.531 18.0604 15.4613 17.9558 15.4613 17.8512V13.8429C15.4613 13.7383 15.531 13.7383 15.6356 13.7732L19.6439 16.2479C19.7485 16.3176 19.8182 16.4222 19.8182 16.5267V20.5351Z" fill="white"/>
<path d="M24.1054 13.355L19.9925 10.8803C19.8879 10.8106 19.6788 10.8454 19.5394 10.95L15.9841 13.111C15.8447 13.2156 15.775 13.3201 15.8796 13.3898L19.9925 15.8646C20.0971 15.9343 20.3062 15.8994 20.4456 15.7949L24.0008 13.6338C24.1403 13.5293 24.1751 13.3898 24.1054 13.355ZM19.8531 12.2745L17.1344 13.2853L17.0298 13.2156L19.7834 11.5425L22.746 13.3201L19.8531 12.2745Z" fill="white"/>
<path d="M19.6089 21.1276L15.496 18.6528C15.3915 18.5831 15.1823 18.618 15.0429 18.7226L11.4877 20.8836C11.3483 20.9881 11.2785 21.0927 11.3831 21.1624L15.496 23.6371C15.6006 23.7069 15.8097 23.672 15.9491 23.5674L19.5044 21.4064C19.6787 21.3018 19.7135 21.1973 19.6089 21.1276ZM15.4612 20.0122L12.7425 21.023L12.6379 20.9533L15.3915 19.2802L18.3542 21.0579L15.4612 20.0122Z" fill="white"/>
<path d="M28.8107 21.4067L24.6629 18.9668C24.5583 18.8971 24.3492 18.932 24.2098 19.0365L20.6545 21.1975C20.5151 21.3021 20.4454 21.4067 20.55 21.4764L24.6629 23.9511C24.7675 24.0208 24.9766 23.986 25.116 23.8814L28.6712 21.7204C28.8455 21.581 28.8804 21.4764 28.8107 21.4067ZM24.628 20.2913L21.9093 21.3021L21.8048 21.2324L24.5583 19.5593L27.521 21.337L24.628 20.2913Z" fill="white"/>
<path d="M28.9503 22.1383L25.3254 24.369C25.2208 24.4388 25.1511 24.5433 25.1511 24.6479V28.6562C25.1511 28.7608 25.2208 28.7608 25.3254 28.7259L28.9503 26.4952C29.0549 26.4255 29.1246 26.3209 29.1246 26.2164V22.208C29.1246 22.1383 29.0549 22.1035 28.9503 22.1383ZM28.6018 26.0769L25.9528 27.75L28.079 25.7981L28.5669 23.0794L28.6366 23.0445L28.6018 26.0769Z" fill="white"/>
<path d="M24.2799 14.0173L20.655 16.248C20.5504 16.3177 20.4807 16.4223 20.4807 16.5269V20.5352C20.4807 20.6398 20.5504 20.6398 20.655 20.6049L24.2799 18.3742C24.3845 18.3045 24.4542 18.1999 24.4542 18.0954V14.087C24.4542 13.9825 24.3845 13.9825 24.2799 14.0173ZM23.9662 17.9559L21.3172 19.629L23.4434 17.6771L23.9314 14.9584L24.0011 14.9235L23.9662 17.9559Z" fill="white"/>
<path d="M19.6443 21.8599L16.0194 24.0906C15.9148 24.1603 15.8451 24.2649 15.8451 24.3695V28.3778C15.8451 28.4824 15.9148 28.4824 16.0194 28.4475L19.6443 26.2168C19.7489 26.1471 19.8186 26.0425 19.8186 25.9379V21.9296C19.8186 21.825 19.7489 21.7902 19.6443 21.8599ZM19.3655 25.7637L16.7165 27.4367L18.8426 25.4848L19.3306 22.7661L19.4003 22.7313L19.3655 25.7637Z" fill="white"/>
</svg>
