<svg width="39" height="40" viewBox="0 0 39 40" fill="none" xmlns="http://www.w3.org/2000/svg">
<circle cx="19.5" cy="20" r="19.5" fill="#FAA61A"/>
<path d="M24.2317 28.0622C24.2317 28.1689 24.1606 28.1689 24.0539 28.1333L19.9625 25.6073C19.8558 25.5362 19.7846 25.4294 19.7846 25.3227V21.2313C19.7846 21.1246 19.8558 21.1246 19.9625 21.1602L24.0539 23.6862C24.1606 23.7573 24.2317 23.8641 24.2317 23.9708V28.0622Z" fill="white"/>
<path d="M14.6971 27.7418C14.6971 27.8486 14.626 27.8486 14.5193 27.813L10.4279 25.287C10.3212 25.2159 10.25 25.1091 10.25 25.0024V20.911C10.25 20.8043 10.3212 20.8043 10.4279 20.8399L14.5193 23.3659C14.626 23.437 14.6971 23.5437 14.6971 23.6505V27.7418Z" fill="white"/>
<path d="M19.2508 19.7372C19.2508 19.8439 19.1797 19.8439 19.073 19.8084L14.9816 17.2824C14.8749 17.2112 14.8037 17.1045 14.8037 16.9978V12.9064C14.8037 12.7997 14.8749 12.7997 14.9816 12.8352L19.073 15.3612C19.1797 15.4324 19.2508 15.5391 19.2508 15.6458V19.7372Z" fill="white"/>
<path d="M23.6268 12.4085L19.4287 9.88248C19.322 9.81132 19.1086 9.8469 18.9662 9.95363L15.3374 12.1594C15.1951 12.2661 15.1239 12.3729 15.2307 12.444L19.4287 14.97C19.5355 15.0412 19.7489 15.0056 19.8913 14.8988L23.5201 12.6931C23.6624 12.5863 23.698 12.444 23.6268 12.4085ZM19.2864 11.3056L16.5114 12.3373L16.4047 12.2661L19.2153 10.5584L22.2393 12.3729L19.2864 11.3056Z" fill="white"/>
<path d="M19.0372 20.3418L14.8391 17.8158C14.7324 17.7447 14.519 17.7803 14.3766 17.887L10.7478 20.0928C10.6055 20.1995 10.5343 20.3062 10.6411 20.3774L14.8391 22.9034C14.9459 22.9745 15.1593 22.9389 15.3016 22.8322L18.9305 20.6264C19.1084 20.5197 19.144 20.413 19.0372 20.3418ZM14.8036 19.2033L12.0286 20.2351L11.9218 20.1639L14.7324 18.4562L17.7565 20.2706L14.8036 19.2033Z" fill="white"/>
<path d="M28.4296 20.6268L24.1959 18.1364C24.0892 18.0652 23.8757 18.1008 23.7334 18.2075L20.1045 20.4133C19.9622 20.52 19.8911 20.6268 19.9978 20.6979L24.1959 23.2239C24.3026 23.2951 24.5161 23.2595 24.6584 23.1528L28.2873 20.947C28.4651 20.8047 28.5007 20.6979 28.4296 20.6268ZM24.1603 19.4883L21.3853 20.52L21.2786 20.4489L24.0892 18.7412L27.1132 20.5556L24.1603 19.4883Z" fill="white"/>
<path d="M28.5721 21.3736L24.8721 23.6505C24.7654 23.7217 24.6942 23.8284 24.6942 23.9351V28.0265C24.6942 28.1332 24.7654 28.1332 24.8721 28.0976L28.5721 25.8207C28.6788 25.7496 28.75 25.6428 28.75 25.5361V21.4447C28.75 21.3736 28.6788 21.338 28.5721 21.3736ZM28.2163 25.3938L25.5125 27.1015L27.6827 25.1092L28.1808 22.3342L28.2519 22.2986L28.2163 25.3938Z" fill="white"/>
<path d="M23.805 13.0843L20.105 15.3612C19.9983 15.4324 19.9271 15.5391 19.9271 15.6458V19.7372C19.9271 19.8439 19.9983 19.8439 20.105 19.8083L23.805 17.5314C23.9118 17.4602 23.9829 17.3535 23.9829 17.2468V13.1554C23.9829 13.0487 23.9118 13.0487 23.805 13.0843ZM23.4848 17.1045L20.781 18.8122L22.9512 16.8199L23.4493 14.0448L23.5204 14.0093L23.4848 17.1045Z" fill="white"/>
<path d="M19.0733 21.0893L15.3733 23.3662C15.2666 23.4374 15.1954 23.5441 15.1954 23.6508V27.7422C15.1954 27.8489 15.2666 27.8489 15.3733 27.8133L19.0733 25.5364C19.1801 25.4652 19.2512 25.3585 19.2512 25.2518V21.1604C19.2512 21.0537 19.1801 21.0181 19.0733 21.0893ZM18.7887 25.0739L16.0849 26.7816L18.2551 24.7893L18.7531 22.0143L18.8243 21.9787L18.7887 25.0739Z" fill="white"/>
</svg>
