<svg width="11" height="17" viewBox="0 0 11 17" fill="none" xmlns="http://www.w3.org/2000/svg">
<path fill-rule="evenodd" clip-rule="evenodd" d="M4.36715 0.215851C4.505 0.0409455 4.71907 -0.0359284 4.92391 0.0159266C7.66161 0.708982 9.04541 4.01705 8.71998 6.97671C8.59351 8.12726 8.28095 9.02918 7.82078 9.74681C7.81798 9.75124 7.81508 9.7556 7.81227 9.75995C7.91681 9.70331 8.01324 9.64217 8.10352 9.57759C8.55254 9.2562 8.88215 8.83209 9.31124 8.27983C9.36313 8.21307 9.41646 8.14448 9.47161 8.07397C9.59556 7.91544 9.78309 7.83549 9.97146 7.8609C10.1599 7.88625 10.3245 8.01365 10.4102 8.20036C10.7876 9.02281 11 9.95266 11 10.9353C11 14.2848 8.53759 17 5.5 17C2.46244 17 0 14.2848 0 10.9353C0 8.81309 0.989021 6.94594 2.48396 5.86313L2.53521 5.80619C2.56155 5.77693 2.59041 5.75059 2.62143 5.72759C3.27829 5.24021 3.74996 4.84158 4.06749 4.37278C4.36746 3.92992 4.55173 3.3897 4.55173 2.57028C4.55173 1.96359 4.45014 1.38451 4.26519 0.851639C4.19008 0.635209 4.22924 0.390756 4.36715 0.215851ZM5.62987 1.67382C5.66925 1.96658 5.68966 2.26599 5.68966 2.57042C5.68966 3.63145 5.44106 4.44194 4.97921 5.12379C4.54542 5.76412 3.94504 6.25592 3.30354 6.73394L3.24869 6.79487C3.2193 6.82754 3.18674 6.85651 3.15161 6.88133C1.93939 7.73708 1.13793 9.23325 1.13793 10.9354C1.13793 13.592 3.09089 15.7454 5.5 15.7454C7.90907 15.7454 9.86207 13.592 9.86207 10.9354C9.86207 10.5006 9.80987 10.0798 9.71208 9.67994C9.42366 10.0243 9.10527 10.3567 8.723 10.6302C8.02265 11.1315 7.14613 11.4176 5.87932 11.4176C5.61964 11.4176 5.39295 11.2238 5.32825 10.9465C5.26361 10.6693 5.37733 10.3788 5.60476 10.2407C6.11972 9.92788 6.55622 9.54552 6.89168 9.02244C7.2264 8.50056 7.48281 7.80365 7.59039 6.82582C7.82313 4.70882 7.02854 2.6193 5.62987 1.67382Z" fill="#FFD02E"/>
</svg>
